<svg width="68" height="48" viewBox="0 0 68 48" fill="none" xmlns="http://www.w3.org/2000/svg">
<path d="M0 2.66667C0 1.95942 0.358213 1.28115 0.995837 0.781048C1.63346 0.280951 2.49826 0 3.4 0H64.6C65.5017 0 66.3665 0.280951 67.0042 0.781048C67.6418 1.28115 68 1.95942 68 2.66667V17.3333C65.7457 17.3333 63.5837 18.0357 61.9896 19.286C60.3955 20.5362 59.5 22.2319 59.5 24C59.5 25.7681 60.3955 27.4638 61.9896 28.714C63.5837 29.9643 65.7457 30.6667 68 30.6667V45.3333C68 46.0406 67.6418 46.7189 67.0042 47.219C66.3665 47.7191 65.5017 48 64.6 48H3.4C2.49826 48 1.63346 47.7191 0.995837 47.219C0.358213 46.7189 0 46.0406 0 45.3333V2.66667ZM20.689 42.6667C21.0394 41.8853 21.6905 41.2086 22.5522 40.7299C23.414 40.2512 24.444 39.9941 25.5 39.9941C26.556 39.9941 27.586 40.2512 28.4478 40.7299C29.3095 41.2086 29.9606 41.8853 30.311 42.6667H61.2V34.752C58.6459 33.7592 56.4962 32.2265 54.9933 30.3268C53.4904 28.427 52.694 26.2357 52.694 24C52.694 21.7643 53.4904 19.573 54.9933 17.6732C56.4962 15.7735 58.6459 14.2408 61.2 13.248V5.33333H30.311C29.9606 6.11465 29.3095 6.79139 28.4478 7.27011C27.586 7.74884 26.556 8.00595 25.5 8.00595C24.444 8.00595 23.414 7.74884 22.5522 7.27011C21.6905 6.79139 21.0394 6.11465 20.689 5.33333H6.8V42.6667H20.689ZM25.5 21.3333C24.1474 21.3333 22.8502 20.9119 21.8938 20.1618C20.9373 19.4116 20.4 18.3942 20.4 17.3333C20.4 16.2725 20.9373 15.2551 21.8938 14.5049C22.8502 13.7548 24.1474 13.3333 25.5 13.3333C26.8526 13.3333 28.1498 13.7548 29.1062 14.5049C30.0627 15.2551 30.6 16.2725 30.6 17.3333C30.6 18.3942 30.0627 19.4116 29.1062 20.1618C28.1498 20.9119 26.8526 21.3333 25.5 21.3333ZM25.5 34.6667C24.1474 34.6667 22.8502 34.2452 21.8938 33.4951C20.9373 32.7449 20.4 31.7275 20.4 30.6667C20.4 29.6058 20.9373 28.5884 21.8938 27.8382C22.8502 27.0881 24.1474 26.6667 25.5 26.6667C26.8526 26.6667 28.1498 27.0881 29.1062 27.8382C30.0627 28.5884 30.6 29.6058 30.6 30.6667C30.6 31.7275 30.0627 32.7449 29.1062 33.4951C28.1498 34.2452 26.8526 34.6667 25.5 34.6667Z" fill="#06A6FF"/>
</svg>
