<svg width="113" height="90" viewBox="0 0 113 90" fill="none" xmlns="http://www.w3.org/2000/svg">
<path d="M103.445 25.6429L96.4696 36.1062C99.8065 42.7615 101.44 50.1407 101.224 57.5826C101.008 65.0245 98.9492 72.2965 95.232 78.7471H17.2632C12.4319 70.3658 10.4299 60.6507 11.5541 51.0422C12.6784 41.4336 16.8689 32.443 23.5045 25.4034C30.1401 18.3637 38.8676 13.6496 48.393 11.96C57.9184 10.2705 67.7347 11.6953 76.3867 16.0233L86.8501 9.04776C75.7653 1.86359 62.506 -1.19077 49.3954 0.419856C36.2847 2.03048 24.1589 8.20336 15.1427 17.8569C6.12648 27.5104 0.794847 40.0289 0.082017 53.2189C-0.630814 66.4089 3.32062 79.429 11.244 89.998H101.251C108.151 80.7794 112.056 69.6652 112.438 58.1566C112.821 46.6479 109.662 35.2991 103.389 25.6429H103.445Z" fill="#FF277A"/>
<path d="M48.3157 64.1742C49.3606 65.2202 50.6015 66.0501 51.9673 66.6163C53.3332 67.1825 54.7972 67.4739 56.2758 67.4739C57.7543 67.4739 59.2183 67.1825 60.5842 66.6163C61.95 66.0501 63.1909 65.2202 64.2358 64.1742L96.0758 16.4141L48.3157 48.2541C47.2697 49.299 46.4398 50.5399 45.8736 51.9057C45.3074 53.2716 45.016 54.7356 45.016 56.2141C45.016 57.6927 45.3074 59.1567 45.8736 60.5226C46.4398 61.8884 47.2697 63.1293 48.3157 64.1742Z" fill="#2AD1CD"/>
</svg>
