<svg width="107" height="92" viewBox="0 0 107 92" fill="none" xmlns="http://www.w3.org/2000/svg">
<path d="M69.55 38.7368C69.55 36.0737 71.9575 33.8947 74.9 33.8947C77.8425 33.8947 80.25 36.0737 80.25 38.7368C80.25 41.4 77.8425 43.5789 74.9 43.5789C71.9575 43.5789 69.55 41.4 69.55 38.7368ZM107 26.6316V60.3811L91.913 64.9326L82.925 92H53.5V82.3158H42.8V92H13.375C13.375 92 0 51.0358 0 36.3158C0 21.5958 13.161 9.68421 29.425 9.68421H56.175C61.0435 3.82526 68.801 0 77.575 0C78.8971 0.000254647 80.1986 0.296537 81.3635 0.862442C82.5284 1.42835 83.5205 2.2463 84.2515 3.24339C84.9824 4.24049 85.4294 5.38576 85.5527 6.57714C85.676 7.76851 85.4717 8.96899 84.958 10.0716C84.209 11.7179 83.567 13.6063 83.246 15.64L95.3905 26.6316H107ZM96.3 36.3158H90.95L72.225 19.3684C72.225 16.2211 72.7065 13.1221 73.616 10.12C68.4265 11.3305 64.2 14.8168 62.4345 19.3684H29.425C19.0995 19.3684 10.7 26.9705 10.7 36.3158C10.7 45.4189 17.227 68.5158 21.4535 82.3158H32.1V72.6316H64.2V82.3158H74.9535L83.246 57.379L96.3 53.4084V36.3158Z" fill="#FFA300"/>
<path d="M51.2548 43.8668L43.3781 41.5832C42.4664 41.323 41.8319 40.4775 41.8319 39.5381C41.8319 38.3602 42.7946 37.4062 43.9834 37.4062H48.8188C49.7086 37.4062 50.5838 37.6736 51.3131 38.165C51.758 38.4613 52.3561 38.3891 52.7353 38.0205L55.2734 35.5635C55.7912 35.0648 55.7182 34.2338 55.1421 33.793C53.3552 32.4055 51.1235 31.6322 48.8334 31.625V28.1562C48.8334 27.5203 48.3083 27 47.6665 27H45.3327C44.6909 27 44.1658 27.5203 44.1658 28.1562V31.625H43.9834C39.3376 31.625 35.6035 35.5779 36.0338 40.268C36.3401 43.5994 38.9073 46.3094 42.1455 47.2488L49.6211 49.4168C50.5328 49.6842 51.1673 50.5225 51.1673 51.4619C51.1673 52.6398 50.2046 53.5938 49.0158 53.5938H44.1804C43.2906 53.5938 42.4154 53.3264 41.6861 52.835C41.2412 52.5387 40.6431 52.6109 40.2639 52.9795L37.7258 55.4365C37.208 55.9352 37.281 56.7662 37.8571 57.207C39.644 58.5945 41.8757 59.3678 44.1658 59.375V62.8438C44.1658 63.4797 44.6909 64 45.3327 64H47.6665C48.3083 64 48.8334 63.4797 48.8334 62.8438V59.3605C52.2321 59.2955 55.4192 57.2938 56.5424 54.1068C58.1104 49.6553 55.4776 45.0881 51.2548 43.8668Z" fill="#2AD1CD"/>
</svg>
