<svg width="107" height="76" viewBox="0 0 107 76" fill="none" xmlns="http://www.w3.org/2000/svg">
<path d="M0 4.22222C0 3.10242 0.563659 2.02848 1.56698 1.23666C2.5703 0.44484 3.93109 0 5.35 0H101.65C103.069 0 104.43 0.44484 105.433 1.23666C106.436 2.02848 107 3.10242 107 4.22222V27.4444C103.453 27.4444 100.051 28.5565 97.5424 30.5361C95.0341 32.5156 93.625 35.2005 93.625 38C93.625 40.7995 95.0341 43.4844 97.5424 45.4639C100.051 47.4435 103.453 48.5556 107 48.5556V71.7778C107 72.8976 106.436 73.9715 105.433 74.7633C104.43 75.5552 103.069 76 101.65 76H5.35C3.93109 76 2.5703 75.5552 1.56698 74.7633C0.563659 73.9715 0 72.8976 0 71.7778V4.22222ZM32.5547 67.5556C33.1062 66.3185 34.1306 65.247 35.4866 64.489C36.8426 63.731 38.4633 63.3239 40.125 63.3239C41.7867 63.3239 43.4074 63.731 44.7634 64.489C46.1194 65.247 47.1438 66.3185 47.6952 67.5556H96.3V55.024C92.281 53.4521 88.8984 51.0253 86.5336 48.0174C84.1687 45.0095 82.9156 41.5399 82.9156 38C82.9156 34.4601 84.1687 30.9906 86.5336 27.9826C88.8984 24.9747 92.281 22.5479 96.3 20.976V8.44444H47.6952C47.1438 9.68153 46.1194 10.753 44.7634 11.511C43.4074 12.269 41.7867 12.6761 40.125 12.6761C38.4633 12.6761 36.8426 12.269 35.4866 11.511C34.1306 10.753 33.1062 9.68153 32.5547 8.44444H10.7V67.5556H32.5547Z" fill="#C439C4"/>
<path d="M38.1043 31.1045C40.1868 29.022 40.1868 25.6444 38.1043 23.5619C36.0218 21.4794 32.6444 21.4794 30.5619 23.5619C28.4794 25.6444 28.4794 29.022 30.5619 31.1045C32.6452 33.1879 36.0218 33.1879 38.1043 31.1045ZM59.4375 44.8955C57.355 42.813 53.9775 42.813 51.8951 44.8955C49.8126 46.978 49.8126 50.3556 51.8951 52.4381C53.9775 54.5206 57.355 54.5206 59.4375 52.4381C61.5208 50.3556 61.5208 46.9789 59.4375 44.8955ZM59.2758 25.6094L57.3909 23.7244C56.3492 22.6827 54.6609 22.6827 53.62 23.7244L30.7244 46.6205C29.6827 47.6622 29.6827 49.3506 30.7244 50.3914L32.6094 52.2764C33.651 53.3181 35.3393 53.3181 36.3802 52.2764L59.2758 29.3803C60.3175 28.3395 60.3175 26.6511 59.2758 25.6094Z" fill="#2AD1CD"/>
</svg>
