<svg width="96" height="92" viewBox="0 0 96 92" fill="none" xmlns="http://www.w3.org/2000/svg">
<path d="M84 26C82.3536 25.9991 80.7246 26.3375 79.2147 26.994C77.7048 27.6505 76.3464 28.6111 75.2243 29.8159C74.1021 31.0206 73.2402 32.4437 72.6923 33.9963C72.1445 35.5489 71.9224 37.1978 72.04 38.84L63.92 41.56C62.6332 39.1254 60.8011 37.0212 58.5669 35.4114C56.3327 33.8017 53.7567 32.73 51.04 32.28V23.64C53.6058 22.9554 55.8743 21.4439 57.4941 19.3396C59.114 17.2353 59.9947 14.6556 60 12C60 5.36 54.64 0 48 0C41.36 0 36 5.36 36 12C36 17.6 39.84 22.28 45 23.64V32.28C39.4 33.2 34.68 36.72 32.12 41.56L23.96 38.84C24 38.56 24 38.28 24 38C24 31.36 18.64 26 12 26C5.36 26 0 31.36 0 38C0 44.64 5.36 50 12 50C16.24 50 19.92 47.8 22.08 44.52L30.2 47.24C29.4 52.4 30.88 57.88 34.56 62L28.92 69.08C27.4 68.36 25.76 68 24 68C17.36 68 12 73.36 12 80C12 86.64 17.36 92 24 92C30.64 92 36 86.64 36 80C36 77.28 35.12 74.8 33.6 72.8L39.24 65.72C44.68 68.76 51.32 68.72 56.72 65.72L62.36 72.8C60.88 74.8 60 77.28 60 80C60 86.64 65.36 92 72 92C78.64 92 84 86.64 84 80C84 73.36 78.64 68 72 68C70.24 68 68.6 68.36 67.08 69.04L61.44 61.96C63.2151 59.9766 64.5271 57.6234 65.2811 55.0707C66.0352 52.518 66.2124 49.8296 65.8 47.2L73.92 44.48C76.04 47.76 79.76 49.96 84 49.96C90.64 49.96 96 44.6 96 37.96C96 31.32 90.64 26 84 26ZM12 42C9.8 42 8 40.2 8 38C8 35.8 9.8 34 12 34C14.2 34 16 35.8 16 38C16 40.2 14.2 42 12 42ZM24 84C21.8 84 20 82.2 20 80C20 77.8 21.8 76 24 76C26.2 76 28 77.8 28 80C28 82.2 26.2 84 24 84ZM44 12C44 9.8 45.8 8 48 8C50.2 8 52 9.8 52 12C52 14.2 50.2 16 48 16C45.8 16 44 14.2 44 12ZM48 60C45.3478 60 42.8043 58.9464 40.9289 57.0711C39.0536 55.1957 38 52.6522 38 50C38 47.3478 39.0536 44.8043 40.9289 42.9289C42.8043 41.0536 45.3478 40 48 40C50.6522 40 53.1957 41.0536 55.0711 42.9289C56.9464 44.8043 58 47.3478 58 50C58 52.6522 56.9464 55.1957 55.0711 57.0711C53.1957 58.9464 50.6522 60 48 60ZM72 76C74.2 76 76 77.8 76 80C76 82.2 74.2 84 72 84C69.8 84 68 82.2 68 80C68 77.8 69.8 76 72 76ZM84 42C81.8 42 80 40.2 80 38C80 35.8 81.8 34 84 34C86.2 34 88 35.8 88 38C88 40.2 86.2 42 84 42Z" fill="#06A6FF"/>
</svg>
