<svg width="93" height="93" viewBox="0 0 93 93" fill="none" xmlns="http://www.w3.org/2000/svg">
<path d="M16.75 29.5C23.7916 29.5 29.5 23.7916 29.5 16.75C29.5 9.70837 23.7916 4 16.75 4C9.70837 4 4 9.70837 4 16.75C4 23.7916 9.70837 29.5 16.75 29.5Z" stroke="#C2FF15" stroke-width="8" stroke-linecap="round" stroke-linejoin="round"/>
<path d="M8.85135 26.7578C6.99187 30.2965 5.64462 34.0814 4.84998 37.9991" stroke="#C2FF15" stroke-width="8" stroke-linecap="round" stroke-linejoin="round"/>
<path d="M26.7588 8.85506C30.2973 6.99487 34.0822 5.6469 38 4.85156" stroke="#C2FF15" stroke-width="8" stroke-linecap="round" stroke-linejoin="round"/>
<path d="M76.25 29.5C83.2916 29.5 89 23.7916 89 16.75C89 9.70837 83.2916 4 76.25 4C69.2084 4 63.5 9.70837 63.5 16.75C63.5 23.7916 69.2084 29.5 76.25 29.5Z" stroke="#C2FF15" stroke-width="8" stroke-linecap="round" stroke-linejoin="round"/>
<path d="M66.2413 8.85506C62.7027 6.99487 58.9178 5.6469 55 4.85156" stroke="#C2FF15" stroke-width="8" stroke-linecap="round" stroke-linejoin="round"/>
<path d="M84.1465 26.7578C86.0068 30.2963 87.3547 34.0812 88.15 37.9991" stroke="#C2FF15" stroke-width="8" stroke-linecap="round" stroke-linejoin="round"/>
<path d="M76.25 89C83.2916 89 89 83.2916 89 76.25C89 69.2084 83.2916 63.5 76.25 63.5C69.2084 63.5 63.5 69.2084 63.5 76.25C63.5 83.2916 69.2084 89 76.25 89Z" stroke="#C2FF15" stroke-width="8" stroke-linecap="round" stroke-linejoin="round"/>
<path d="M84.1465 66.2413C86.0067 62.7027 87.3547 58.9178 88.15 55" stroke="#C2FF15" stroke-width="8" stroke-linecap="round" stroke-linejoin="round"/>
<path d="M66.2413 84.1455C62.7027 86.0057 58.9178 87.3537 55 88.149" stroke="#C2FF15" stroke-width="8" stroke-linecap="round" stroke-linejoin="round"/>
<path d="M16.75 89C23.7916 89 29.5 83.2916 29.5 76.25C29.5 69.2084 23.7916 63.5 16.75 63.5C9.70837 63.5 4 69.2084 4 76.25C4 83.2916 9.70837 89 16.75 89Z" stroke="#C2FF15" stroke-width="8" stroke-linecap="round" stroke-linejoin="round"/>
<path d="M26.7588 84.1455C30.2973 86.0057 34.0822 87.3537 38 88.149" stroke="#C2FF15" stroke-width="8" stroke-linecap="round" stroke-linejoin="round"/>
<path d="M8.85135 66.2413C6.9919 62.7026 5.64464 58.9177 4.84998 55" stroke="#C2FF15" stroke-width="8" stroke-linecap="round" stroke-linejoin="round"/>
<path d="M46.5 59.25V33.75M33.75 46.5H59.25H33.75Z" stroke="#2AD1CD" stroke-width="8" stroke-linecap="round" stroke-linejoin="round"/>
</svg>
