<svg width="244" height="262" viewBox="0 0 244 262" fill="none" xmlns="http://www.w3.org/2000/svg">
<path d="M211.893 130.66H176C176 130.66 177.701 97.7924 184.302 56.5788C185.02 52.1798 187.938 44.0993 197.895 45.0821C206.915 46.0024 212.236 53.3029 212.236 70.6962C212.252 98.3852 211.893 130.66 211.893 130.66Z" fill="#E40E64"/>
<path d="M188.381 188.067L229.736 244.459L236.135 241.666C236.135 241.666 232.686 206.552 207.077 183.949L206.64 148.382L184.792 167.101" fill="#001DBF"/>
<path d="M176.459 130.895L172.198 249.669H180.36C180.36 249.669 194.265 218.954 188.381 195.882C188.381 195.882 209.496 158.6 212.336 130.895H176.459Z" fill="#0046FF"/>
<path style="mix-blend-mode:multiply" opacity="0.29" d="M176.458 130.895L211.649 135.887L212.336 130.895" fill="url(#paint0_linear_17_38)"/>
<path d="M173.93 22.3701C173.953 29.9873 175.442 37.5289 178.315 44.5836C180.347 45.0109 182.447 44.9923 184.47 44.529C186.494 44.0658 188.392 43.169 190.035 41.9005L190.301 48.1403L200.101 45.4572L199.789 33.1961L197.354 34.0852L197.12 30.2322C198.018 29.5656 198.707 28.6564 199.105 27.6117C199.503 26.5671 199.594 25.4304 199.367 24.3356C198.587 20.467 195.326 23.3997 194.686 24.3356L194.561 27.1435C194.561 27.1435 192.251 22.3233 194.342 19.531L190.769 15.5376C185.95 19.4196 180.093 21.7961 173.93 22.3701Z" fill="#FFCDA9"/>
<path d="M201.194 11.1073C200.752 9.21942 199.695 7.5317 198.189 6.30917C196.684 5.08663 194.815 4.39848 192.876 4.35272C194.436 9.11053 191.752 13.7124 190.348 18.3922L192.923 17.6122C192.389 20.8646 192.972 24.2019 194.577 27.081L194.702 24.2732C194.702 24.2732 196.153 21.9644 198.151 22.838C200.148 23.7116 199.617 27.9078 197.167 30.1853L197.401 35.3175L199.836 34.444L199.914 36.6122C201.229 35.2116 201.945 33.3537 201.912 31.4333C201.912 31.4333 211.4 22.6352 201.194 11.1073Z" fill="#93542A"/>
<path d="M192.923 17.6747C192.923 17.6747 185.354 26.3012 183.903 21.6214C183.903 21.6214 179.455 25.5992 176.459 22.0893C176.459 22.0893 168.219 23.5401 166.814 19.7339C165.254 15.4284 172.167 13.7593 172.167 13.7593C172.167 13.7593 165.285 9.87505 167.126 6.72398C168.968 3.5729 178.628 5.66318 178.628 5.66318C178.628 5.66318 175.117 2.13776 176.459 0.390631C177.801 -1.3565 187.039 3.32328 187.039 3.32328C187.039 3.32328 183.263 1.32658 185.292 0.624612C187.32 -0.0773598 192.876 4.43087 192.876 4.43087L195.279 7.6599L194.577 16.224L192.923 17.6747Z" fill="#93542A"/>
<path d="M203.41 46.7049L201.849 40.5432C201.849 40.5432 192.564 41.3231 187.601 47.7344L187.117 50.4488C187.117 50.4488 196.933 47.7344 203.41 46.7049Z" fill="#FBFFFF"/>
<path d="M179.97 249.669H172.183V253.6H179.97V249.669Z" fill="white"/>
<path d="M235.977 240.253L229.518 244.601L231.714 247.861L238.173 243.513L235.977 240.253Z" fill="white"/>
<path d="M179.985 253.6V261.946H145.871L172.182 253.6H179.985Z" fill="#C7DAEA"/>
<path d="M238.163 243.554L244 249.669L227.161 261.945H210.432L223.432 256.548L231.687 247.89L238.163 243.554Z" fill="#C7DAEA"/>
<path d="M131.67 84.0969L125.677 79.3391C125.466 79.1711 125.296 78.9576 125.178 78.7145C125.061 78.4714 125 78.205 125 77.9352C125 77.6653 125.061 77.3988 125.178 77.1558C125.296 76.9127 125.466 76.6992 125.677 76.5312L133.746 70.1042C134.065 69.8446 134.465 69.7029 134.877 69.7029C135.289 69.7029 135.689 69.8446 136.008 70.1042L153.424 84.3621C153.64 84.5399 153.81 84.7653 153.923 85.0205C154.036 85.2758 154.087 85.5538 154.073 85.8324C154.06 86.1111 153.981 86.3827 153.844 86.6257C153.707 86.8687 153.515 87.0765 153.284 87.2324L147.042 91.5222" fill="#B8D9FF"/>
<path d="M152.582 83.707L136.352 70.4164L125.428 79.1053C125.428 79.1053 125.521 79.2768 125.615 79.3392L129.173 82.1627L141.47 93.0823L152.582 83.707Z" fill="#545454"/>
<path d="M146.043 94.5795C143.888 94.8652 141.752 95.2767 139.645 95.8119L134.074 88.5893L130.734 86.9514V82.8176L132.794 84.4711L138.365 84.2683L133.683 81.5541L136.087 79.9941L140.768 82.0064L147.354 88.0746H181.39L191.596 65.7051L205.641 70.8685C205.641 70.8685 199.243 88.5894 187.071 99.9301C173.259 99.4146 159.525 97.6234 146.043 94.5795Z" fill="#FFCDA9"/>
<path d="M185.354 72.9593L204.08 80.5874C204.08 80.5874 215.129 56.1744 205.641 51.089C196.153 46.0036 185.354 72.9593 185.354 72.9593Z" fill="#FF277A"/>
<g opacity="0.1">
<path d="M87.3187 126.044C83.9224 119.815 76.1163 117.521 69.8833 120.921C63.6503 124.32 61.3507 132.127 64.747 138.356C68.1433 144.586 75.9493 146.88 82.1823 143.48C88.4153 140.08 90.7149 132.274 87.3187 126.044Z" fill="white"/>
<path d="M91.9766 85.4292C91.2297 86.0076 90.3557 86.3994 89.4272 86.5723C88.4986 86.7452 87.5424 86.6941 86.6379 86.4232C79.7221 84.3493 72.4103 83.9549 65.3093 85.2725C58.2082 86.5902 51.5228 89.5821 45.8079 93.9997C40.093 98.4174 35.5135 104.133 32.4494 110.674C29.3853 117.214 27.925 124.389 28.1898 131.604C28.2181 132.384 28.0926 133.161 27.8205 133.892C27.5483 134.624 27.1348 135.294 26.6035 135.866C25.5306 137.02 24.0432 137.702 22.4685 137.76C21.6888 137.789 20.9112 137.664 20.18 137.392C19.4488 137.121 18.7784 136.708 18.2071 136.177C17.0531 135.105 16.3727 133.618 16.3154 132.044C15.98 122.941 17.8211 113.889 21.686 105.638C25.5509 97.3871 31.328 90.1757 38.5377 84.6025C45.7474 79.0294 54.1816 75.2553 63.1401 73.5937C72.0986 71.9321 81.3229 72.4308 90.0471 75.0485C91.0932 75.3615 92.0325 75.9569 92.7618 76.7692C93.491 77.5815 93.982 78.5794 94.1806 79.653C94.3793 80.7265 94.2779 81.8343 93.8877 82.8544C93.4975 83.8745 92.8336 84.7675 91.9689 85.4351L91.9766 85.4292Z" fill="white"/>
<path d="M27.4582 129.582L22.5293 133.392L25.2658 136.932L29.0784 133.985L27.4582 129.582Z" fill="white"/>
<path d="M91.7744 108.015C90.9373 108.666 89.9414 109.081 88.89 109.217C87.8387 109.352 86.7704 109.204 85.7961 108.788C81.6036 106.993 77.0102 106.338 72.4816 106.891C67.9531 107.444 63.6506 109.185 60.0105 111.936C56.3704 114.688 53.5222 118.352 51.7548 122.558C49.9874 126.764 49.3636 131.362 49.9468 135.885C50.1472 137.447 49.7188 139.025 48.7558 140.272C47.7928 141.518 46.3742 142.332 44.8119 142.534C43.2496 142.735 41.6718 142.308 40.4254 141.346C39.1789 140.384 38.3661 138.966 38.1657 137.404C37.3159 130.805 38.2264 124.098 40.8051 117.962C43.3838 111.826 47.5389 106.48 52.8491 102.465C58.1593 98.4509 64.4358 95.911 71.0423 95.1032C77.6487 94.2954 84.3502 95.2484 90.4672 97.8655C91.4181 98.2721 92.2463 98.9201 92.8696 99.7452C93.4929 100.57 93.8898 101.544 94.0211 102.57C94.1524 103.596 94.0135 104.638 93.6181 105.594C93.2226 106.551 92.5845 107.387 91.7667 108.021L91.7744 108.015Z" fill="white"/>
<path d="M48.9078 134.735L44.876 137.852L47.6125 141.392L51.6442 138.275L48.9078 134.735Z" fill="white"/>
<path d="M92.9043 101.487L88.8726 104.603L91.609 108.143L95.6408 105.027L92.9043 101.487Z" fill="white"/>
<path d="M71.8589 119.199L67.8271 122.316L70.5636 125.856L74.5954 122.739L71.8589 119.199Z" fill="white"/>
<path d="M84.7544 136.055L80.7227 139.172L83.4591 142.712L87.4909 139.595L84.7544 136.055Z" fill="white"/>
<path d="M93.1226 78.8793L89.0908 81.9959L91.8273 85.5359L95.069 83.0301L93.1226 78.8793Z" fill="white"/>
<path d="M70.8416 119.99C68.8299 121.545 67.3242 123.661 66.5149 126.071C65.7056 128.481 65.6291 131.076 66.2949 133.529C66.9608 135.981 68.3391 138.18 70.2557 139.849C72.1723 141.517 74.541 142.579 77.0623 142.901C79.5836 143.223 82.1442 142.79 84.4204 141.657C86.6966 140.524 88.5861 138.742 89.8499 136.536C91.1138 134.33 91.6953 131.799 91.5208 129.264C91.3463 126.728 90.4238 124.302 88.8698 122.292C86.786 119.596 83.7159 117.839 80.335 117.407C76.954 116.976 73.5392 117.905 70.8416 119.99ZM55.6315 100.314C50.431 104.354 46.372 109.678 43.8544 115.762C41.3368 121.846 40.4475 128.48 41.274 135.01C41.4744 136.572 42.2873 137.99 43.5337 138.952C44.7801 139.914 46.358 140.341 47.9202 140.139C49.4825 139.938 50.9011 139.124 51.8641 137.878C52.8271 136.631 53.2555 135.053 53.0551 133.491C52.4719 128.968 53.0957 124.37 54.8631 120.164C56.6305 115.958 59.4787 112.294 63.1188 109.542C66.7589 106.791 71.0614 105.05 75.5899 104.497C80.1185 103.944 84.7119 104.598 88.9044 106.394C90.3538 107.011 91.9899 107.028 93.4525 106.44C94.9151 105.852 96.0845 104.707 96.7035 103.257C97.3225 101.808 97.3403 100.172 96.753 98.7102C96.1658 97.2482 95.0216 96.0797 93.5721 95.4618C87.3903 92.8234 80.6153 91.8821 73.946 92.735C67.2767 93.5878 60.9545 96.204 55.6315 100.314ZM93.1423 72.6478C84.4179 70.0303 75.1933 69.5317 66.2347 71.1935C57.276 72.8553 48.8416 76.6295 41.6317 82.2028C34.4219 87.7761 28.6446 94.9876 24.7795 103.239C20.9144 111.49 19.073 120.542 19.4082 129.645C19.4654 131.219 20.1459 132.706 21.2998 133.778C22.4537 134.85 23.9866 135.419 25.5612 135.361C27.1359 135.303 28.6233 134.622 29.6962 133.467C30.7692 132.313 31.3398 130.78 31.2825 129.205C31.0177 121.99 32.478 114.815 35.5421 108.275C38.6062 101.735 43.1857 96.0186 48.9006 91.6009C54.6155 87.1833 61.3009 84.1914 68.402 82.8738C75.503 81.5561 82.8148 81.9505 89.7306 84.0244C91.2397 84.4765 92.867 84.3105 94.2545 83.563C95.642 82.8154 96.6761 81.5477 97.1292 80.0385C97.5823 78.5293 97.4173 76.9024 96.6706 75.5156C95.9239 74.1289 94.6566 73.0959 93.1474 72.6438L93.1423 72.6478Z" fill="white"/>
<g style="mix-blend-mode:multiply">
<path d="M33.0259 90.426C33.0259 90.426 40.9347 89.923 46.9379 84.2531C46.9379 84.2531 53.3123 87.6907 58.2056 85.9465C50.1117 80.7745 45.073 77.9115 45.073 77.9115L37.1725 84.0186" fill="white"/>
</g>
<path d="M82.7167 135.352C85.5895 133.131 86.1193 129.004 83.9002 126.133C81.6811 123.262 77.5533 122.735 74.6806 124.956C71.8078 127.177 71.278 131.304 73.4971 134.175C75.7162 137.046 79.844 137.573 82.7167 135.352Z" fill="white"/>
<path d="M19.6446 129.95C19.3094 120.848 21.1508 111.795 25.0159 103.544C28.881 95.2928 34.6583 88.0812 41.8682 82.5079C49.078 76.9347 57.5124 73.1604 66.4711 71.4986C75.4298 69.8368 84.6543 70.3354 93.3788 72.9529C94.4894 73.2842 95.4774 73.9357 96.2191 74.8259C95.4595 73.7871 94.3813 73.0249 93.1485 72.6549C84.424 70.0374 75.1995 69.5388 66.2408 71.2006C57.2821 72.8625 48.8477 76.6367 41.6378 82.21C34.428 87.7832 28.6507 94.9948 24.7856 103.246C20.9205 111.497 19.0791 120.55 19.4143 129.652C19.4617 130.938 19.9278 132.174 20.7417 133.171C20.0671 132.229 19.6855 131.108 19.6446 129.95Z" fill="white"/>
<path d="M55.6314 100.313C50.4309 104.354 46.3719 109.678 43.8543 115.762C41.3367 121.846 40.4474 128.48 41.2739 135.01C41.4133 136.099 41.8545 137.128 42.5478 137.98C41.9879 137.192 41.6321 136.277 41.5121 135.318C40.6616 128.719 41.5719 122.01 44.1505 115.874C46.7291 109.737 50.8844 104.391 56.1951 100.376C61.5057 96.3613 67.7828 93.8214 74.3898 93.0138C80.9969 92.2062 87.6988 93.1597 93.8161 95.7775C94.6776 96.1473 95.4393 96.7157 96.0389 97.4363C95.4114 96.5703 94.561 95.8906 93.5779 95.4694C87.396 92.8288 80.6203 91.8856 73.9498 92.7371C67.2794 93.5887 60.9557 96.204 55.6314 100.313Z" fill="white"/>
<path d="M70.8416 119.99C68.144 122.075 66.3847 125.146 65.9508 128.526C65.5168 131.907 66.4436 135.321 68.5275 138.017C68.5668 138.067 68.6062 138.118 68.6456 138.169C66.5623 135.474 65.6356 132.061 66.0695 128.682C66.5034 125.302 68.2623 122.232 70.9591 120.147C73.656 118.062 77.0701 117.134 80.4502 117.565C83.8303 117.997 86.8996 119.753 88.9829 122.448C88.9435 122.397 88.9041 122.347 88.8648 122.296C86.7816 119.601 83.7128 117.844 80.3331 117.412C76.9534 116.979 73.5393 117.907 70.8416 119.99Z" fill="white"/>
</g>
<defs>
<linearGradient id="paint0_linear_17_38" x1="155.812" y1="133.391" x2="208.575" y2="133.391" gradientUnits="userSpaceOnUse">
<stop stop-color="#00BBFF"/>
<stop offset="0.15" stop-color="#00B3F9"/>
<stop offset="0.38" stop-color="#009CE8"/>
<stop offset="0.68" stop-color="#0076CC"/>
<stop offset="1" stop-color="#0045A8"/>
</linearGradient>
</defs>
</svg>
