<svg width="37" height="48" viewBox="0 0 37 48" fill="none" xmlns="http://www.w3.org/2000/svg">
<path d="M13.875 2.28571V6.85714H4.625V43.4286H27.75V22.8571H32.375V45.7143C32.375 46.3205 32.1314 46.9019 31.6977 47.3305C31.264 47.7592 30.6758 48 30.0625 48H2.3125C1.69919 48 1.11099 47.7592 0.677316 47.3305C0.243638 46.9019 0 46.3205 0 45.7143V4.57143C0 3.96522 0.243638 3.38384 0.677316 2.95518C1.11099 2.52653 1.69919 2.28571 2.3125 2.28571H13.875ZM18.5 13.7143C19.7266 13.7143 20.903 14.1959 21.7704 15.0532C22.6377 15.9105 23.125 17.0733 23.125 18.2857H18.5V13.7143ZM18.5 6.85714C21.5666 6.85714 24.5075 8.06122 26.6759 10.2045C28.8443 12.3478 30.0625 15.2547 30.0625 18.2857H25.4375C25.4375 16.4671 24.7066 14.7229 23.4056 13.437C22.1045 12.151 20.3399 11.4286 18.5 11.4286V6.85714ZM18.5 0C23.4065 0 28.1121 1.92653 31.5815 5.35576C35.0509 8.785 37 13.436 37 18.2857H32.375C32.375 14.6485 30.9132 11.1602 28.3111 8.58825C25.709 6.01632 22.1799 4.57143 18.5 4.57143V0Z" fill="#06A6FF"/>
</svg>
