<svg width="47" height="47" viewBox="0 0 47 47" fill="none" xmlns="http://www.w3.org/2000/svg">
<path d="M17.2275 28.6016L17.8135 29.1865L20.2959 31.6689L29.9131 41.2871C28.6696 42.2724 27.2939 43.0838 25.8223 43.6934C23.7325 44.559 21.4914 45.0029 19.2295 45H19.2275C14.6586 45 10.2766 43.1848 7.0459 39.9541C3.81516 36.7234 2 32.3414 2 27.7725C2.00007 23.2036 3.81522 18.8215 7.0459 15.5908C9.80167 12.8352 13.3951 11.1099 17.2275 10.6621V28.6016ZM42.749 27.6367C42.4468 30.2481 41.5474 32.7542 40.123 34.9619L32.6641 27.6367H42.749ZM29.7725 2.11719C33.605 2.56502 37.1983 4.2901 39.9541 7.0459C42.7099 9.80169 44.435 13.395 44.8828 17.2275H29.7725V2.11719Z" stroke="#0046FF" stroke-width="4"/>
</svg>
