<svg width="60" height="52" viewBox="0 0 60 52" fill="none" xmlns="http://www.w3.org/2000/svg">
<path d="M16.4853 11.0912V5.69706C16.4853 4.98175 16.7694 4.29575 17.2752 3.78995C17.781 3.28415 18.467 3 19.1824 3H54.2441C54.9594 3 55.6454 3.28415 56.1512 3.78995C56.657 4.29575 56.9412 4.98175 56.9412 5.69706V29.9706C56.9412 30.6859 56.657 31.3719 56.1512 31.8777C55.6454 32.3835 54.9594 32.6676 54.2441 32.6676H51.5471" stroke="#2AD1CD" stroke-width="5" stroke-linecap="round" stroke-linejoin="round"/>
<path d="M40.7588 19.1826H5.69706C4.20751 19.1826 3 20.3901 3 21.8797V46.1532C3 47.6427 4.20751 48.8503 5.69706 48.8503H40.7588C42.2484 48.8503 43.4559 47.6427 43.4559 46.1532V21.8797C43.4559 20.3901 42.2484 19.1826 40.7588 19.1826Z" stroke="#2AD1CD" stroke-width="5" stroke-linecap="round" stroke-linejoin="round"/>
<path d="M3 31.3193H43.4559" stroke="#2AD1CD" stroke-width="5" stroke-linecap="round" stroke-linejoin="round"/>
<path d="M43.4559 24.5771V40.7595" stroke="#2AD1CD" stroke-width="5" stroke-linecap="round" stroke-linejoin="round"/>
<path d="M3 24.5771V40.7595" stroke="#2AD1CD" stroke-width="5" stroke-linecap="round" stroke-linejoin="round"/>
<path d="M12.4397 39.4102H23.2279" stroke="#2AD1CD" stroke-width="5" stroke-linecap="round" stroke-linejoin="round"/>
<path d="M31.3191 39.4102H34.0162" stroke="#2AD1CD" stroke-width="5" stroke-linecap="round" stroke-linejoin="round"/>
</svg>
