<svg width="59" height="56" viewBox="0 0 59 56" fill="none" xmlns="http://www.w3.org/2000/svg">
<mask id="path-1-outside-1_50_89" maskUnits="userSpaceOnUse" x="0" y="-1" width="59" height="57" fill="black">
<rect fill="white" y="-1" width="59" height="57"/>
<path d="M53.4062 40.7695H48.0273C47.6289 41.9341 46.998 42.999 46.1348 43.964L48.4756 48.1068C48.6748 48.5061 48.7163 48.9054 48.6001 49.3047C48.4839 49.704 48.2598 50.0201 47.9277 50.253L45.2881 51.8003C44.9229 52 44.541 52.0499 44.1426 51.9501C43.7441 51.8503 43.4453 51.6007 43.2461 51.2014L40.8555 47.0087C40.1914 47.1418 39.5938 47.2083 39.0625 47.2083C38.5312 47.2083 37.9336 47.1418 37.2695 47.0087L34.8789 51.2014C34.6797 51.6007 34.3809 51.8503 33.9824 51.9501C33.584 52.0499 33.2021 52 32.8369 51.8003L30.1973 50.253C29.8652 50.0201 29.6411 49.704 29.5249 49.3047C29.4087 48.9054 29.4502 48.5061 29.6494 48.1068L31.9902 43.964C31.127 42.999 30.4961 41.9341 30.0977 40.7695H24.7188C24.2871 40.7695 23.9136 40.6198 23.5981 40.3203C23.2827 40.0208 23.125 39.6381 23.125 39.1723V35.9778C23.125 35.5452 23.2827 35.1709 23.5981 34.8548C23.9136 34.5386 24.2871 34.3806 24.7188 34.3806H30.0977C30.4961 33.2492 31.127 32.201 31.9902 31.236L29.6494 27.0932C29.4502 26.6939 29.4087 26.2946 29.5249 25.8953C29.6411 25.496 29.8652 25.1799 30.1973 24.947L32.8369 23.3997C33.2021 23.2 33.584 23.1501 33.9824 23.2499C34.3809 23.3497 34.6797 23.5827 34.8789 23.9487L37.2695 28.1913C37.9336 28.0582 38.5312 27.9917 39.0625 27.9917C39.5938 27.9917 40.1914 28.0582 40.8555 28.1913L43.2461 23.9487C43.4453 23.5827 43.7441 23.3497 44.1426 23.2499C44.541 23.1501 44.9229 23.2 45.2881 23.3997L47.9277 24.947C48.2598 25.1799 48.4839 25.496 48.6001 25.8953C48.7163 26.2946 48.6748 26.6939 48.4756 27.0932L46.1348 31.236C46.998 32.201 47.6289 33.2492 48.0273 34.3806H53.4062C53.8379 34.3806 54.2114 34.5386 54.5269 34.8548C54.8423 35.1709 55 35.5452 55 35.9778V39.1723C55 39.6381 54.8423 40.0208 54.5269 40.3203C54.2114 40.6198 53.8379 40.7695 53.4062 40.7695ZM39.0625 34.3806C38.166 34.3806 37.4106 34.6967 36.7964 35.3289C36.1821 35.9612 35.875 36.7182 35.875 37.6C35.875 38.4818 36.1821 39.2305 36.7964 39.8461C37.4106 40.4617 38.166 40.7695 39.0625 40.7695C39.959 40.7695 40.7144 40.4617 41.3286 39.8461C41.9429 39.2305 42.25 38.4818 42.25 37.6C42.25 36.7182 41.9429 35.9612 41.3286 35.3289C40.7144 34.6967 39.959 34.3806 39.0625 34.3806ZM34.2812 21.6028H28.9023C28.5039 22.7674 27.873 23.8322 27.0098 24.7972L29.3506 28.94C29.5498 29.3061 29.5913 29.6971 29.4751 30.113C29.3589 30.5289 29.1348 30.8534 28.8027 31.0863L26.1631 32.6336C25.7979 32.8333 25.416 32.8749 25.0176 32.7584C24.6191 32.6419 24.3203 32.4007 24.1211 32.0347L21.7305 27.8419C21.0996 27.9418 20.502 27.9917 19.9375 27.9917C19.373 27.9917 18.7754 27.9418 18.1445 27.8419L15.7539 32.0347C15.5547 32.4007 15.2559 32.6419 14.8574 32.7584C14.459 32.8749 14.0771 32.8333 13.7119 32.6336L11.0723 31.0863C10.7402 30.8534 10.5161 30.5289 10.3999 30.113C10.2837 29.6971 10.3252 29.3061 10.5244 28.94L12.8652 24.7972C12.002 23.8322 11.3711 22.7674 10.9727 21.6028H5.59375C5.16211 21.6028 4.78857 21.453 4.47314 21.1536C4.15771 20.8541 4 20.4714 4 20.0055V16.8111C4 16.3785 4.15771 16.0042 4.47314 15.688C4.78857 15.3719 5.16211 15.2139 5.59375 15.2139H10.9727C11.3711 14.0825 12.002 13.0177 12.8652 12.0194L10.5244 7.8766C10.3252 7.51057 10.2837 7.11958 10.3999 6.70364C10.5161 6.28769 10.7402 5.9799 11.0723 5.78024L13.7119 4.23293C14.0771 4 14.459 3.94177 14.8574 4.05823C15.2559 4.1747 15.5547 4.41594 15.7539 4.78198L18.1445 9.02461C18.8086 8.89151 19.4062 8.82496 19.9375 8.82496C20.4688 8.82496 21.0664 8.89151 21.7305 9.02461L24.1211 4.78198C24.3203 4.41594 24.6191 4.1747 25.0176 4.05823C25.416 3.94177 25.7979 4 26.1631 4.23293L28.8027 5.78024C29.1348 5.9799 29.3589 6.28769 29.4751 6.70364C29.5913 7.11958 29.5498 7.51057 29.3506 7.8766L27.0098 12.0194C27.873 13.0177 28.5039 14.0825 28.9023 15.2139H34.2812C34.7129 15.2139 35.0864 15.3719 35.4019 15.688C35.7173 16.0042 35.875 16.3785 35.875 16.8111V20.0055C35.875 20.4714 35.7173 20.8541 35.4019 21.1536C35.0864 21.453 34.7129 21.6028 34.2812 21.6028ZM19.9375 15.2139C19.041 15.2139 18.2856 15.53 17.6714 16.1622C17.0571 16.7945 16.75 17.5515 16.75 18.4333C16.75 19.3151 17.0571 20.0638 17.6714 20.6794C18.2856 21.295 19.041 21.6028 19.9375 21.6028C20.834 21.6028 21.5894 21.295 22.2036 20.6794C22.8179 20.0638 23.125 19.3151 23.125 18.4333C23.125 17.5515 22.8179 16.7945 22.2036 16.1622C21.5894 15.53 20.834 15.2139 19.9375 15.2139Z"/>
</mask>
<path d="M53.4062 40.7695H48.0273C47.6289 41.9341 46.998 42.999 46.1348 43.964L48.4756 48.1068C48.6748 48.5061 48.7163 48.9054 48.6001 49.3047C48.4839 49.704 48.2598 50.0201 47.9277 50.253L45.2881 51.8003C44.9229 52 44.541 52.0499 44.1426 51.9501C43.7441 51.8503 43.4453 51.6007 43.2461 51.2014L40.8555 47.0087C40.1914 47.1418 39.5938 47.2083 39.0625 47.2083C38.5312 47.2083 37.9336 47.1418 37.2695 47.0087L34.8789 51.2014C34.6797 51.6007 34.3809 51.8503 33.9824 51.9501C33.584 52.0499 33.2021 52 32.8369 51.8003L30.1973 50.253C29.8652 50.0201 29.6411 49.704 29.5249 49.3047C29.4087 48.9054 29.4502 48.5061 29.6494 48.1068L31.9902 43.964C31.127 42.999 30.4961 41.9341 30.0977 40.7695H24.7188C24.2871 40.7695 23.9136 40.6198 23.5981 40.3203C23.2827 40.0208 23.125 39.6381 23.125 39.1723V35.9778C23.125 35.5452 23.2827 35.1709 23.5981 34.8548C23.9136 34.5386 24.2871 34.3806 24.7188 34.3806H30.0977C30.4961 33.2492 31.127 32.201 31.9902 31.236L29.6494 27.0932C29.4502 26.6939 29.4087 26.2946 29.5249 25.8953C29.6411 25.496 29.8652 25.1799 30.1973 24.947L32.8369 23.3997C33.2021 23.2 33.584 23.1501 33.9824 23.2499C34.3809 23.3497 34.6797 23.5827 34.8789 23.9487L37.2695 28.1913C37.9336 28.0582 38.5312 27.9917 39.0625 27.9917C39.5938 27.9917 40.1914 28.0582 40.8555 28.1913L43.2461 23.9487C43.4453 23.5827 43.7441 23.3497 44.1426 23.2499C44.541 23.1501 44.9229 23.2 45.2881 23.3997L47.9277 24.947C48.2598 25.1799 48.4839 25.496 48.6001 25.8953C48.7163 26.2946 48.6748 26.6939 48.4756 27.0932L46.1348 31.236C46.998 32.201 47.6289 33.2492 48.0273 34.3806H53.4062C53.8379 34.3806 54.2114 34.5386 54.5269 34.8548C54.8423 35.1709 55 35.5452 55 35.9778V39.1723C55 39.6381 54.8423 40.0208 54.5269 40.3203C54.2114 40.6198 53.8379 40.7695 53.4062 40.7695ZM39.0625 34.3806C38.166 34.3806 37.4106 34.6967 36.7964 35.3289C36.1821 35.9612 35.875 36.7182 35.875 37.6C35.875 38.4818 36.1821 39.2305 36.7964 39.8461C37.4106 40.4617 38.166 40.7695 39.0625 40.7695C39.959 40.7695 40.7144 40.4617 41.3286 39.8461C41.9429 39.2305 42.25 38.4818 42.25 37.6C42.25 36.7182 41.9429 35.9612 41.3286 35.3289C40.7144 34.6967 39.959 34.3806 39.0625 34.3806ZM34.2812 21.6028H28.9023C28.5039 22.7674 27.873 23.8322 27.0098 24.7972L29.3506 28.94C29.5498 29.3061 29.5913 29.6971 29.4751 30.113C29.3589 30.5289 29.1348 30.8534 28.8027 31.0863L26.1631 32.6336C25.7979 32.8333 25.416 32.8749 25.0176 32.7584C24.6191 32.6419 24.3203 32.4007 24.1211 32.0347L21.7305 27.8419C21.0996 27.9418 20.502 27.9917 19.9375 27.9917C19.373 27.9917 18.7754 27.9418 18.1445 27.8419L15.7539 32.0347C15.5547 32.4007 15.2559 32.6419 14.8574 32.7584C14.459 32.8749 14.0771 32.8333 13.7119 32.6336L11.0723 31.0863C10.7402 30.8534 10.5161 30.5289 10.3999 30.113C10.2837 29.6971 10.3252 29.3061 10.5244 28.94L12.8652 24.7972C12.002 23.8322 11.3711 22.7674 10.9727 21.6028H5.59375C5.16211 21.6028 4.78857 21.453 4.47314 21.1536C4.15771 20.8541 4 20.4714 4 20.0055V16.8111C4 16.3785 4.15771 16.0042 4.47314 15.688C4.78857 15.3719 5.16211 15.2139 5.59375 15.2139H10.9727C11.3711 14.0825 12.002 13.0177 12.8652 12.0194L10.5244 7.8766C10.3252 7.51057 10.2837 7.11958 10.3999 6.70364C10.5161 6.28769 10.7402 5.9799 11.0723 5.78024L13.7119 4.23293C14.0771 4 14.459 3.94177 14.8574 4.05823C15.2559 4.1747 15.5547 4.41594 15.7539 4.78198L18.1445 9.02461C18.8086 8.89151 19.4062 8.82496 19.9375 8.82496C20.4688 8.82496 21.0664 8.89151 21.7305 9.02461L24.1211 4.78198C24.3203 4.41594 24.6191 4.1747 25.0176 4.05823C25.416 3.94177 25.7979 4 26.1631 4.23293L28.8027 5.78024C29.1348 5.9799 29.3589 6.28769 29.4751 6.70364C29.5913 7.11958 29.5498 7.51057 29.3506 7.8766L27.0098 12.0194C27.873 13.0177 28.5039 14.0825 28.9023 15.2139H34.2812C34.7129 15.2139 35.0864 15.3719 35.4019 15.688C35.7173 16.0042 35.875 16.3785 35.875 16.8111V20.0055C35.875 20.4714 35.7173 20.8541 35.4019 21.1536C35.0864 21.453 34.7129 21.6028 34.2812 21.6028ZM19.9375 15.2139C19.041 15.2139 18.2856 15.53 17.6714 16.1622C17.0571 16.7945 16.75 17.5515 16.75 18.4333C16.75 19.3151 17.0571 20.0638 17.6714 20.6794C18.2856 21.295 19.041 21.6028 19.9375 21.6028C20.834 21.6028 21.5894 21.295 22.2036 20.6794C22.8179 20.0638 23.125 19.3151 23.125 18.4333C23.125 17.5515 22.8179 16.7945 22.2036 16.1622C21.5894 15.53 20.834 15.2139 19.9375 15.2139Z" stroke="#DA5820" stroke-width="8" mask="url(#path-1-outside-1_50_89)"/>
</svg>
