<svg width="47" height="51" viewBox="0 0 47 51" fill="none" xmlns="http://www.w3.org/2000/svg">
<path d="M0 0V47.3571H28.9231V43.7143H3.61538V3.64286H21.6923V14.5714H32.5385V18.2143H36.1538V12.0214L35.6115 11.475L24.7654 0.546429L24.2231 0H0ZM25.3077 6.19286L30.0077 10.9286H25.3077V6.19286ZM7.23077 18.2143V21.8571H28.9231V18.2143H7.23077ZM37.9615 21.8571V25.5C34.8885 26.0464 32.5385 28.5964 32.5385 31.875C32.5385 35.5179 35.25 38.25 38.8654 38.25H40.6731C42.1192 38.25 43.3846 39.525 43.3846 40.9821C43.3846 42.4393 42.1192 43.7143 40.6731 43.7143H34.3462V47.3571H37.9615V51H41.5769V47.3571C44.65 46.8107 47 44.2607 47 40.9821C47 37.3393 44.2885 34.6071 40.6731 34.6071H38.8654C37.4192 34.6071 36.1538 33.3321 36.1538 31.875C36.1538 30.4179 37.4192 29.1429 38.8654 29.1429H45.1923V25.5H41.5769V21.8571H37.9615ZM7.23077 27.3214V30.9643H19.8846V27.3214H7.23077ZM23.5 27.3214V30.9643H28.9231V27.3214H23.5ZM7.23077 34.6071V38.25H19.8846V34.6071H7.23077ZM23.5 34.6071V38.25H28.9231V34.6071H23.5Z" fill="#C439C4"/>
</svg>
