<svg width="46" height="51" viewBox="0 0 46 51" fill="none" xmlns="http://www.w3.org/2000/svg">
<path d="M45.1447 13.1686C45.1031 12.7476 44.9553 12.344 44.7152 11.9957C44.4751 11.6474 44.1505 11.3657 43.7719 11.177L23.7308 1.15644C23.3827 0.982276 22.9989 0.891602 22.6097 0.891602C22.2205 0.891602 21.8367 0.982276 21.4887 1.15644L1.44752 11.177C1.06993 11.3668 0.746367 11.6488 0.506822 11.997C0.267277 12.3451 0.119508 12.7481 0.0772125 13.1686C0.0496559 13.4366 -2.33023 40.1414 21.5939 50.7808C21.9135 50.925 22.2602 50.9996 22.611 50.9996C22.9617 50.9996 23.3084 50.925 23.628 50.7808C47.5521 40.1414 45.1723 13.4391 45.1447 13.1686ZM22.611 45.7279C5.65366 37.5311 4.85201 20.0377 4.98979 15.0099L22.611 6.19928L40.2196 15.0049C40.3123 19.9876 39.3979 37.5962 22.611 45.7279Z" fill="#DA2B20"/>
<path d="M20.1058 27.4128L14.3615 21.6685L10.8193 25.2108L20.1058 34.4973L34.4027 20.2005L30.8604 16.6582L20.1058 27.4128Z" fill="#DA2B20"/>
</svg>
