<svg width="50" height="50" viewBox="0 0 50 50" fill="none" xmlns="http://www.w3.org/2000/svg">
<path d="M27 28.5425V21.4559C28.3344 21.0732 29.4591 20.3201 30.1753 19.3298C30.8914 18.3395 31.1529 17.1757 30.9136 16.0441C30.6742 14.9125 29.9495 13.886 28.8673 13.1459C27.7852 12.4059 26.4154 12 25 12C23.5846 12 22.2148 12.4059 21.1327 13.1459C20.0506 13.886 19.3258 14.9125 19.0864 16.0441C18.8471 17.1757 19.1086 18.3395 19.8247 19.3298C20.5409 20.3201 21.6656 21.0732 23 21.4559V28.5441C21.6656 28.9268 20.5409 29.6799 19.8247 30.6702C19.1086 31.6605 18.8471 32.8243 19.0864 33.9559C19.3258 35.0875 20.0506 36.114 21.1327 36.8541C22.2148 37.5941 23.5846 38 25 38C26.4154 38 27.7852 37.5941 28.8673 36.8541C29.9495 36.114 30.6742 35.0875 30.9136 33.9559C31.1529 32.8243 30.8914 31.6605 30.1753 30.6702C29.4591 29.6799 28.3344 28.9268 27 28.5441V28.5425ZM25 15.2649C25.3956 15.2649 25.7822 15.3601 26.1111 15.5383C26.44 15.7166 26.6964 15.97 26.8478 16.2664C26.9991 16.5629 27.0387 16.8891 26.9616 17.2038C26.8844 17.5185 26.6939 17.8076 26.4142 18.0345C26.1345 18.2614 25.7781 18.4159 25.3902 18.4785C25.0022 18.5411 24.6001 18.509 24.2346 18.3862C23.8692 18.2634 23.5568 18.0554 23.3371 17.7886C23.1173 17.5218 23 17.2082 23 16.8873C23 16.457 23.2107 16.0444 23.5858 15.7401C23.9609 15.4358 24.4696 15.2649 25 15.2649ZM25 34.7335C24.6044 34.7335 24.2178 34.6383 23.8889 34.46C23.56 34.2818 23.3036 34.0284 23.1522 33.7319C23.0009 33.4355 22.9613 33.1093 23.0384 32.7946C23.1156 32.4799 23.3061 32.1908 23.5858 31.9639C23.8655 31.737 24.2219 31.5825 24.6098 31.5199C24.9978 31.4573 25.3999 31.4894 25.7654 31.6122C26.1308 31.735 26.4432 31.9429 26.6629 32.2097C26.8827 32.4765 27 32.7902 27 33.1111C27 33.5414 26.7893 33.954 26.4142 34.2583C26.0391 34.5625 25.5304 34.7335 25 34.7335Z" fill="#C2FF15" stroke="#C2FF15" stroke-width="2"/>
<path d="M48.0631 27.2632C48.663 26.6631 49 25.8493 49 25.0008C49 24.1523 48.663 23.3385 48.0631 22.7384L38.8039 13.4793L43.4439 8.90008C44.1283 9.07045 44.8498 9.01018 45.4965 8.72862C46.1431 8.44706 46.6787 7.95995 47.0203 7.34288C47.3618 6.7258 47.4901 6.01325 47.3853 5.31579C47.2805 4.61834 46.9485 3.97497 46.4407 3.48551C45.9329 2.99605 45.2777 2.68787 44.5769 2.60878C43.876 2.52969 43.1687 2.68412 42.5646 3.0481C41.9605 3.41208 41.4934 3.96527 41.2358 4.62183C40.9782 5.27839 40.9445 6.00162 41.1399 6.67929L36.5415 11.2169L27.2632 1.93691C26.6631 1.33701 25.8493 1 25.0008 1C24.1523 1 23.3385 1.33701 22.7384 1.93691L13.4793 11.1993L8.90008 6.55609C9.06957 5.87153 9.00841 5.15018 8.72609 4.50393C8.44377 3.85768 7.95606 3.32266 7.33864 2.98188C6.72122 2.64109 6.00859 2.51359 5.31131 2.61916C4.61403 2.72472 3.97107 3.05744 3.48219 3.56571C2.9933 4.07398 2.68582 4.72938 2.60744 5.43024C2.52906 6.1311 2.68416 6.83823 3.04869 7.44194C3.41321 8.04566 3.96678 8.51219 4.62351 8.76918C5.28025 9.02617 6.00344 9.05925 6.68089 8.86328L11.2169 13.4601L1.93691 22.7384C1.33701 23.3385 1 24.1523 1 25.0008C1 25.8493 1.33701 26.6631 1.93691 27.2632L11.2169 36.5415L6.68089 41.1383C6.00487 40.9436 5.2835 40.9773 4.62859 41.2343C3.97369 41.4912 3.42182 41.957 3.05854 42.5594C2.69525 43.1619 2.54084 43.8673 2.61923 44.5664C2.69762 45.2656 3.00444 45.9193 3.49213 46.4263C3.97981 46.9334 4.62113 47.2654 5.31668 47.3709C6.01222 47.4764 6.72315 47.3495 7.33926 47.0099C7.95537 46.6703 8.44225 46.137 8.72444 45.4925C9.00663 44.8481 9.06837 44.1286 8.90008 43.4455L13.4793 38.8055L22.7384 48.0631C23.3385 48.663 24.1523 49 25.0008 49C25.8493 49 26.6631 48.663 27.2632 48.0631L36.5431 38.7847L41.1383 43.3223C40.9436 43.9983 40.9773 44.7197 41.2343 45.3746C41.4912 46.0295 41.957 46.5814 42.5594 46.9447C43.1619 47.3079 43.8673 47.4624 44.5664 47.384C45.2656 47.3056 45.9193 46.9988 46.4263 46.5111C46.9334 46.0234 47.2654 45.3821 47.3709 44.6865C47.4764 43.991 47.3495 43.2801 47.0099 42.6639C46.6703 42.0478 46.137 41.561 45.4925 41.2788C44.8481 40.9966 44.1286 40.9348 43.4455 41.1031L38.8055 36.5223L48.0631 27.2632ZM25.0008 45.8007L4.2009 25.0008L25.0008 4.2009L45.8007 25.0008L25.0008 45.8007Z" fill="#C2FF15" stroke="#C2FF15" stroke-width="2"/>
</svg>
