<svg width="51" height="42" viewBox="0 0 51 42" fill="none" xmlns="http://www.w3.org/2000/svg">
<path d="M2.06061 8.85598e-05C1.5141 8.85598e-05 0.989976 0.221338 0.603537 0.615163C0.217099 1.00899 0 1.54313 0 2.10008C0 2.65704 0.217099 3.19118 0.603537 3.58501C0.989976 3.97883 1.5141 4.20008 2.06061 4.20008H6.63515L12.0422 26.25C12.5017 28.119 14.144 29.4 16.0336 29.4H41.7293C43.5901 29.4 45.1705 28.14 45.6589 26.313L51 6.30008H46.6851L41.7273 25.2H16.0315L10.6265 3.15008C10.4033 2.24546 9.88859 1.44337 9.16491 0.872246C8.44124 0.301122 7.55043 -0.00599115 6.63515 8.85598e-05H2.06061ZM39.1515 29.4C35.7618 29.4 32.9697 32.2455 32.9697 35.7C32.9697 39.1545 35.7618 42 39.1515 42C42.5412 42 45.3333 39.1545 45.3333 35.7C45.3333 32.2455 42.5412 29.4 39.1515 29.4ZM20.6061 29.4C17.2164 29.4 14.4242 32.2455 14.4242 35.7C14.4242 39.1545 17.2164 42 20.6061 42C23.9958 42 26.7879 39.1545 26.7879 35.7C26.7879 32.2455 23.9958 29.4 20.6061 29.4ZM26.7879 8.85598e-05V10.5001H20.6061L28.8485 18.9L37.0909 10.5001H30.9091V8.85598e-05H26.7879ZM20.6061 33.6C21.7682 33.6 22.6667 34.5156 22.6667 35.7C22.6667 36.8844 21.7682 37.8 20.6061 37.8C19.4439 37.8 18.5455 36.8844 18.5455 35.7C18.5455 34.5156 19.4439 33.6 20.6061 33.6ZM39.1515 33.6C40.3137 33.6 41.2121 34.5156 41.2121 35.7C41.2121 36.8844 40.3137 37.8 39.1515 37.8C37.9893 37.8 37.0909 36.8844 37.0909 35.7C37.0909 34.5156 37.9893 33.6 39.1515 33.6Z" fill="#1EAAF9"/>
</svg>
