<svg width="390" height="325" viewBox="0 0 390 325" fill="none" xmlns="http://www.w3.org/2000/svg">
<g opacity="0.3">
<g style="mix-blend-mode:multiply" opacity="0.5">
<g style="mix-blend-mode:multiply" opacity="0.5">
<path d="M253.839 57.4885L253.781 35.5166L253.721 13.5378L248.04 3.44647V2.37337C248.039 2.0602 247.976 1.75029 247.855 1.46139C247.734 1.1725 247.557 0.910297 247.335 0.689822C247.112 0.469346 246.848 0.294929 246.558 0.176564C246.267 0.0581978 245.957 -0.00179027 245.643 4.06832e-05L235.113 0.0278556H234.366C234.115 0.0284636 233.867 0.0784623 233.635 0.175C233.404 0.271539 233.193 0.412723 233.016 0.590495C232.839 0.768266 232.699 0.979143 232.603 1.21108C232.508 1.44302 232.459 1.69148 232.459 1.94228V3.48124L225.702 13.605L225.818 57.5603L242.521 57.5163L253.839 57.4885Z" fill="white"/>
</g>
</g>
<g style="mix-blend-mode:multiply" opacity="0.5">
<g style="mix-blend-mode:multiply" opacity="0.5">
<path d="M292.229 57.4884L292.171 35.5166L292.113 13.5377L286.431 3.44644V2.37566C286.429 1.74538 286.177 1.14162 285.73 0.697034C285.283 0.252449 284.677 0.00341191 284.046 0.00464322L273.514 0.0324546H272.767C272.516 0.0330621 272.268 0.0830824 272.036 0.179649C271.805 0.276216 271.595 0.417437 271.418 0.595239C271.241 0.77304 271.101 0.983933 271.005 1.21586C270.91 1.44779 270.862 1.6962 270.863 1.94688V3.48584L264.107 13.6096L264.223 57.5649L280.926 57.5209L292.229 57.4884Z" fill="white"/>
</g>
</g>
<g style="mix-blend-mode:multiply" opacity="0.5">
<g style="mix-blend-mode:multiply" opacity="0.5">
<path d="M330.62 57.4884L330.551 35.5166L330.493 13.5377L324.811 3.44643V2.37333C324.809 1.74365 324.558 1.14035 324.112 0.695528C323.666 0.250707 323.061 0.000610447 322.431 0L311.901 0.0278149H311.154C310.903 0.0284229 310.655 0.0784216 310.423 0.17496C310.191 0.271498 309.981 0.412683 309.804 0.590454C309.627 0.768225 309.486 0.979103 309.391 1.21104C309.295 1.44298 309.247 1.69144 309.247 1.94224V3.4812L302.489 13.6049L302.605 57.5603L319.308 57.5162L330.62 57.4884Z" fill="white"/>
</g>
</g>
<g style="mix-blend-mode:multiply" opacity="0.5">
<g style="mix-blend-mode:multiply" opacity="0.5">
<path d="M369.009 57.4885L368.951 35.5167L368.893 13.5379L363.21 3.44656V2.37346C363.208 1.74319 362.956 1.13942 362.508 0.694837C362.061 0.250251 361.456 0.00121465 360.825 0.00244595L350.293 0.0302573H349.546C349.294 0.0308653 349.046 0.0808676 348.814 0.177406C348.583 0.273944 348.372 0.415129 348.195 0.5929C348.018 0.770671 347.878 0.981545 347.782 1.21348C347.687 1.44542 347.638 1.69388 347.639 1.94468V3.48364L340.883 13.6074L340.999 57.5627L357.702 57.5187L369.009 57.4885Z" fill="white"/>
</g>
</g>
<g style="mix-blend-mode:multiply" opacity="0.5">
<g style="mix-blend-mode:multiply" opacity="0.5">
<path d="M170.387 57.5625H161.2V15.7233H139.472V57.5625H111.842V15.7233H90.1146V57.5625H84.4564V15.7233H62.7262V57.5625H56.894V15.7233H35.1661V57.5625H29.5079V15.7233H7.77773V57.5625H4.18426V8.82812H0.704453V301.821H4.18426V234.144H170.387V275.733H148.772V256.192H150.654V252.051H109.931V256.192H111.812V275.745H102.997V256.192H104.878V252.051H64.1482V256.192H66.0296V275.745H57.2141V256.192H59.0956V252.051H18.3726V256.192H20.254V275.745H4.18426V301.821H173.866V8.82812H170.387V57.5625ZM43.172 227.59H40.8915V229.52H33.9319V227.59H31.6515V197.26H33.9319V195.327H40.8915V197.26H43.172V227.59ZM76.4204 227.59H74.1399V229.52H67.1803V227.59H64.8999V197.26H67.1803V195.327H74.1399V197.26H76.4204V227.59ZM109.669 227.59H107.379V229.52H100.419V227.59H98.1389V197.26H100.419V195.327H107.379V197.26H109.659L109.669 227.59ZM142.917 227.59H140.637V229.52H133.677V227.59H131.397V197.26H133.677V195.327H140.637V197.26H142.917V227.59ZM170.387 229.52H166.925V227.59H164.645V197.26H166.925V195.327H148.097V193.396H145.817V163.067H148.097V161.136H121.809V163.069H124.082V193.396H121.802V195.327H115.499V193.396H113.22V163.067H115.499V161.136H89.2191V163.069H91.4972V193.396H89.2191V195.327H82.916V193.396H80.6355V163.067H82.916V161.136H56.6272V163.069H58.9077V193.396H56.6272V195.327H50.3241V193.396H48.0437V163.067H50.3241V161.136H24.0354V163.069H26.3158V193.396H24.0354V195.327H7.64316V197.26H9.92361V227.59H7.64316V229.52H4.18426V148.169H170.387V229.52ZM170.387 143.533H160.075V142.159H160.407C161.261 142.158 162.08 141.818 162.685 141.214C163.289 140.61 163.628 139.791 163.629 138.937C163.629 138.914 163.625 138.89 163.616 138.868C163.606 138.846 163.593 138.826 163.575 138.81C163.558 138.794 163.538 138.781 163.515 138.773C163.493 138.765 163.469 138.762 163.446 138.763C163.46 138.502 163.446 140.237 163.446 120.954C163.446 120.759 163.407 120.565 163.331 120.385C163.255 120.205 163.145 120.042 163.005 119.905C162.865 119.768 162.7 119.661 162.518 119.589C162.337 119.516 162.142 119.481 161.947 119.485C161.947 119.438 161.928 119.393 161.895 119.36C161.862 119.327 161.817 119.309 161.771 119.309H160.066V118.539H162.569V113.463C162.569 113.417 162.55 113.372 162.517 113.339C162.484 113.306 162.439 113.287 162.392 113.287C162.346 113.287 162.301 113.306 162.268 113.339C162.235 113.372 162.216 113.417 162.216 113.463H138.908V118.196C138.862 118.196 138.817 118.215 138.784 118.248C138.751 118.281 138.732 118.326 138.732 118.372C138.732 118.419 138.751 118.464 138.784 118.497C138.817 118.53 138.862 118.548 138.908 118.548H141.228V119.318H139.521C139.029 119.318 138.557 119.513 138.208 119.861C137.86 120.209 137.665 120.68 137.665 121.172V138.953C137.666 139.808 138.006 140.626 138.611 141.23C139.215 141.834 140.035 142.174 140.89 142.175H141.221V143.549H127.585V142.175H127.917C128.772 142.174 129.591 141.834 130.196 141.23C130.8 140.626 131.14 139.808 131.141 138.953C131.141 138.93 131.136 138.906 131.127 138.885C131.117 138.863 131.103 138.843 131.086 138.827C131.068 138.811 131.048 138.798 131.026 138.79C131.003 138.782 130.98 138.778 130.956 138.78C130.97 138.52 130.956 140.263 130.956 120.97C130.956 120.775 130.917 120.582 130.841 120.402C130.766 120.221 130.655 120.058 130.515 119.921C130.376 119.785 130.21 119.677 130.029 119.605C129.847 119.533 129.653 119.497 129.457 119.501C129.457 119.454 129.439 119.409 129.406 119.376C129.373 119.343 129.328 119.325 129.281 119.325H127.576V118.555H130.114V113.463C130.114 113.417 130.095 113.372 130.062 113.339C130.029 113.306 129.984 113.287 129.937 113.287C129.891 113.287 129.846 113.306 129.813 113.339C129.78 113.372 129.761 113.417 129.761 113.463H106.432V118.196C106.386 118.196 106.341 118.215 106.308 118.248C106.275 118.281 106.256 118.326 106.256 118.372C106.256 118.419 106.275 118.464 106.308 118.497C106.341 118.53 106.386 118.548 106.432 118.548H108.752V119.318H107.047C106.555 119.318 106.083 119.513 105.735 119.861C105.387 120.209 105.191 120.68 105.191 121.172V138.953C105.192 139.807 105.532 140.626 106.136 141.23C106.74 141.834 107.559 142.174 108.414 142.175H108.771V143.549H95.1347V142.175H95.4688C96.3234 142.174 97.1427 141.834 97.7468 141.23C98.3509 140.626 98.6905 139.807 98.6911 138.953C98.6912 138.93 98.6863 138.906 98.6768 138.884C98.6674 138.862 98.6535 138.843 98.6361 138.826C98.6187 138.81 98.5981 138.797 98.5757 138.789C98.5532 138.781 98.5293 138.778 98.5055 138.78C98.5194 138.52 98.5055 140.263 98.5055 120.97C98.5055 120.775 98.4666 120.582 98.3909 120.402C98.3153 120.221 98.2045 120.058 98.0649 119.921C97.9254 119.785 97.76 119.677 97.5783 119.605C97.3966 119.533 97.2024 119.497 97.0069 119.501C97.0072 119.478 97.0029 119.455 96.9943 119.434C96.9857 119.412 96.9729 119.393 96.9567 119.377C96.9406 119.36 96.9213 119.347 96.9 119.338C96.8787 119.329 96.8559 119.325 96.8329 119.325H95.1254V118.555H97.6356V113.463C97.6306 113.42 97.61 113.381 97.5777 113.352C97.5454 113.323 97.5037 113.307 97.4604 113.307C97.4172 113.307 97.3754 113.323 97.3431 113.352C97.3108 113.381 97.2902 113.42 97.2852 113.463H73.9567V118.196C73.9099 118.196 73.865 118.215 73.832 118.248C73.7989 118.281 73.7803 118.326 73.7803 118.372C73.7803 118.419 73.7989 118.464 73.832 118.497C73.865 118.53 73.9099 118.548 73.9567 118.548H76.2765V119.318H74.5714C74.0792 119.318 73.6071 119.513 73.2591 119.861C72.911 120.209 72.7155 120.68 72.7155 121.172V138.953C72.7161 139.807 73.0557 140.626 73.6598 141.23C74.2639 141.834 75.0832 142.174 75.9378 142.175H76.2928V143.549H62.6589V142.175H62.9906C63.8453 142.174 64.6645 141.834 65.2686 141.23C65.8727 140.626 66.2123 139.807 66.2129 138.953C66.2133 138.93 66.2087 138.906 66.1995 138.884C66.1903 138.862 66.1767 138.843 66.1595 138.826C66.1422 138.81 66.1218 138.797 66.0995 138.789C66.0771 138.781 66.0533 138.778 66.0296 138.78C66.0436 138.52 66.0296 140.224 66.0296 120.97C66.0297 120.775 65.9908 120.582 65.9151 120.402C65.8395 120.221 65.7286 120.058 65.5891 119.921C65.4495 119.785 65.2841 119.677 65.1024 119.605C64.9207 119.533 64.7265 119.497 64.531 119.501C64.531 119.454 64.5124 119.409 64.4794 119.376C64.4463 119.343 64.4015 119.325 64.3547 119.325H62.6496V118.555H65.1574V113.463C65.1577 113.44 65.1534 113.418 65.1448 113.396C65.1361 113.375 65.1233 113.356 65.1071 113.34C65.0909 113.324 65.0716 113.311 65.0503 113.302C65.0291 113.293 65.0063 113.289 64.9834 113.289C64.9603 113.289 64.9375 113.293 64.9161 113.302C64.8947 113.311 64.8752 113.323 64.8588 113.34C64.8424 113.356 64.8294 113.375 64.8205 113.396C64.8116 113.418 64.8071 113.44 64.8071 113.463H41.4947V118.196C41.4479 118.196 41.4031 118.215 41.37 118.248C41.337 118.281 41.3184 118.326 41.3184 118.372C41.3184 118.419 41.337 118.464 41.37 118.497C41.4031 118.53 41.4479 118.548 41.4947 118.548H43.8146V119.318H42.1072C41.6149 119.318 41.1429 119.513 40.7948 119.861C40.4468 120.209 40.2513 120.68 40.2513 121.172V138.953C40.2519 139.807 40.5915 140.626 41.1956 141.23C41.7997 141.834 42.6189 142.174 43.4736 142.175H43.8146V143.549H30.1737V142.175H30.5055C31.3603 142.174 32.1798 141.834 32.7843 141.23C33.3887 140.626 33.7289 139.808 33.7301 138.953C33.7298 138.93 33.7247 138.906 33.7152 138.885C33.7056 138.863 33.6917 138.843 33.6744 138.827C33.657 138.811 33.6366 138.798 33.6143 138.79C33.592 138.782 33.5682 138.778 33.5445 138.78C33.5584 138.522 33.5445 140.237 33.5445 120.97C33.5445 120.775 33.5056 120.582 33.43 120.402C33.3543 120.221 33.2435 120.058 33.1039 119.921C32.9644 119.785 32.7989 119.677 32.6173 119.605C32.4356 119.533 32.2414 119.497 32.0459 119.501C32.0459 119.454 32.0273 119.409 31.9942 119.376C31.9612 119.343 31.9163 119.325 31.8696 119.325H30.1645V118.555H32.6792V113.463C32.6792 113.417 32.6606 113.372 32.6276 113.339C32.5945 113.306 32.5497 113.287 32.5029 113.287C32.4561 113.287 32.4113 113.306 32.3782 113.339C32.3452 113.372 32.3266 113.417 32.3266 113.463H9.01653V118.196C8.96977 118.196 8.92494 118.215 8.89188 118.248C8.85881 118.281 8.84022 118.326 8.84022 118.372C8.84022 118.419 8.85881 118.464 8.89188 118.497C8.92494 118.53 8.96977 118.548 9.01653 118.548H11.3364V119.318H9.63131C9.13909 119.318 8.66704 119.513 8.31899 119.861C7.97094 120.209 7.77541 120.68 7.77541 121.172V138.953C7.77664 139.808 8.11676 140.626 8.72123 141.23C9.3257 141.834 10.1452 142.174 11 142.175H11.3364V143.549H4.18658V62.198H170.387V143.533Z" fill="white"/>
</g>
</g>
<g style="mix-blend-mode:multiply" opacity="0.5">
<g style="mix-blend-mode:multiply" opacity="0.5">
<path d="M385.877 8.82812V57.5625H219.675V8.82812H216.195V301.821H389.357V8.82812H385.877ZM385.877 275.745H219.675V234.156H385.877V275.745ZM385.877 229.52H383.172V187.681H361.444V229.52H355.227V187.681H333.499V229.52H327.282V187.681H305.554V229.52H299.896V187.681H278.165V229.52H272.333V187.681H250.605V229.52H244.947V187.681H223.217V229.52H219.675V148.169H385.877V229.52ZM257.762 111.28V141.61H255.482V143.543H248.522V141.61H246.242V111.28H248.522V109.349H255.482V111.28H257.762ZM291.011 111.28V141.61H288.73V143.543H281.771V141.61H279.49V111.28H281.771V109.349H288.73V111.28H291.011ZM324.259 111.28V141.61H321.979V143.543H315.019V141.61H312.739V111.28H315.019V109.349H321.979V111.28H324.259ZM357.507 111.28V141.61H355.227V143.543H348.267V141.61H345.987V111.28H348.267V109.349H355.227V111.28H357.507ZM385.877 143.543H381.516V141.61H379.235V111.28H381.516V109.349H362.688V107.416H360.407V77.0869H362.688V75.1493H336.399V77.08H338.67V107.416H336.39V109.349H330.087V107.416H327.808V77.0869H330.087V75.1493H303.809V77.08H306.087V107.416H303.809V109.349H297.506V107.416H295.226V77.0869H297.506V75.1493H271.217V77.08H273.498V107.416H271.217V109.349H264.914V107.416H262.634V77.0869H264.914V75.1493H238.626V77.08H240.906V107.416H238.626V109.349H222.233V111.28H224.514V141.61H222.233V143.543H219.682V62.191H385.884L385.877 143.543Z" fill="white"/>
</g>
</g>
<g style="mix-blend-mode:multiply" opacity="0.5">
<g style="mix-blend-mode:multiply" opacity="0.5">
<path d="M46.5985 111.915H46.9302C47.7848 111.914 48.6041 111.574 49.2082 110.97C49.8123 110.366 50.1519 109.547 50.1525 108.694C50.1525 108.67 50.1477 108.646 50.1384 108.625C50.1291 108.603 50.1155 108.583 50.0983 108.567C50.0812 108.551 50.0609 108.538 50.0387 108.53C50.0165 108.522 49.9929 108.518 49.9692 108.52C49.9832 108.26 49.9692 109.85 49.9692 90.7104C49.9693 90.515 49.9303 90.3215 49.8547 90.1413C49.7791 89.961 49.6683 89.7976 49.5288 89.6606C49.3893 89.5236 49.2239 89.4158 49.0422 89.3433C48.8605 89.2709 48.6662 89.2353 48.4706 89.2387C48.47 89.1924 48.4511 89.1482 48.4181 89.1156C48.3851 89.0831 48.3407 89.0648 48.2943 89.0648H46.5985V88.2954H49.1016V83.2103C49.1016 83.1636 49.083 83.1188 49.05 83.0858C49.0169 83.0527 48.9721 83.0342 48.9253 83.0342C48.8785 83.0342 48.8337 83.0527 48.8006 83.0858C48.7675 83.1188 48.749 83.1636 48.749 83.2103H25.4343V87.9431C25.3875 87.9431 25.3427 87.9616 25.3096 87.9947C25.2765 88.0277 25.258 88.0725 25.258 88.1192C25.258 88.1659 25.2765 88.2107 25.3096 88.2438C25.3427 88.2768 25.3875 88.2954 25.4343 88.2954H27.7541V89.0556H26.0467C25.5545 89.0556 25.0825 89.2509 24.7344 89.5987C24.3864 89.9464 24.1908 90.418 24.1908 90.9097V108.691C24.1914 109.545 24.531 110.364 25.1351 110.968C25.7392 111.572 26.5585 111.912 27.4131 111.913H27.7472V113.287H46.5985V111.915Z" fill="white"/>
</g>
</g>
<g style="mix-blend-mode:multiply" opacity="0.5">
<g style="mix-blend-mode:multiply" opacity="0.5">
<path d="M79.1903 111.915H79.5244C80.379 111.914 81.1982 111.574 81.8023 110.97C82.4064 110.366 82.746 109.547 82.7467 108.693C82.7467 108.67 82.7418 108.646 82.7324 108.624C82.7229 108.602 82.7091 108.583 82.6917 108.566C82.6742 108.55 82.6537 108.537 82.6312 108.529C82.6088 108.521 82.5849 108.518 82.5611 108.52C82.575 108.262 82.5611 109.938 82.5611 90.7103C82.5614 90.5148 82.5227 90.3212 82.4472 90.1408C82.3716 89.9604 82.2609 89.7969 82.1213 89.6598C81.9817 89.5228 81.8162 89.4149 81.6343 89.3426C81.4525 89.2702 81.2581 89.2349 81.0624 89.2386C81.0624 89.1925 81.0441 89.1483 81.0115 89.1157C80.9788 89.0831 80.9346 89.0648 80.8884 89.0648H79.181V88.2953H81.6841V83.2102C81.687 83.1856 81.6846 83.1606 81.6771 83.1369C81.6696 83.1132 81.6571 83.0914 81.6406 83.0729C81.6241 83.0543 81.6038 83.0395 81.5811 83.0293C81.5584 83.0192 81.5338 83.0139 81.509 83.0139C81.4841 83.0139 81.4596 83.0192 81.4369 83.0293C81.4142 83.0395 81.3939 83.0543 81.3774 83.0729C81.3608 83.0914 81.3484 83.1132 81.3409 83.1369C81.3334 83.1606 81.331 83.1856 81.3338 83.2102H58.0238V87.943C57.9771 87.943 57.9322 87.9616 57.8992 87.9946C57.8661 88.0276 57.8475 88.0724 57.8475 88.1191C57.8475 88.1659 57.8661 88.2107 57.8992 88.2437C57.9322 88.2767 57.9771 88.2953 58.0238 88.2953H60.3437V89.0555H58.6363C58.144 89.0555 57.672 89.2508 57.3239 89.5986C56.9759 89.9463 56.7804 90.4179 56.7804 90.9097V108.691C56.781 109.545 57.1206 110.364 57.7247 110.968C58.3288 111.572 59.148 111.912 60.0027 111.913H60.3367V113.287H79.174L79.1903 111.915Z" fill="white"/>
</g>
</g>
<g style="mix-blend-mode:multiply" opacity="0.5">
<g style="mix-blend-mode:multiply" opacity="0.5">
<path d="M111.787 111.915H112.118C112.973 111.914 113.793 111.574 114.397 110.97C115.002 110.366 115.342 109.548 115.343 108.694C115.343 108.67 115.338 108.646 115.329 108.624C115.319 108.602 115.306 108.583 115.288 108.566C115.271 108.55 115.25 108.537 115.228 108.529C115.205 108.521 115.181 108.518 115.158 108.52C115.171 108.255 115.158 109.989 115.158 90.7104C115.158 90.5149 115.119 90.3213 115.044 90.1409C114.968 89.9605 114.857 89.797 114.718 89.6599C114.578 89.5229 114.413 89.415 114.231 89.3427C114.049 89.2703 113.855 89.235 113.659 89.2387C113.658 89.1924 113.639 89.1482 113.606 89.1156C113.573 89.0831 113.529 89.0648 113.483 89.0648H111.787V88.2954H114.29V83.2103C114.29 83.1872 114.285 83.1643 114.276 83.1429C114.268 83.1215 114.255 83.1021 114.238 83.0858C114.222 83.0694 114.202 83.0564 114.181 83.0476C114.16 83.0387 114.137 83.0342 114.114 83.0342C114.091 83.0342 114.068 83.0387 114.046 83.0476C114.025 83.0565 114.006 83.0695 113.99 83.0859C113.974 83.1023 113.961 83.1217 113.952 83.1431C113.944 83.1644 113.939 83.1873 113.94 83.2103H90.6156V87.9431C90.5689 87.9431 90.5241 87.9616 90.491 87.9947C90.4579 88.0277 90.4393 88.0725 90.4393 88.1192C90.4393 88.1659 90.4579 88.2107 90.491 88.2438C90.5241 88.2768 90.5689 88.2954 90.6156 88.2954H92.9355V89.0556H91.2304C90.7382 89.0556 90.2661 89.2509 89.9181 89.5987C89.5701 89.9464 89.3745 90.418 89.3745 90.9097V108.691C89.3751 109.545 89.7148 110.364 90.3189 110.968C90.923 111.572 91.7422 111.912 92.5968 111.913H92.9285V113.287H111.787V111.915Z" fill="white"/>
</g>
</g>
<g style="mix-blend-mode:multiply" opacity="0.5">
<g style="mix-blend-mode:multiply" opacity="0.5">
<path d="M144.374 111.915H144.706C145.56 111.914 146.38 111.574 146.984 110.97C147.588 110.366 147.927 109.547 147.928 108.694C147.928 108.67 147.923 108.646 147.914 108.625C147.905 108.603 147.891 108.583 147.874 108.567C147.857 108.551 147.836 108.538 147.814 108.53C147.792 108.522 147.768 108.518 147.745 108.52C147.759 108.255 147.745 109.989 147.745 90.7104C147.745 90.515 147.706 90.3215 147.63 90.1413C147.555 89.961 147.444 89.7976 147.304 89.6606C147.165 89.5236 146.999 89.4158 146.818 89.3433C146.636 89.2709 146.442 89.2353 146.246 89.2387C146.246 89.1924 146.227 89.1482 146.194 89.1156C146.161 89.0831 146.116 89.0648 146.07 89.0648H144.365V88.2954H146.868V83.2103C146.868 83.1636 146.849 83.1188 146.816 83.0858C146.783 83.0527 146.738 83.0342 146.692 83.0342C146.645 83.0342 146.6 83.0527 146.567 83.0858C146.534 83.1188 146.515 83.1636 146.515 83.2103H123.207V87.9431C123.161 87.9431 123.116 87.9616 123.083 87.9947C123.05 88.0277 123.031 88.0725 123.031 88.1192C123.031 88.1659 123.05 88.2107 123.083 88.2438C123.116 88.2768 123.161 88.2954 123.207 88.2954H125.527V89.0556H123.82C123.328 89.0556 122.856 89.2509 122.508 89.5987C122.16 89.9464 121.964 90.418 121.964 90.9097V108.691C121.965 109.545 122.305 110.364 122.91 110.968C123.514 111.572 124.334 111.912 125.189 111.913H125.52V113.287H144.36L144.374 111.915Z" fill="white"/>
</g>
</g>
<g opacity="0.5">
<path opacity="0.5" d="M20.7551 135.505C23.7634 135.505 26.2021 133.068 26.2021 130.063C26.2021 127.057 23.7634 124.621 20.7551 124.621C17.7467 124.621 15.308 127.057 15.308 130.063C15.308 133.068 17.7467 135.505 20.7551 135.505Z" fill="white"/>
<path opacity="0.5" d="M53.2309 135.505C56.2392 135.505 58.678 133.068 58.678 130.063C58.678 127.057 56.2392 124.621 53.2309 124.621C50.2226 124.621 47.7839 127.057 47.7839 130.063C47.7839 133.068 50.2226 135.505 53.2309 135.505Z" fill="white"/>
<path opacity="0.5" d="M85.7045 135.505C88.7128 135.505 91.1515 133.068 91.1515 130.063C91.1515 127.057 88.7128 124.621 85.7045 124.621C82.6961 124.621 80.2574 127.057 80.2574 130.063C80.2574 133.068 82.6961 135.505 85.7045 135.505Z" fill="white"/>
<path opacity="0.5" d="M118.18 135.505C121.189 135.505 123.627 133.068 123.627 130.063C123.627 127.057 121.189 124.621 118.18 124.621C115.172 124.621 112.733 127.057 112.733 130.063C112.733 133.068 115.172 135.505 118.18 135.505Z" fill="white"/>
<path opacity="0.5" d="M150.656 135.505C153.665 135.505 156.103 133.068 156.103 130.063C156.103 127.057 153.665 124.621 150.656 124.621C147.648 124.621 145.209 127.057 145.209 130.063C145.209 133.068 147.648 135.505 150.656 135.505Z" fill="white"/>
<path opacity="0.5" d="M42.4998 101.169C43.1842 98.2421 41.3642 95.3152 38.4348 94.6315C35.5053 93.9477 32.5757 95.766 31.8913 98.6927C31.2069 101.619 33.0269 104.546 35.9563 105.23C38.8858 105.914 41.8154 104.095 42.4998 101.169Z" fill="white"/>
<path opacity="0.5" d="M73.622 103.771C75.7492 101.646 75.7492 98.2005 73.622 96.0753C71.4948 93.9501 68.0459 93.9501 65.9187 96.0753C63.7915 98.2005 63.7915 101.646 65.9187 103.771C68.0459 105.897 71.4948 105.897 73.622 103.771Z" fill="white"/>
<path opacity="0.5" d="M106.214 103.771C108.341 101.646 108.341 98.2 106.214 96.0748C104.087 93.9495 100.638 93.9496 98.5109 96.0748C96.3837 98.2 96.3837 101.646 98.5109 103.771C100.638 105.896 104.087 105.896 106.214 103.771Z" fill="white"/>
<path opacity="0.5" d="M138.805 103.772C140.932 101.647 140.932 98.2012 138.805 96.076C136.678 93.9508 133.229 93.9508 131.101 96.076C128.974 98.2012 128.974 101.647 131.101 103.772C133.229 105.897 136.678 105.897 138.805 103.772Z" fill="white"/>
<path opacity="0.5" d="M29.508 19.5083H7.78004V24.2967H29.508V19.5083Z" fill="white"/>
<path opacity="0.5" d="M56.894 19.5083H35.1661V24.2967H56.894V19.5083Z" fill="white"/>
<path opacity="0.5" d="M84.2824 19.5083H62.5545V24.2967H84.2824V19.5083Z" fill="white"/>
<path opacity="0.5" d="M111.668 19.5083H89.9406V24.2967H111.668V19.5083Z" fill="white"/>
<path opacity="0.5" d="M29.508 49.8655H7.78004V54.6539H29.508V49.8655Z" fill="white"/>
<path opacity="0.5" d="M56.894 49.8655H35.1661V54.6539H56.894V49.8655Z" fill="white"/>
<path opacity="0.5" d="M84.2824 49.8655H62.5545V54.6539H84.2824V49.8655Z" fill="white"/>
<path opacity="0.5" d="M161.188 19.5083H139.46V24.2967H161.188V19.5083Z" fill="white"/>
<path opacity="0.5" d="M161.188 49.8655H139.46V54.6539H161.188V49.8655Z" fill="white"/>
<path opacity="0.5" d="M111.668 49.8655H89.9406V54.6539H111.668V49.8655Z" fill="white"/>
<path opacity="0.5" d="M241.529 209.806C242.189 205.745 239.429 201.918 235.364 201.259C231.299 200.6 227.469 203.358 226.81 207.419C226.15 211.48 228.91 215.306 232.975 215.965C237.039 216.624 240.869 213.867 241.529 209.806Z" fill="white"/>
<path opacity="0.5" d="M268.944 209.805C269.604 205.744 266.844 201.918 262.779 201.259C258.714 200.599 254.884 203.357 254.225 207.418C253.565 211.479 256.325 215.305 260.39 215.964C264.454 216.623 268.284 213.866 268.944 209.805Z" fill="white"/>
<path opacity="0.5" d="M296.202 210.296C297.148 206.292 294.666 202.28 290.658 201.335C286.65 200.39 282.634 202.869 281.688 206.873C280.742 210.877 283.225 214.889 287.232 215.834C291.24 216.779 295.256 214.3 296.202 210.296Z" fill="white"/>
<path opacity="0.5" d="M323.773 209.808C324.433 205.747 321.673 201.921 317.608 201.261C313.543 200.602 309.714 203.36 309.054 207.421C308.394 211.482 311.154 215.308 315.219 215.967C319.284 216.626 323.113 213.869 323.773 209.808Z" fill="white"/>
<path opacity="0.5" d="M349.071 213.868C351.983 210.959 351.983 206.242 349.071 203.333C346.159 200.424 341.438 200.424 338.527 203.333C335.615 206.242 335.615 210.959 338.527 213.868C341.438 216.777 346.159 216.777 349.071 213.868Z" fill="white"/>
<path opacity="0.5" d="M378.605 209.807C379.265 205.746 376.505 201.919 372.44 201.26C368.375 200.601 364.545 203.359 363.886 207.42C363.226 211.48 365.986 215.307 370.051 215.966C374.115 216.625 377.945 213.868 378.605 209.807Z" fill="white"/>
<path opacity="0.5" d="M246.242 119.16H224.514V132.756H246.242V119.16Z" fill="white"/>
<path opacity="0.5" d="M279.49 119.16H257.762V132.756H279.49V119.16Z" fill="white"/>
<path opacity="0.5" d="M312.738 119.16H291.011V132.756H312.738V119.16Z" fill="white"/>
<path opacity="0.5" d="M262.634 85.4539H240.906V99.0495H262.634V85.4539Z" fill="white"/>
<path opacity="0.5" d="M295.226 85.4539H273.498V99.0495H295.226V85.4539Z" fill="white"/>
<path opacity="0.5" d="M327.818 85.4539H306.09V99.0495H327.818V85.4539Z" fill="white"/>
<path opacity="0.5" d="M360.407 85.4539H338.679V99.0495H360.407V85.4539Z" fill="white"/>
<path opacity="0.5" d="M345.987 119.16H324.259V132.756H345.987V119.16Z" fill="white"/>
<path opacity="0.5" d="M379.235 119.16H357.507V132.756H379.235V119.16Z" fill="white"/>
</g>
</g>
<path opacity="0.5" d="M306.81 317.812C306.81 321.752 244.4 324.952 167.4 324.952C90.4 324.952 28 321.752 28 317.812C28 313.872 90.41 310.682 167.4 310.682C244.39 310.682 306.81 313.872 306.81 317.812Z" fill="#C7DAEA"/>
<path d="M50.67 309.442L50.79 311.072L51.19 316.222C51.19 316.222 57.5 316.772 57.81 316.772C58.5737 316.51 59.2974 316.143 59.96 315.682C60.4191 315.272 60.8563 314.838 61.27 314.382L61.01 311.382L60.68 308.832L50.67 309.442Z" fill="#FFA383"/>
<path d="M80.19 308.092C80.19 308.092 79.69 311.312 79.39 313.152C79.23 314.312 82.85 316.692 88.24 316.382C93.63 316.072 99.3 315.662 99.24 313.022L95.48 311.612C95.48 311.612 91.58 311.082 91.26 307.462C90.94 303.842 80.19 308.092 80.19 308.092Z" fill="#FFA383"/>
<path d="M65.5 87.5217C60.71 85.3617 59.65 68.2117 64.23 62.2717C70.49 54.1717 81.73 56.2717 83.92 62.7317C83.92 62.7317 89.57 67.7317 86.11 81.2017C85.45 83.7517 85.11 86.2017 81.89 88.7717L65.5 87.5217Z" fill="#5C5C5C"/>
<path d="M130.92 167.542C130.92 167.542 134.39 170.002 136 171.082C137.61 172.162 150.86 174.772 150.63 180.002C150.39 181.472 146.85 184.142 144.08 183.082C139.54 186.392 133.38 179.472 131.99 177.622C130.6 175.772 125.46 174.132 125.46 174.132L130.92 167.542Z" fill="#FFA383"/>
<path d="M63.26 101.442C63.26 99.6317 64.51 97.2817 64.43 95.9617C64.34 94.4717 68.22 92.9617 73.88 92.9617C79.54 92.9617 82.56 94.1416 83.04 95.1116C83.42 95.9016 85.12 100.782 85.62 102.192C86.04 103.402 73.1 104.572 73.1 104.572L63.26 101.442Z" fill="white"/>
<path d="M79.13 312.272C79.13 312.852 78.36 315.272 78.43 317.532C78.43 318.532 78.54 319.322 79.36 319.362C83.13 319.562 94.61 320.122 96.97 320.122C99.84 320.122 102.57 319.922 103.12 318.802C103.95 317.132 102.86 314.012 97.2 312.272C101.02 314.772 88.98 315.732 83.35 314.922C79.65 314.442 79.82 311.002 79.13 312.272Z" fill="#101E35"/>
<path d="M61.51 312.042C61.76 314.432 64.9601 314.182 64.8401 316.922C64.8886 317.674 64.7726 318.428 64.5 319.132C63.5 320.522 61.1 320.692 59.13 320.692C56.4251 320.837 53.716 320.498 51.13 319.692C47.46 318.262 49.81 314.792 49.93 311.512C49.93 311.262 50.1 310.682 50.69 310.732C51.03 313.072 51.8301 315.442 57.2701 315.432C61.8701 315.432 59.9101 311.772 60.9701 311.432C61.3301 311.312 61.49 311.822 61.51 312.042Z" fill="#101E35"/>
<path d="M73.08 194.662C72.84 197.592 70.22 230.662 65.21 256.562C60.12 282.842 61.27 309.732 61.27 309.732C59.5931 310.232 57.8589 310.514 56.11 310.572C54.1747 310.731 52.2267 310.52 50.37 309.952C50.37 309.952 47.49 268.662 49.68 253.562C53.09 230.082 48.2 193.902 51.87 182.682C51.87 182.682 57.87 175.772 64.78 175.682C71.69 175.592 80.59 175.492 87.12 175.552C91.12 175.552 93.59 182.472 95.03 182.652C95.32 190.372 97.62 222.652 95.62 251.802C93.84 277.802 91.74 300.882 91.83 308.402C91.83 308.402 90.44 309.992 86.46 309.872C83.46 309.792 81.23 309.522 80.16 308.092C81.16 295.682 76.76 269.772 79.68 252.992C80.48 240.222 75.16 194.662 75.16 194.662H73.08Z" fill="#101E35"/>
<path d="M65.2701 100.512L71.41 96.3716L75.81 95.3716L80.32 100.442L94.85 105.622C94.85 105.622 96.2 118.902 93.85 144.332C92.49 159.252 99.2101 173.332 98.2101 174.172L94.54 177.252L95.01 182.692C80.6438 183.777 66.2162 183.777 51.85 182.692L52.3901 177.972C52.3901 177.972 51.18 177.112 48.75 175.542C45.81 174.162 50.99 154.702 51.99 138.052C52.5737 127.592 52.286 117.103 51.13 106.692L65.2701 100.512Z" fill="white"/>
<path d="M67.71 90.0618C67.71 92.1418 67.28 97.8618 67.14 99.0618C67.14 99.0618 80.14 99.9218 80.32 100.382C79.8345 97.1382 79.6071 93.8613 79.64 90.5818L67.71 90.0618Z" fill="#FFA383"/>
<path d="M67.71 90.0617C67.7699 90.7537 67.7699 91.4497 67.71 92.1417C67.71 92.1417 71.26 96.3417 73.79 96.3417C76.32 96.3417 79.56 92.4517 79.56 92.4517C79.56 92.4517 79.5 89.8617 79.62 88.7717L67.71 90.0617Z" fill="#ED906B"/>
<path d="M88.19 78.1117C87.9 80.2717 86.19 83.1117 84.61 82.2217C83.8517 81.8996 83.2278 81.3257 82.8434 80.597C82.4591 79.8683 82.3378 79.0294 82.5 78.2217C82.5241 77.3526 82.851 76.5191 83.4244 75.8654C83.9977 75.2117 84.7814 74.7789 85.64 74.6417C87.5 74.2917 88.47 75.9417 88.19 78.1117Z" fill="#ED906B"/>
<path d="M60.19 78.1217C60.48 80.2917 62.19 83.1216 63.77 82.2316C64.5276 81.9093 65.1505 81.3351 65.5332 80.6061C65.9159 79.8771 66.0349 79.0383 65.87 78.2316C65.8436 77.3616 65.5146 76.528 64.9396 75.8745C64.3646 75.221 63.5796 74.7886 62.72 74.6517C60.88 74.3117 59.91 75.9517 60.19 78.1217Z" fill="#ED906B"/>
<path d="M60.71 75.3818C60.9473 75.2246 61.218 75.1253 61.5006 75.0918C61.7831 75.0582 62.0696 75.0914 62.3371 75.1886C62.6045 75.2859 62.8454 75.4445 63.0404 75.6517C63.2354 75.8589 63.3792 76.1089 63.46 76.3818L63.26 74.8418C62.8462 74.6696 62.3931 74.6142 61.95 74.6817C61.7044 74.6991 61.4656 74.771 61.2512 74.8921C61.0367 75.0131 60.8519 75.1804 60.71 75.3818Z" fill="#FFA383"/>
<path d="M85.12 73.6016C85.12 76.5004 83.9685 79.2805 81.9187 81.3303C79.8689 83.38 77.0888 84.5316 74.19 84.5316C71.2912 84.5316 68.5111 83.38 66.4613 81.3303C64.4115 79.2805 63.26 76.5004 63.26 73.6016C63.26 65.4916 68.15 61.6016 74.19 61.6016C80.23 61.6016 85.12 65.6616 85.12 73.6016Z" fill="#FFA383"/>
<path d="M85.12 73.6017C85.12 79.4417 85.12 84.3418 82.9 87.5118C81.56 89.4318 78.08 92.7218 75.55 93.5118C74.5523 93.6763 73.5314 93.6355 72.55 93.3918C70.04 92.5118 66.82 89.3018 65.55 87.4718C63.32 84.3018 63.32 79.4018 63.31 73.5618" fill="#FFA383"/>
<path d="M80.36 78.8017C80.36 79.8017 79.77 80.6017 79.03 80.6017C78.29 80.6017 77.69 79.7917 77.69 78.8017C77.69 77.8117 78.29 77.0017 79.02 77.0017C79.75 77.0017 80.36 77.8117 80.36 78.8017Z" fill="#9ABAD8"/>
<path d="M70.49 78.8117C70.49 79.8117 69.89 80.6117 69.15 80.6117C68.41 80.6117 67.82 79.8017 67.81 78.8117C67.8 77.8217 68.41 77.0117 69.15 77.0117C69.89 77.0117 70.49 77.8117 70.49 78.8117Z" fill="#9ABAD8"/>
<path d="M77.24 72.7918C78.796 72.5045 80.4031 72.7181 81.83 73.4018C81.886 73.4384 81.9281 73.4926 81.9497 73.5558C81.9714 73.6191 81.9712 73.6877 81.9494 73.7509C81.9276 73.8141 81.8853 73.8681 81.8292 73.9045C81.7732 73.9409 81.7066 73.9576 81.64 73.9518C80.205 73.6396 78.7468 73.4456 77.28 73.3718C77.2031 73.3718 77.1294 73.3412 77.075 73.2868C77.0206 73.2325 76.99 73.1587 76.99 73.0818C76.99 73.0049 77.0206 72.9311 77.075 72.8767C77.1294 72.8224 77.2031 72.7918 77.28 72.7918H77.24Z" fill="#5C5C5C"/>
<path d="M70.46 73.3819C68.9998 73.455 67.5482 73.649 66.12 73.9619C66.0813 73.9691 66.0415 73.9686 66.003 73.9605C65.9644 73.9523 65.9278 73.9367 65.8953 73.9144C65.8628 73.8921 65.835 73.8636 65.8135 73.8306C65.792 73.7976 65.7773 73.7606 65.77 73.7219C65.63 72.8619 70.87 72.1619 70.77 73.1419C70.7564 73.209 70.7201 73.2694 70.6674 73.313C70.6146 73.3567 70.5485 73.381 70.48 73.3819H70.46Z" fill="#5C5C5C"/>
<path d="M72.29 83.3516C73.5365 83.0065 74.8534 83.0065 76.1 83.3516C76.7 83.7016 74.84 84.1816 74.19 84.1816C73.54 84.1816 71.73 83.6616 72.29 83.3516Z" fill="#ED906B"/>
<path d="M69.71 86.9216C72.5227 87.448 75.3996 87.5391 78.24 87.1916C78.52 87.1916 78.63 87.1916 78.24 87.3616C77.61 87.6316 75.72 89.5216 74.01 89.5216C72.3 89.5216 70.16 87.4116 69.61 87.0716C69.39 86.9216 69.5 86.8716 69.71 86.9216Z" fill="#ED906B"/>
<path d="M78.46 87.1916C78.59 87.1916 77.38 87.9116 76.97 88.2516C74.971 88.4602 72.953 88.3997 70.97 88.0716C69.09 86.8316 69.62 86.9016 69.62 86.9016C72.5574 87.1874 75.5102 87.2843 78.46 87.1916Z" fill="white"/>
<g style="mix-blend-mode:color-burn">
<path d="M48.27 174.982C48.77 175.532 94.27 177.102 98.27 174.132L94.6 177.212C94.6 177.212 81.49 180.212 74.92 180.452C68.35 180.692 52.45 177.962 52.45 177.962L48.6 175.442L48.27 174.982Z" fill="#C1C1C1"/>
</g>
<path d="M67.43 95.6118C67.07 95.8618 69.49 97.6118 74.43 97.6118C78.18 97.6118 80.07 96.3918 79.85 95.8018L81.78 101.802H66.58L67.43 95.6118Z" fill="white"/>
<path d="M63.57 101.912C63.4576 101.744 63.3541 101.57 63.26 101.392C63.343 101.576 63.447 101.751 63.57 101.912Z" fill="#ED906B"/>
<g style="mix-blend-mode:color-burn">
<path d="M84.43 102.912L82.43 97.3917L83.88 103.182C83.147 103.535 82.384 103.823 81.6 104.042L80.19 98.3117L81.08 104.192C79.8504 104.506 78.6009 104.736 77.34 104.882L76.63 99.1117V104.952C75.85 105.022 75.1 105.052 74.39 105.052C73.45 105.052 72.56 105.002 71.71 104.922V99.1117L70.99 104.842C69.7801 104.693 68.5855 104.439 67.42 104.082L68.29 98.3117L66.88 103.902C66.1312 103.65 65.4133 103.315 64.74 102.902L65.66 97.2717L64.19 102.562C63.9461 102.371 63.7247 102.153 63.53 101.912C64.6797 103.678 66.2637 105.12 68.1302 106.098C69.9967 107.077 72.0833 107.56 74.19 107.502C76.3945 107.568 78.5827 107.105 80.5714 106.152C82.5601 105.198 84.2913 103.782 85.62 102.022C85.2674 102.373 84.8667 102.673 84.43 102.912Z" fill="#C1C1C1"/>
</g>
<path d="M94.85 105.582C100.7 107.672 106.37 146.682 106.37 146.682C106.37 146.682 128.84 165.382 132.54 167.542C136.24 169.702 129.77 178.902 125.46 176.892C121.15 174.882 97.61 156.322 95.34 152.302C93.07 148.282 87.67 125.132 87.67 125.132L94.85 105.582Z" fill="white"/>
<path d="M63.26 78.6118C63.48 79.3518 64.81 79.2518 64.83 78.5018C64.85 77.7518 63.67 73.4118 65.25 70.8718C68.58 65.4818 78.49 71.1819 81.73 65.7119C81.73 65.7119 80.95 69.9218 83.04 72.1018C83.74 73.1018 83.61 77.7718 83.61 78.8718C83.61 79.9718 85.06 79.5018 85.12 78.8118C85.18 78.1218 86.05 71.6818 86.05 71.6818L82.88 63.9418L75.88 59.6118L67.46 61.2918L63.56 66.6018L62.07 73.0618L63.26 78.6118Z" fill="#5C5C5C"/>
<g style="mix-blend-mode:color-burn">
<path d="M48.61 175.432L56.27 125.822L54.37 120.742L50.73 129.752L48.61 175.432Z" fill="#C1C1C1"/>
</g>
<path d="M45.2801 188.662C48.7701 191.742 47.77 195.832 48.17 198.562C48.44 200.432 49.5 202.562 47.92 201.912C45.08 200.822 45.5201 196.132 45.5201 196.132C45.2235 196.3 44.9716 196.536 44.7854 196.821C44.5992 197.107 44.4842 197.433 44.4501 197.772C44.1901 199.842 46.66 204.122 46.94 206.182C47.22 208.242 42.72 206.502 40.94 204.072C37.64 199.902 37.6301 192.582 37.6401 191.912C37.6401 190.452 37.6401 186.312 37.6401 186.312L45.7701 181.032C45.7701 181.032 44.7301 188.152 45.2801 188.662Z" fill="#FFA383"/>
<path d="M51.19 106.682C48.64 107.502 44.29 112.872 41.76 130.902C40.32 141.162 36.54 167.022 36.34 181.082C36.34 181.672 37.34 182.622 37.34 183.152C37.34 186.442 37.34 188.742 37.34 189.522C37.55 191.842 46.61 188.892 46.61 186.642C46.61 185.962 46.77 184.002 47.03 181.242C47.03 180.652 47.78 180.342 47.85 179.682C49.18 166.152 53.12 135.082 53.12 135.082L54.36 114.082L51.19 106.682Z" fill="white"/>
<g style="mix-blend-mode:color-burn">
<path d="M93.69 148.522L91.36 119.592L98.36 155.592C96.2062 153.689 94.5949 151.25 93.69 148.522Z" fill="#C1C1C1"/>
</g>
<path d="M293.286 236.109L292.28 245.183L295.371 245.526L296.377 236.451L293.286 236.109Z" fill="#C7DAEA"/>
<path d="M295.19 272.352C293.98 275.352 286.96 274.352 286.67 271.402C285.87 263.402 289.54 253.402 289.74 251.562C289.94 249.722 288.8 245.382 290.63 242.422C292.46 239.462 296.38 239.782 297.68 243.202C298.98 246.622 297.04 250.202 296.83 251.972C296.62 253.742 298.19 265.072 295.19 272.352Z" fill="#C7DAEA"/>
<path d="M296.42 238.442C296.37 238.822 295.55 239.032 294.58 238.922C293.61 238.812 292.86 238.432 292.9 238.052C292.94 237.672 293.76 237.462 294.73 237.572C295.7 237.682 296.46 238.052 296.42 238.442Z" fill="#FFA300"/>
<path d="M293.145 236.165L292.937 238.073L296.456 238.458L296.664 236.549L293.145 236.165Z" fill="#FFA300"/>
<path d="M296.62 236.522C296.62 236.892 295.76 237.102 294.79 237.002C293.82 236.902 293.06 236.502 293.11 236.132C293.16 235.762 293.97 235.542 294.94 235.652C295.91 235.762 296.66 236.142 296.62 236.522Z" fill="#FFBC80"/>
<path d="M296.82 251.972C296.93 251.062 297.51 249.652 297.82 248.022C297.76 248.342 296.82 248.502 295.53 248.522C295.612 247.991 295.489 247.449 295.186 247.006C294.883 246.562 294.424 246.25 293.9 246.132C293.344 246.134 292.812 246.353 292.414 246.741C292.017 247.129 291.786 247.656 291.77 248.212C290.52 247.972 289.56 247.602 289.54 247.112C289.54 248.902 289.81 250.582 289.7 251.562C289.59 252.542 288.7 255.152 287.92 258.562C287.48 260.392 297 261.382 297.02 259.832C297.04 256.002 296.72 252.822 296.82 251.972Z" fill="#FFBC80"/>
<path d="M285.753 241.807L285.735 250.937L288.845 250.942L288.863 241.813L285.753 241.807Z" fill="#C7DAEA"/>
<path d="M291.49 277.552C290.6 280.612 283.49 280.432 282.91 277.552C281.25 269.672 283.81 259.362 283.82 257.492C283.83 255.622 282.21 251.492 283.71 248.312C285.21 245.132 289.13 245.062 290.8 248.312C292.47 251.562 290.93 255.372 290.91 257.112C290.89 258.852 293.68 269.982 291.49 277.552Z" fill="#C7DAEA"/>
<path d="M289.03 243.692C289.03 244.062 288.24 244.362 287.26 244.362C286.28 244.362 285.49 244.062 285.5 243.682C285.51 243.302 286.29 243.002 287.27 243.002C288.25 243.002 289.03 243.312 289.03 243.692Z" fill="#F29A86"/>
<path d="M289.04 241.762H285.5V243.682H289.04V241.762Z" fill="#F29A86"/>
<path d="M289.03 241.772C289.03 242.142 288.24 242.442 287.26 242.442C286.28 242.442 285.49 242.142 285.5 241.762C285.51 241.382 286.29 241.082 287.27 241.082C288.25 241.082 289.03 241.442 289.03 241.772Z" fill="#FFAF99"/>
<path d="M290.91 257.102C290.91 256.202 291.34 254.732 291.51 253.102C291.51 253.422 290.51 253.682 289.28 253.842C289.317 253.568 289.294 253.289 289.212 253.024C289.13 252.76 288.993 252.517 288.808 252.311C288.623 252.105 288.396 251.942 288.141 251.833C287.887 251.724 287.613 251.671 287.336 251.678C287.06 251.686 286.788 251.753 286.54 251.876C286.293 251.998 286.074 252.173 285.901 252.388C285.727 252.604 285.602 252.854 285.535 253.122C285.467 253.39 285.459 253.67 285.51 253.942C284.24 253.842 283.25 253.582 283.17 253.092C283.37 254.872 283.82 256.512 283.82 257.502C283.82 258.492 283.23 261.172 282.82 264.702C282.58 266.572 292.15 266.522 292 264.972C291.56 261.092 290.9 257.962 290.91 257.102Z" fill="#9ABAD8"/>
<g style="mix-blend-mode:soft-light">
<g style="mix-blend-mode:soft-light">
<path d="M256.4 227.892C257.321 226.982 257.963 225.828 258.249 224.566C258.536 223.303 258.456 221.985 258.018 220.767C257.581 219.548 256.804 218.48 255.78 217.689C254.755 216.897 253.526 216.415 252.237 216.299C250.947 216.183 249.652 216.438 248.503 217.034C247.353 217.629 246.398 218.541 245.75 219.662C245.102 220.783 244.788 222.065 244.845 223.359C244.901 224.652 245.326 225.902 246.07 226.962C247.401 228.319 249.171 229.157 251.064 229.328C252.957 229.498 254.848 228.989 256.4 227.892Z" fill="#FFA300"/>
</g>
</g>
<g style="mix-blend-mode:soft-light">
<g style="mix-blend-mode:soft-light">
<path d="M267.11 229.152C268.029 228.241 268.669 227.087 268.955 225.825C269.24 224.563 269.159 223.246 268.721 222.028C268.283 220.811 267.506 219.744 266.482 218.953C265.458 218.162 264.229 217.68 262.94 217.564C261.652 217.449 260.357 217.703 259.208 218.299C258.059 218.894 257.104 219.805 256.456 220.925C255.808 222.045 255.493 223.326 255.548 224.619C255.604 225.912 256.028 227.162 256.77 228.222C258.101 229.581 259.874 230.421 261.769 230.592C263.664 230.762 265.557 230.252 267.11 229.152Z" fill="#FFA300"/>
</g>
</g>
<path d="M253.47 221.302C253.47 222.898 252.996 224.459 252.107 225.786C251.219 227.112 249.957 228.145 248.48 228.754C247.004 229.362 245.38 229.518 243.815 229.202C242.25 228.886 240.814 228.113 239.689 226.979C238.565 225.846 237.802 224.404 237.498 222.837C237.193 221.27 237.362 219.647 237.981 218.175C238.6 216.704 239.643 215.449 240.976 214.571C242.309 213.692 243.873 213.23 245.47 213.242C247.598 213.255 249.634 214.11 251.133 215.621C252.633 217.131 253.473 219.174 253.47 221.302Z" fill="#FFA300"/>
<g style="mix-blend-mode:soft-light">
<g style="mix-blend-mode:soft-light">
<path d="M245.42 226.622C246.696 226.405 247.883 225.827 248.842 224.957C249.801 224.088 250.491 222.962 250.831 221.713C251.171 220.465 251.148 219.145 250.763 217.909C250.378 216.673 249.648 215.573 248.658 214.738C247.669 213.904 246.462 213.369 245.179 213.198C243.896 213.027 242.591 213.226 241.417 213.771C240.243 214.317 239.25 215.187 238.554 216.278C237.859 217.37 237.489 218.637 237.49 219.932C237.801 221.807 238.77 223.511 240.224 224.737C241.677 225.963 243.519 226.631 245.42 226.622Z" fill="#FFBC80"/>
</g>
</g>
<path d="M245.42 214.582C245.359 214.582 245.298 214.57 245.242 214.546C245.185 214.522 245.134 214.487 245.091 214.444C245.048 214.4 245.015 214.348 244.992 214.291C244.97 214.234 244.959 214.173 244.96 214.112V212.002C244.96 211.88 245.008 211.763 245.095 211.677C245.181 211.59 245.298 211.542 245.42 211.542C245.541 211.544 245.657 211.594 245.742 211.679C245.828 211.765 245.877 211.881 245.88 212.002V214.112C245.88 214.235 245.832 214.353 245.746 214.441C245.66 214.528 245.543 214.579 245.42 214.582Z" fill="#38AD80"/>
<path d="M257.37 209.932C255.839 211.581 253.806 212.678 251.587 213.052C249.368 213.426 247.087 213.057 245.1 212.002C246.635 210.359 248.668 209.266 250.885 208.892C253.102 208.518 255.381 208.883 257.37 209.932Z" fill="#4ECC9B"/>
<path d="M245.1 212.002C245.1 212.002 252.46 209.922 257.37 209.932L245.1 212.002Z" fill="#38AD80"/>
<path d="M282.66 217.302C283.569 218.608 284.07 220.154 284.101 221.746C284.131 223.337 283.689 224.901 282.831 226.241C281.973 227.581 280.736 228.637 279.279 229.275C277.821 229.913 276.206 230.104 274.64 229.825C273.073 229.545 271.624 228.808 270.476 227.706C269.328 226.603 268.533 225.186 268.191 223.631C267.848 222.077 267.974 220.457 268.553 218.974C269.131 217.491 270.136 216.214 271.44 215.302C272.305 214.689 273.284 214.254 274.319 214.022C275.354 213.791 276.425 213.768 277.469 213.954C278.513 214.14 279.509 214.532 280.4 215.106C281.292 215.681 282.06 216.427 282.66 217.302Z" fill="#FFA300"/>
<g style="mix-blend-mode:soft-light">
<g style="mix-blend-mode:soft-light">
<path d="M279.12 226.282C280.041 225.372 280.683 224.218 280.969 222.955C281.256 221.693 281.176 220.375 280.738 219.157C280.301 217.938 279.524 216.87 278.5 216.079C277.475 215.287 276.246 214.805 274.957 214.689C273.667 214.573 272.372 214.828 271.223 215.423C270.073 216.019 269.118 216.931 268.47 218.052C267.822 219.173 267.508 220.455 267.565 221.749C267.621 223.042 268.046 224.292 268.79 225.352C270.121 226.708 271.891 227.547 273.784 227.718C275.677 227.888 277.568 227.379 279.12 226.282Z" fill="#FFBC80"/>
</g>
</g>
<path d="M271.94 216.492C271.865 216.492 271.791 216.474 271.725 216.439C271.659 216.404 271.602 216.353 271.56 216.292L270.35 214.572C270.315 214.522 270.291 214.466 270.278 214.406C270.264 214.347 270.263 214.285 270.274 214.225C270.285 214.166 270.307 214.108 270.34 214.057C270.373 214.006 270.415 213.962 270.465 213.927C270.515 213.892 270.571 213.867 270.631 213.854C270.69 213.841 270.751 213.84 270.811 213.851C270.871 213.861 270.928 213.884 270.98 213.916C271.031 213.949 271.075 213.992 271.11 214.042L272.32 215.762C272.388 215.864 272.415 215.988 272.394 216.109C272.374 216.229 272.308 216.338 272.21 216.412C272.128 216.461 272.035 216.489 271.94 216.492Z" fill="#38AD80"/>
<path d="M279.33 205.752C279.018 207.979 277.982 210.042 276.38 211.622C274.779 213.202 272.702 214.21 270.47 214.492C270.777 212.262 271.812 210.196 273.414 208.616C275.017 207.035 277.096 206.028 279.33 205.752Z" fill="#4ECC9B"/>
<path d="M270.47 214.492C270.47 214.492 275.3 208.552 279.33 205.752L270.47 214.492Z" fill="#38AD80"/>
<path d="M285.11 222.342H237.27V277.292H285.11V222.342Z" fill="#418FAA"/>
<g style="mix-blend-mode:multiply" opacity="0.5">
<g style="mix-blend-mode:multiply" opacity="0.5">
<path d="M240.59 227.732C241.06 237.102 247.73 277.292 259.83 277.292H242.89L240.59 227.732Z" fill="#C1C1C1"/>
</g>
</g>
<path d="M229.24 196.832C227.05 195.632 227 189.392 225.64 188.042C224.28 186.692 209.35 186.622 207.54 188.042C205.73 189.462 206.47 195.042 204.64 196.472C203.37 197.472 198.64 198.152 195.96 198.472C195.417 198.507 194.906 198.738 194.521 199.123C194.137 199.508 193.905 200.019 193.87 200.562L191.65 279.692H242.83C242.83 279.692 239.64 202.452 239.52 201.032C239.534 200.418 239.323 199.82 238.927 199.35C238.531 198.88 237.978 198.572 237.37 198.482C234.84 198.202 230.72 197.652 229.24 196.832ZM221.7 193.442H210.7C210.276 193.442 209.869 193.273 209.569 192.973C209.269 192.673 209.1 192.266 209.1 191.842C209.1 191.417 209.269 191.01 209.569 190.71C209.869 190.41 210.276 190.242 210.7 190.242H221.7C222.124 190.242 222.531 190.41 222.831 190.71C223.131 191.01 223.3 191.417 223.3 191.842C223.3 192.266 223.131 192.673 222.831 192.973C222.531 193.273 222.124 193.442 221.7 193.442Z" fill="#EF8B8B"/>
<g style="mix-blend-mode:multiply" opacity="0.7">
<g style="mix-blend-mode:multiply" opacity="0.7">
<path d="M192.3 256.512C192.03 266.902 206.55 275.012 221.95 272.602C235.44 270.492 241.95 256.442 241.4 245.372L242.89 277.292H191.65L192.3 256.512Z" fill="#C1C1C1"/>
</g>
</g>
<path d="M301.433 241.519L299.221 250.377L302.239 251.131L304.45 242.273L301.433 241.519Z" fill="#C7DAEA"/>
<path d="M298.44 277.622C296.84 280.392 290.01 278.522 290.11 275.552C290.38 267.502 295.35 258.102 295.8 256.292C296.25 254.482 295.69 250.042 297.9 247.352C300.11 244.662 303.9 245.502 304.78 249.062C305.66 252.622 303.21 255.952 302.78 257.642C302.35 259.332 302.38 270.802 298.44 277.622Z" fill="#C7DAEA"/>
<path d="M304.19 244.162C304.1 244.532 303.26 244.632 302.31 244.392C301.36 244.152 300.67 243.672 300.76 243.312C300.85 242.952 301.69 242.842 302.64 243.072C303.59 243.302 304.26 243.802 304.19 244.162Z" fill="#F29A86"/>
<path d="M301.241 241.517L300.781 243.381L304.217 244.231L304.678 242.367L301.241 241.517Z" fill="#F29A86"/>
<path d="M304.63 242.302C304.54 242.662 303.7 242.772 302.75 242.532C301.8 242.292 301.11 241.812 301.2 241.442C301.29 241.072 302.13 240.972 303.08 241.212C304.03 241.452 304.72 241.932 304.63 242.302Z" fill="#FFAF99"/>
<path d="M302.77 257.642C303 256.762 303.77 255.432 304.32 253.862C304.22 254.172 303.23 254.202 301.98 254.052C302.132 253.537 302.082 252.984 301.841 252.504C301.599 252.025 301.184 251.656 300.68 251.472C300.13 251.399 299.573 251.543 299.127 251.874C298.681 252.204 298.381 252.694 298.29 253.242C297.09 252.842 296.19 252.352 296.23 251.852C296 253.642 296.04 255.332 295.8 256.292C295.56 257.252 294.36 259.722 293.09 263.042C292.41 264.792 301.72 267.042 301.94 265.512C302.45 261.662 302.56 258.442 302.77 257.642Z" fill="#FFAF99"/>
<path d="M217.09 273.082C216.702 274.574 215.908 275.93 214.795 276.998C213.683 278.066 212.297 278.804 210.79 279.132C210.406 279.16 210.021 279.09 209.672 278.929C209.322 278.768 209.019 278.522 208.79 278.212C208.486 278.387 208.141 278.48 207.79 278.48C207.439 278.48 207.094 278.387 206.79 278.212C204.28 276.562 203.11 272.852 203.79 269.862C203.99 268.832 204.494 267.886 205.238 267.146C205.981 266.407 206.929 265.907 207.96 265.712C209.241 265.607 210.517 265.962 211.56 266.712C211.56 266.712 214.14 266.412 215.4 267.612C216.163 268.276 216.726 269.14 217.025 270.106C217.323 271.073 217.346 272.103 217.09 273.082Z" fill="#4ECC9B"/>
<path d="M211.36 268.292H211.25C211.191 268.278 211.135 268.252 211.085 268.216C211.036 268.18 210.994 268.135 210.963 268.083C210.931 268.031 210.91 267.973 210.901 267.913C210.892 267.852 210.895 267.791 210.91 267.732L211.61 264.812C211.622 264.748 211.646 264.688 211.682 264.634C211.718 264.581 211.765 264.535 211.819 264.501C211.874 264.466 211.935 264.443 211.999 264.433C212.062 264.422 212.128 264.426 212.19 264.442C212.249 264.456 212.305 264.482 212.355 264.517C212.404 264.553 212.446 264.599 212.477 264.651C212.509 264.703 212.53 264.761 212.539 264.821C212.548 264.881 212.545 264.943 212.53 265.002L211.82 267.922C211.799 268.028 211.741 268.123 211.657 268.19C211.573 268.258 211.468 268.294 211.36 268.292Z" fill="#38AD80"/>
<path d="M221.42 261.442C220.396 263.013 218.885 264.205 217.118 264.834C215.351 265.462 213.426 265.493 211.64 264.922C212.66 263.347 214.172 262.152 215.94 261.523C217.708 260.894 219.634 260.865 221.42 261.442Z" fill="#4ECC9B"/>
<path d="M211.64 264.952C211.64 264.952 217.39 262.172 221.42 261.472L211.64 264.952Z" fill="#38AD80"/>
<path d="M224.51 275.042C224.248 276.054 223.71 276.973 222.956 277.697C222.202 278.421 221.262 278.921 220.24 279.142C219.985 279.153 219.732 279.101 219.502 278.991C219.272 278.881 219.072 278.717 218.92 278.512C218.71 278.633 218.472 278.697 218.23 278.697C217.988 278.697 217.75 278.633 217.54 278.512C216.696 277.862 216.058 276.982 215.703 275.977C215.349 274.973 215.292 273.888 215.54 272.852C215.675 272.154 216.018 271.514 216.523 271.015C217.028 270.515 217.671 270.18 218.37 270.052C219.238 269.98 220.104 270.221 220.81 270.732C221.722 270.615 222.645 270.831 223.41 271.342C223.918 271.796 224.29 272.383 224.484 273.036C224.678 273.689 224.687 274.384 224.51 275.042Z" fill="#4ECC9B"/>
<path d="M220.63 271.942H220.52C220.461 271.928 220.405 271.902 220.355 271.866C220.306 271.83 220.265 271.785 220.233 271.733C220.201 271.681 220.18 271.623 220.171 271.563C220.162 271.502 220.165 271.441 220.18 271.382L220.66 269.382C220.691 269.264 220.767 269.163 220.872 269.101C220.977 269.039 221.102 269.021 221.22 269.052C221.279 269.065 221.335 269.089 221.384 269.124C221.433 269.159 221.475 269.203 221.507 269.255C221.538 269.306 221.559 269.363 221.569 269.423C221.578 269.482 221.575 269.543 221.56 269.602L221.08 271.602C221.053 271.7 220.995 271.787 220.913 271.849C220.832 271.91 220.732 271.943 220.63 271.942Z" fill="#38AD80"/>
<path d="M227.45 267.172C226.725 268.206 225.713 269.005 224.54 269.472C223.332 269.85 222.04 269.871 220.82 269.532C221.55 268.499 222.565 267.7 223.74 267.232C224.944 266.848 226.234 266.827 227.45 267.172Z" fill="#4ECC9B"/>
<path d="M220.82 269.532C222.939 268.509 225.162 267.718 227.45 267.172L220.82 269.532Z" fill="#38AD80"/>
<g style="mix-blend-mode:soft-light" opacity="0.3">
<g style="mix-blend-mode:soft-light" opacity="0.3">
<path d="M195.27 240.362L196.36 202.002C196.36 202.002 205.42 201.782 207.73 199.002H224.19C216.578 203.288 210.028 209.231 205.022 216.39C200.016 223.549 196.683 231.741 195.27 240.362Z" fill="white"/>
</g>
</g>
<g style="mix-blend-mode:soft-light" opacity="0.3">
<g style="mix-blend-mode:soft-light" opacity="0.3">
<path d="M259.19 224.992H282.51V260.082C282.51 260.082 281.73 238.012 276.42 231.292C271.81 225.442 259.19 224.992 259.19 224.992Z" fill="white"/>
</g>
</g>
<path d="M296.19 281.072H180.19C179.846 281.071 179.515 280.943 179.26 280.712C179.005 280.481 178.845 280.164 178.81 279.822L170.92 202.142C170.9 201.938 170.924 201.732 170.992 201.539C171.059 201.345 171.168 201.169 171.31 201.022C171.454 200.878 171.629 200.767 171.82 200.698C172.012 200.629 172.217 200.603 172.42 200.622L322.49 213.672C322.706 213.688 322.914 213.755 323.099 213.868C323.283 213.981 323.438 214.137 323.55 214.322C323.663 214.508 323.731 214.717 323.751 214.934C323.77 215.151 323.739 215.369 323.66 215.572L297.4 280.202C297.303 280.447 297.137 280.66 296.923 280.814C296.708 280.968 296.454 281.058 296.19 281.072ZM181.51 278.302H295.19L320.38 216.302L173.88 203.522L181.51 278.302Z" fill="#C1C1C1"/>
<path d="M191.65 280.612C191.405 280.609 191.171 280.51 190.999 280.336C190.827 280.162 190.73 279.927 190.73 279.682V203.682C190.716 203.552 190.73 203.421 190.771 203.297C190.811 203.173 190.877 203.059 190.964 202.963C191.051 202.866 191.158 202.789 191.277 202.736C191.396 202.683 191.525 202.655 191.655 202.655C191.785 202.655 191.914 202.683 192.033 202.736C192.152 202.789 192.259 202.866 192.346 202.963C192.433 203.059 192.499 203.173 192.539 203.297C192.58 203.421 192.594 203.552 192.58 203.682V279.682C192.58 279.928 192.482 280.165 192.308 280.339C192.133 280.514 191.897 280.612 191.65 280.612Z" fill="#C1C1C1"/>
<path d="M211.19 280.612C210.945 280.609 210.711 280.51 210.539 280.336C210.367 280.162 210.27 279.927 210.27 279.682V205.372C210.27 205.128 210.367 204.894 210.54 204.721C210.712 204.549 210.946 204.452 211.19 204.452C211.434 204.452 211.668 204.549 211.841 204.721C212.013 204.894 212.11 205.128 212.11 205.372V279.682C212.11 279.927 212.013 280.162 211.841 280.336C211.669 280.51 211.435 280.609 211.19 280.612Z" fill="#C1C1C1"/>
<path d="M230.67 280.612C230.423 280.612 230.187 280.514 230.012 280.339C229.838 280.165 229.74 279.928 229.74 279.682V207.072C229.764 206.843 229.872 206.631 230.042 206.477C230.213 206.323 230.435 206.238 230.665 206.238C230.895 206.238 231.117 206.323 231.288 206.477C231.459 206.631 231.566 206.843 231.59 207.072V279.682C231.59 279.927 231.493 280.162 231.321 280.336C231.149 280.51 230.915 280.609 230.67 280.612Z" fill="#C1C1C1"/>
<path d="M250.19 280.612C249.945 280.609 249.711 280.51 249.539 280.336C249.367 280.162 249.27 279.927 249.27 279.682V208.772C249.257 208.642 249.27 208.511 249.311 208.387C249.351 208.263 249.417 208.149 249.504 208.053C249.591 207.956 249.698 207.879 249.817 207.826C249.936 207.773 250.065 207.745 250.195 207.745C250.325 207.745 250.454 207.773 250.573 207.826C250.692 207.879 250.799 207.956 250.886 208.053C250.973 208.149 251.039 208.263 251.079 208.387C251.12 208.511 251.133 208.642 251.12 208.772V279.682C251.12 279.804 251.096 279.925 251.049 280.038C251.002 280.15 250.934 280.253 250.848 280.339C250.761 280.426 250.659 280.494 250.546 280.541C250.433 280.588 250.312 280.612 250.19 280.612Z" fill="#C1C1C1"/>
<path d="M269.68 280.612C269.435 280.609 269.201 280.51 269.029 280.336C268.857 280.162 268.76 279.927 268.76 279.682V210.442C268.784 210.213 268.892 210.001 269.062 209.847C269.233 209.693 269.455 209.608 269.685 209.608C269.915 209.608 270.137 209.693 270.308 209.847C270.478 210.001 270.586 210.213 270.61 210.442V279.722C270.6 279.961 270.497 280.188 270.324 280.354C270.151 280.519 269.92 280.612 269.68 280.612Z" fill="#C1C1C1"/>
<path d="M289.19 280.612C288.945 280.609 288.711 280.51 288.539 280.336C288.367 280.162 288.27 279.927 288.27 279.682V212.162C288.27 211.918 288.367 211.684 288.54 211.511C288.712 211.339 288.946 211.242 289.19 211.242C289.434 211.242 289.668 211.339 289.841 211.511C290.013 211.684 290.11 211.918 290.11 212.162V279.682C290.11 279.927 290.013 280.162 289.841 280.336C289.669 280.51 289.435 280.609 289.19 280.612Z" fill="#C1C1C1"/>
<path d="M308.7 249.722C308.453 249.722 308.217 249.624 308.042 249.449C307.868 249.275 307.77 249.038 307.77 248.792V213.792C307.794 213.563 307.902 213.351 308.072 213.197C308.243 213.043 308.465 212.958 308.695 212.958C308.925 212.958 309.147 213.043 309.318 213.197C309.488 213.351 309.596 213.563 309.62 213.792V248.792C309.62 249.037 309.523 249.272 309.351 249.446C309.179 249.62 308.945 249.719 308.7 249.722Z" fill="#C1C1C1"/>
<path d="M321.19 215.542H173.9C173.77 215.555 173.64 215.541 173.516 215.501C173.392 215.461 173.278 215.395 173.181 215.308C173.084 215.22 173.007 215.114 172.954 214.995C172.901 214.876 172.874 214.747 172.874 214.617C172.874 214.487 172.901 214.358 172.954 214.239C173.007 214.12 173.084 214.013 173.181 213.926C173.278 213.839 173.392 213.773 173.516 213.732C173.64 213.692 173.77 213.678 173.9 213.692H321.19C321.419 213.716 321.631 213.823 321.785 213.994C321.939 214.165 322.024 214.387 322.024 214.617C322.024 214.847 321.939 215.069 321.785 215.239C321.631 215.41 321.419 215.518 321.19 215.542Z" fill="#C1C1C1"/>
<path d="M315.64 232.632H175.35C175.22 232.645 175.09 232.631 174.966 232.591C174.842 232.551 174.728 232.485 174.631 232.398C174.534 232.31 174.457 232.204 174.404 232.085C174.351 231.966 174.324 231.837 174.324 231.707C174.324 231.577 174.351 231.448 174.404 231.329C174.457 231.21 174.534 231.103 174.631 231.016C174.728 230.929 174.842 230.863 174.966 230.823C175.09 230.782 175.22 230.768 175.35 230.782H315.64C315.869 230.806 316.081 230.913 316.235 231.084C316.388 231.255 316.474 231.477 316.474 231.707C316.474 231.937 316.388 232.159 316.235 232.329C316.081 232.5 315.869 232.608 315.64 232.632Z" fill="#C1C1C1"/>
<path d="M308.7 249.722H177.08C176.851 249.698 176.639 249.59 176.485 249.419C176.332 249.248 176.246 249.027 176.246 248.797C176.246 248.567 176.332 248.345 176.485 248.174C176.639 248.003 176.851 247.895 177.08 247.872H308.7C308.929 247.895 309.141 248.003 309.295 248.174C309.448 248.345 309.534 248.567 309.534 248.797C309.534 249.027 309.448 249.248 309.295 249.419C309.141 249.59 308.929 249.698 308.7 249.722Z" fill="#C1C1C1"/>
<path d="M301.03 266.812H178.82C178.69 266.825 178.56 266.811 178.436 266.771C178.312 266.731 178.198 266.665 178.101 266.578C178.004 266.49 177.927 266.384 177.874 266.265C177.821 266.146 177.794 266.017 177.794 265.887C177.794 265.757 177.821 265.628 177.874 265.509C177.927 265.39 178.004 265.283 178.101 265.196C178.198 265.109 178.312 265.043 178.436 265.003C178.56 264.962 178.69 264.948 178.82 264.962H301.03C301.259 264.986 301.471 265.093 301.625 265.264C301.778 265.435 301.864 265.657 301.864 265.887C301.864 266.117 301.778 266.339 301.625 266.509C301.471 266.68 301.259 266.788 301.03 266.812Z" fill="#C1C1C1"/>
<path d="M296.19 281.992H181.02C180.451 281.992 179.902 281.782 179.479 281.402C179.056 281.021 178.789 280.497 178.73 279.932L169.3 190.702L141.62 181.312C141.318 181.227 141.037 181.081 140.794 180.884C140.55 180.687 140.349 180.442 140.203 180.165C140.057 179.887 139.969 179.583 139.944 179.271C139.919 178.958 139.958 178.644 140.059 178.347C140.159 178.051 140.319 177.777 140.529 177.544C140.738 177.311 140.993 177.123 141.278 176.992C141.562 176.86 141.87 176.788 142.184 176.779C142.497 176.771 142.809 176.826 143.1 176.942L172.19 186.802C172.609 186.941 172.979 187.198 173.255 187.542C173.532 187.886 173.704 188.303 173.75 188.742L183.11 277.372H294.61L320.27 214.182C320.501 213.614 320.948 213.161 321.512 212.923C322.076 212.685 322.712 212.681 323.28 212.912C323.848 213.142 324.3 213.589 324.538 214.154C324.777 214.718 324.781 215.354 324.55 215.922L298.29 280.552C298.12 280.971 297.83 281.331 297.456 281.587C297.083 281.843 296.643 281.984 296.19 281.992Z" fill="#EDEDED"/>
<path d="M156.97 187.312C156.63 187.31 156.292 187.253 155.97 187.142L141.35 182.142C140.573 181.838 139.944 181.247 139.592 180.491C139.24 179.735 139.194 178.873 139.462 178.083C139.729 177.293 140.291 176.638 141.031 176.252C141.77 175.866 142.629 175.78 143.43 176.012L158.04 181.012C158.763 181.256 159.376 181.748 159.771 182.401C160.165 183.054 160.316 183.825 160.196 184.579C160.077 185.332 159.694 186.019 159.116 186.518C158.538 187.016 157.803 187.294 157.04 187.302L156.97 187.312Z" fill="#BF5858"/>
<path d="M299.19 302.102H175.35C174.993 302.104 174.64 302.024 174.319 301.866C173.998 301.709 173.718 301.479 173.502 301.195C173.285 300.91 173.138 300.579 173.072 300.228C173.006 299.877 173.022 299.515 173.12 299.172L178.8 279.062C178.966 278.471 179.359 277.971 179.894 277.671C180.428 277.371 181.06 277.296 181.65 277.462C182.24 277.627 182.74 278.021 183.04 278.555C183.34 279.09 183.416 279.721 183.25 280.312L178.4 297.492H299.19C299.505 297.471 299.822 297.515 300.12 297.621C300.417 297.728 300.69 297.894 300.921 298.11C301.151 298.326 301.335 298.588 301.461 298.878C301.587 299.168 301.652 299.48 301.652 299.797C301.652 300.113 301.587 300.426 301.461 300.716C301.335 301.006 301.151 301.267 300.921 301.483C300.69 301.699 300.417 301.865 300.12 301.972C299.822 302.078 299.505 302.122 299.19 302.102Z" fill="#C1C1C1"/>
<path d="M200.69 313.112C200.688 314.612 200.241 316.079 199.406 317.326C198.571 318.573 197.385 319.544 195.998 320.117C194.611 320.69 193.085 320.839 191.613 320.545C190.142 320.251 188.79 319.527 187.73 318.465C186.669 317.403 185.947 316.051 185.655 314.579C185.363 313.107 185.514 311.581 186.089 310.195C186.664 308.809 187.636 307.624 188.884 306.79C190.132 305.957 191.599 305.512 193.1 305.512C194.098 305.51 195.086 305.706 196.008 306.088C196.931 306.469 197.768 307.029 198.473 307.735C199.179 308.441 199.737 309.28 200.118 310.203C200.498 311.125 200.693 312.114 200.69 313.112Z" fill="#5C5C5C"/>
<path d="M197.81 313.112C197.808 314.043 197.53 314.952 197.011 315.726C196.493 316.499 195.756 317.101 194.896 317.456C194.035 317.811 193.088 317.903 192.175 317.72C191.262 317.537 190.424 317.088 189.766 316.429C189.108 315.769 188.661 314.93 188.48 314.017C188.299 313.103 188.393 312.157 188.75 311.297C189.106 310.437 189.71 309.702 190.484 309.185C191.259 308.668 192.169 308.392 193.1 308.392C193.719 308.392 194.333 308.514 194.905 308.751C195.477 308.988 195.997 309.336 196.434 309.775C196.872 310.213 197.218 310.733 197.454 311.306C197.69 311.879 197.811 312.492 197.81 313.112Z" fill="#EDEDED"/>
<path d="M193.1 315.442C192.708 315.443 192.322 315.344 191.979 315.155C191.636 314.965 191.347 314.691 191.14 314.359C190.932 314.026 190.813 313.646 190.794 313.254C190.775 312.863 190.856 312.473 191.03 312.122L197.53 298.812C197.822 298.308 198.293 297.932 198.85 297.761C199.407 297.59 200.007 297.635 200.532 297.888C201.057 298.141 201.467 298.583 201.679 299.125C201.892 299.667 201.893 300.269 201.68 300.812L195.19 314.122C195.003 314.518 194.708 314.853 194.337 315.086C193.967 315.32 193.538 315.443 193.1 315.442Z" fill="#C1C1C1"/>
<path d="M290.64 313.112C290.638 314.612 290.191 316.079 289.356 317.326C288.521 318.573 287.335 319.544 285.948 320.117C284.561 320.69 283.035 320.839 281.563 320.545C280.092 320.251 278.74 319.527 277.68 318.465C276.619 317.403 275.897 316.051 275.605 314.579C275.313 313.107 275.464 311.581 276.039 310.195C276.613 308.809 277.586 307.624 278.834 306.79C280.082 305.957 281.549 305.512 283.05 305.512C284.048 305.51 285.036 305.706 285.958 306.088C286.881 306.469 287.718 307.029 288.423 307.735C289.129 308.441 289.687 309.28 290.068 310.203C290.448 311.125 290.643 312.114 290.64 313.112Z" fill="#5C5C5C"/>
<path d="M287.76 313.112C287.758 314.043 287.48 314.952 286.961 315.726C286.443 316.499 285.706 317.101 284.846 317.456C283.985 317.811 283.038 317.903 282.125 317.72C281.212 317.537 280.374 317.088 279.716 316.429C279.058 315.769 278.611 314.93 278.43 314.017C278.249 313.103 278.343 312.157 278.7 311.297C279.056 310.437 279.66 309.702 280.434 309.185C281.209 308.668 282.119 308.392 283.05 308.392C283.669 308.392 284.283 308.514 284.855 308.751C285.427 308.988 285.947 309.336 286.384 309.775C286.822 310.213 287.168 310.733 287.404 311.306C287.64 311.879 287.761 312.492 287.76 313.112Z" fill="#EDEDED"/>
<path d="M283.05 315.442C282.657 315.445 282.27 315.347 281.926 315.159C281.581 314.97 281.291 314.696 281.082 314.363C280.874 314.03 280.754 313.649 280.734 313.257C280.715 312.865 280.796 312.474 280.97 312.122L287.48 298.812C287.596 298.516 287.772 298.247 287.997 298.022C288.222 297.797 288.491 297.621 288.787 297.504C289.083 297.388 289.4 297.334 289.717 297.346C290.035 297.358 290.347 297.435 290.634 297.574C290.92 297.712 291.175 297.907 291.382 298.149C291.59 298.39 291.745 298.671 291.839 298.975C291.932 299.279 291.962 299.599 291.926 299.915C291.89 300.231 291.789 300.536 291.63 300.812L285.12 314.122C284.935 314.515 284.642 314.847 284.276 315.081C283.91 315.315 283.485 315.44 283.05 315.442Z" fill="#C1C1C1"/>
</svg>
