<svg width="368" height="319" viewBox="0 0 368 319" fill="none" xmlns="http://www.w3.org/2000/svg">
<g opacity="0.3">
<g style="mix-blend-mode:multiply" opacity="0.5">
<g style="mix-blend-mode:multiply" opacity="0.5">
<path d="M218.696 73.5744L218.646 54.6521L218.594 35.7238L213.701 27.0331V26.1089C213.7 25.8392 213.646 25.5723 213.542 25.3235C213.438 25.0747 213.286 24.8489 213.094 24.659C212.902 24.4691 212.675 24.3189 212.425 24.217C212.175 24.1151 211.907 24.0634 211.637 24.065L202.569 24.0889H201.926C201.709 24.0895 201.495 24.1325 201.296 24.2157C201.096 24.2988 200.915 24.4204 200.763 24.5735C200.61 24.7266 200.489 24.9082 200.407 25.1079C200.325 25.3077 200.283 25.5217 200.283 25.7376V27.063L194.463 35.7816L194.563 73.6363L208.948 73.5983L218.696 73.5744Z" fill="white"/>
</g>
</g>
<g style="mix-blend-mode:multiply" opacity="0.5">
<g style="mix-blend-mode:multiply" opacity="0.5">
<path d="M251.757 73.5745L251.707 54.6522L251.657 35.7239L246.764 27.0332V26.111C246.763 25.5682 246.545 25.0483 246.16 24.6654C245.775 24.2825 245.254 24.068 244.71 24.0691L235.64 24.093H234.996C234.78 24.0936 234.567 24.1366 234.367 24.2198C234.168 24.303 233.987 24.4246 233.834 24.5777C233.682 24.7308 233.561 24.9125 233.479 25.1122C233.397 25.3119 233.355 25.5259 233.356 25.7418V27.0671L227.538 35.7858L227.638 73.6404L242.023 73.6025L251.757 73.5745Z" fill="white"/>
</g>
</g>
<g style="mix-blend-mode:multiply" opacity="0.5">
<g style="mix-blend-mode:multiply" opacity="0.5">
<path d="M284.82 73.5744L284.76 54.652L284.71 35.7237L279.817 27.033V26.1089C279.816 25.5666 279.599 25.047 279.215 24.6639C278.831 24.2809 278.31 24.0655 277.767 24.0649L268.699 24.0889H268.056C267.839 24.0894 267.625 24.1325 267.426 24.2156C267.226 24.2988 267.045 24.4203 266.893 24.5734C266.74 24.7265 266.619 24.9082 266.537 25.1079C266.455 25.3076 266.413 25.5216 266.413 25.7376V27.063L260.594 35.7816L260.693 73.6362L275.078 73.5983L284.82 73.5744Z" fill="white"/>
</g>
</g>
<g style="mix-blend-mode:multiply" opacity="0.5">
<g style="mix-blend-mode:multiply" opacity="0.5">
<path d="M317.881 73.5746L317.831 54.6522L317.781 35.7239L312.886 27.0332V26.1091C312.885 25.5663 312.667 25.0463 312.282 24.6634C311.897 24.2806 311.376 24.0661 310.832 24.0671L301.762 24.0911H301.119C300.902 24.0916 300.688 24.1347 300.489 24.2178C300.289 24.301 300.108 24.4225 299.956 24.5756C299.803 24.7287 299.682 24.9103 299.6 25.1101C299.518 25.3098 299.476 25.5238 299.476 25.7398V27.0652L293.658 35.7838L293.758 73.6384L308.143 73.6005L317.881 73.5746Z" fill="white"/>
</g>
</g>
<g style="mix-blend-mode:multiply" opacity="0.5">
<g style="mix-blend-mode:multiply" opacity="0.5">
<path d="M146.826 73.6386H138.914V37.6064H120.202V73.6386H96.4071V37.6064H77.6949V73.6386H72.822V37.6064H54.1078V73.6386H49.0851V37.6064H30.3729V73.6386H25.5V37.6064H6.78583V73.6386H3.69111V31.6682H0.694275V283.996H3.69111V225.712H146.826V261.528H128.211V244.7H129.832V241.133H94.7608V244.7H96.3811V261.538H88.7891V244.7H90.4094V241.133H55.3325V244.7H56.9528V261.538H49.3608V244.7H50.9811V241.133H15.9102V244.7H17.5305V261.538H3.69111V283.996H149.823V31.6682H146.826V73.6386ZM37.2676 220.067H35.3037V221.73H29.31V220.067H27.3461V193.947H29.31V192.282H35.3037V193.947H37.2676V220.067ZM65.9013 220.067H63.9374V221.73H57.9437V220.067H55.9798V193.947H57.9437V192.282H63.9374V193.947H65.9013V220.067ZM94.5351 220.067H92.5631V221.73H86.5695V220.067H84.6055V193.947H86.5695V192.282H92.5631V193.947H94.5271L94.5351 220.067ZM123.169 220.067H121.205V221.73H115.211V220.067H113.247V193.947H115.211V192.282H121.205V193.947H123.169V220.067ZM146.826 221.73H143.845V220.067H141.881V193.947H143.845V192.282H127.63V190.62H125.666V164.5H127.63V162.837H104.99V164.502H106.948V190.62H104.984V192.282H99.5557V190.62H97.5938V164.5H99.5557V162.837H76.9237V164.502H78.8856V190.62H76.9237V192.282H71.4954V190.62H69.5315V164.5H71.4954V162.837H48.8553V164.502H50.8193V190.62H48.8553V192.282H43.4271V190.62H41.4632V164.5H43.4271V162.837H20.787V164.502H22.7509V190.62H20.787V192.282H6.66994V193.947H8.63388V220.067H6.66994V221.73H3.69111V151.669H146.826V221.73ZM146.826 147.677H137.945V146.494H138.231C138.967 146.493 139.672 146.2 140.193 145.68C140.713 145.159 141.005 144.454 141.006 143.719C141.006 143.699 141.002 143.678 140.994 143.66C140.986 143.641 140.975 143.624 140.96 143.61C140.945 143.596 140.927 143.585 140.908 143.578C140.889 143.571 140.868 143.568 140.848 143.569C140.86 143.344 140.848 144.839 140.848 128.232C140.848 128.064 140.815 127.897 140.749 127.742C140.684 127.587 140.589 127.446 140.469 127.329C140.348 127.211 140.206 127.118 140.05 127.056C139.893 126.994 139.726 126.963 139.557 126.966C139.557 126.926 139.541 126.888 139.513 126.859C139.484 126.831 139.446 126.815 139.406 126.815H137.937V126.152H140.093V121.781C140.093 121.741 140.077 121.702 140.048 121.674C140.02 121.645 139.981 121.629 139.941 121.629C139.901 121.629 139.862 121.645 139.834 121.674C139.805 121.702 139.789 121.741 139.789 121.781H119.716V125.857C119.676 125.857 119.638 125.873 119.609 125.901C119.581 125.93 119.565 125.968 119.565 126.008C119.565 126.049 119.581 126.087 119.609 126.116C119.638 126.144 119.676 126.16 119.716 126.16H121.714V126.823H120.244C119.82 126.823 119.413 126.991 119.114 127.29C118.814 127.59 118.646 127.996 118.646 128.42V143.733C118.647 144.469 118.939 145.174 119.46 145.694C119.981 146.214 120.686 146.506 121.423 146.508H121.708V147.691H109.965V146.508H110.25C110.987 146.506 111.692 146.214 112.213 145.694C112.734 145.174 113.026 144.469 113.027 143.733C113.027 143.713 113.023 143.692 113.015 143.674C113.006 143.655 112.994 143.638 112.98 143.624C112.965 143.61 112.947 143.599 112.928 143.592C112.909 143.585 112.888 143.582 112.868 143.583C112.88 143.36 112.868 144.861 112.868 128.246C112.868 128.078 112.834 127.911 112.769 127.756C112.704 127.601 112.608 127.46 112.488 127.342C112.368 127.225 112.226 127.132 112.069 127.07C111.913 127.008 111.745 126.977 111.577 126.98C111.577 126.94 111.561 126.902 111.533 126.873C111.504 126.845 111.465 126.829 111.425 126.829H109.957V126.166H112.142V121.781C112.142 121.741 112.126 121.702 112.098 121.674C112.069 121.645 112.031 121.629 111.991 121.629C111.95 121.629 111.912 121.645 111.883 121.674C111.855 121.702 111.839 121.741 111.839 121.781H91.748V125.857C91.7077 125.857 91.6691 125.873 91.6406 125.901C91.6121 125.93 91.5961 125.968 91.5961 126.008C91.5961 126.049 91.6121 126.087 91.6406 126.116C91.6691 126.144 91.7077 126.16 91.748 126.16H93.7459V126.823H92.2774C91.8535 126.823 91.447 126.991 91.1472 127.29C90.8475 127.59 90.6791 127.996 90.6791 128.42V143.733C90.6797 144.468 90.9721 145.173 91.4924 145.694C92.0126 146.214 92.7182 146.506 93.4542 146.508H93.7618V147.691H82.0183V146.508H82.3059C83.042 146.506 83.7475 146.214 84.2678 145.694C84.788 145.173 85.0805 144.468 85.081 143.733C85.0811 143.713 85.0769 143.692 85.0687 143.673C85.0606 143.655 85.0487 143.638 85.0337 143.624C85.0187 143.609 85.001 143.599 84.9816 143.592C84.9623 143.585 84.9417 143.582 84.9212 143.583C84.9332 143.36 84.9212 144.861 84.9212 128.246C84.9212 128.078 84.8877 127.911 84.8225 127.756C84.7574 127.601 84.6619 127.46 84.5418 127.342C84.4216 127.225 84.2791 127.132 84.1227 127.07C83.9662 127.008 83.7989 126.977 83.6306 126.98C83.6308 126.961 83.6272 126.941 83.6197 126.923C83.6123 126.904 83.6013 126.887 83.5874 126.873C83.5735 126.859 83.5568 126.848 83.5385 126.84C83.5202 126.833 83.5006 126.829 83.4807 126.829H82.0103V126.166H84.172V121.781C84.1677 121.744 84.15 121.71 84.1222 121.685C84.0944 121.66 84.0584 121.646 84.0212 121.646C83.9839 121.646 83.9479 121.66 83.9201 121.685C83.8923 121.71 83.8746 121.744 83.8703 121.781H63.7796V125.857C63.7393 125.857 63.7007 125.873 63.6722 125.901C63.6437 125.93 63.6277 125.968 63.6277 126.008C63.6277 126.049 63.6437 126.087 63.6722 126.116C63.7007 126.144 63.7393 126.16 63.7796 126.16H65.7775V126.823H64.309C63.8851 126.823 63.4786 126.991 63.1788 127.29C62.8791 127.59 62.7107 127.996 62.7107 128.42V143.733C62.7112 144.468 63.0037 145.173 63.524 145.694C64.0442 146.214 64.7497 146.506 65.4857 146.508H65.7914V147.691H54.0498V146.508H54.3355C55.0716 146.506 55.7771 146.214 56.2973 145.694C56.8176 145.173 57.1101 144.468 57.1106 143.733C57.1109 143.713 57.107 143.692 57.0991 143.673C57.0912 143.655 57.0794 143.638 57.0646 143.624C57.0497 143.61 57.0321 143.599 57.0129 143.592C56.9937 143.585 56.9732 143.582 56.9528 143.583C56.9648 143.36 56.9528 144.827 56.9528 128.246C56.9528 128.078 56.9193 127.911 56.8541 127.756C56.789 127.601 56.6935 127.46 56.5733 127.342C56.4532 127.225 56.3107 127.132 56.1542 127.07C55.9978 127.008 55.8305 126.977 55.6622 126.98C55.6622 126.94 55.6461 126.902 55.6177 126.873C55.5892 126.845 55.5506 126.829 55.5103 126.829H54.0418V126.166H56.2016V121.781C56.2018 121.761 56.1982 121.741 56.1907 121.723C56.1833 121.705 56.1722 121.688 56.1583 121.674C56.1443 121.66 56.1277 121.649 56.1094 121.642C56.0911 121.634 56.0715 121.631 56.0517 121.631C56.0319 121.631 56.0122 121.634 55.9938 121.642C55.9754 121.649 55.9586 121.66 55.9445 121.674C55.9303 121.688 55.9191 121.705 55.9115 121.723C55.9038 121.741 55.8999 121.761 55.8999 121.781H35.8231V125.857C35.7828 125.857 35.7442 125.873 35.7158 125.901C35.6873 125.93 35.6713 125.968 35.6713 126.008C35.6713 126.049 35.6873 126.087 35.7158 126.116C35.7442 126.144 35.7828 126.16 35.8231 126.16H37.821V126.823H36.3506C35.9267 126.823 35.5201 126.991 35.2204 127.29C34.9206 127.59 34.7523 127.996 34.7523 128.42V143.733C34.7528 144.468 35.0453 145.173 35.5655 145.694C36.0858 146.214 36.7913 146.506 37.5273 146.508H37.821V147.691H26.0734V146.508H26.3591C27.0953 146.506 27.8011 146.214 28.3216 145.694C28.8422 145.174 29.1351 144.469 29.1362 143.733C29.136 143.713 29.1316 143.692 29.1233 143.674C29.1151 143.655 29.1031 143.638 29.0882 143.624C29.0733 143.61 29.0557 143.599 29.0364 143.592C29.0172 143.585 28.9968 143.582 28.9764 143.583C28.9883 143.362 28.9764 144.839 28.9764 128.246C28.9764 128.078 28.9429 127.911 28.8777 127.756C28.8126 127.601 28.7171 127.46 28.5969 127.342C28.4768 127.225 28.3343 127.132 28.1778 127.07C28.0214 127.008 27.8541 126.977 27.6857 126.98C27.6857 126.94 27.6697 126.902 27.6412 126.873C27.6128 126.845 27.5742 126.829 27.5339 126.829H26.0654V126.166H28.2311V121.781C28.2311 121.741 28.2151 121.702 28.1867 121.674C28.1582 121.645 28.1196 121.629 28.0793 121.629C28.039 121.629 28.0004 121.645 27.9719 121.674C27.9435 121.702 27.9275 121.741 27.9275 121.781H7.8527V125.857C7.81243 125.857 7.77381 125.873 7.74534 125.901C7.71686 125.93 7.70086 125.968 7.70086 126.008C7.70086 126.049 7.71686 126.087 7.74534 126.116C7.77381 126.144 7.81243 126.16 7.8527 126.16H9.85058V126.823H8.38214C7.95824 126.823 7.55171 126.991 7.25196 127.29C6.95222 127.59 6.78383 127.996 6.78383 128.42V143.733C6.78489 144.469 7.0778 145.174 7.59838 145.694C8.11895 146.214 8.8247 146.506 9.5609 146.508H9.85058V147.691H3.69311V77.6307H146.826V147.677Z" fill="white"/>
</g>
</g>
<g style="mix-blend-mode:multiply" opacity="0.5">
<g style="mix-blend-mode:multiply" opacity="0.5">
<path d="M332.408 31.6682V73.6386H189.273V31.6682H186.276V283.996H335.404V31.6682H332.408ZM332.408 261.538H189.273V225.722H332.408V261.538ZM332.408 221.73H330.078V185.697H311.366V221.73H306.011V185.697H287.299V221.73H281.945V185.697H263.233V221.73H258.36V185.697H239.646V221.73H234.623V185.697H215.911V221.73H211.038V185.697H192.324V221.73H189.273V151.669H332.408V221.73ZM222.074 119.901V146.021H220.11V147.685H214.117V146.021H212.153V119.901H214.117V118.238H220.11V119.901H222.074ZM250.708 119.901V146.021H248.744V147.685H242.75V146.021H240.786V119.901H242.75V118.238H248.744V119.901H250.708ZM279.342 119.901V146.021H277.378V147.685H271.384V146.021H269.42V119.901H271.384V118.238H277.378V119.901H279.342ZM307.975 119.901V146.021H306.011V147.685H300.018V146.021H298.054V119.901H300.018V118.238H306.011V119.901H307.975ZM332.408 147.685H328.651V146.021H326.688V119.901H328.651V118.238H312.437V116.573H310.473V90.4532H312.437V88.7845H289.797V90.4472H291.753V116.573H289.789V118.238H284.36V116.573H282.398V90.4532H284.36V88.7845H261.73V90.4472H263.692V116.573H261.73V118.238H256.302V116.573H254.338V90.4532H256.302V88.7845H233.662V90.4472H235.626V116.573H233.662V118.238H228.234V116.573H226.27V90.4532H228.234V88.7845H205.594V90.4472H207.558V116.573H205.594V118.238H191.477V119.901H193.44V146.021H191.477V147.685H189.279V77.6247H332.414L332.408 147.685Z" fill="white"/>
</g>
</g>
<g style="mix-blend-mode:multiply" opacity="0.5">
<g style="mix-blend-mode:multiply" opacity="0.5">
<path d="M40.2185 120.447H40.5042C41.2403 120.446 41.9458 120.153 42.466 119.633C42.9863 119.113 43.2788 118.408 43.2793 117.672C43.2793 117.652 43.2752 117.632 43.2672 117.613C43.2591 117.595 43.2474 117.578 43.2326 117.564C43.2179 117.55 43.2004 117.539 43.1813 117.532C43.1622 117.525 43.1418 117.522 43.1215 117.523C43.1335 117.299 43.1215 118.668 43.1215 102.185C43.1215 102.017 43.088 101.85 43.0228 101.695C42.9577 101.54 42.8623 101.399 42.7421 101.281C42.622 101.163 42.4795 101.07 42.3231 101.008C42.1666 100.946 41.9993 100.915 41.8308 100.918C41.8303 100.878 41.8141 100.84 41.7857 100.812C41.7572 100.784 41.7189 100.768 41.679 100.768H40.2185V100.105H42.3743V95.7262C42.3743 95.6859 42.3583 95.6473 42.3298 95.6189C42.3013 95.5904 42.2627 95.5745 42.2224 95.5745C42.1822 95.5745 42.1435 95.5904 42.115 95.6189C42.0866 95.6473 42.0706 95.6859 42.0706 95.7262H21.9918V99.802C21.9515 99.802 21.9129 99.818 21.8844 99.8465C21.8559 99.8749 21.84 99.9135 21.84 99.9537C21.84 99.994 21.8559 100.033 21.8844 100.061C21.9129 100.089 21.9515 100.105 21.9918 100.105H23.9897V100.76H22.5192C22.0953 100.76 21.6888 100.928 21.3891 101.228C21.0893 101.527 20.9209 101.933 20.9209 102.357V117.67C20.9215 118.406 21.2139 119.111 21.7342 119.631C22.2544 120.151 22.96 120.444 23.696 120.445H23.9837V121.629H40.2185V120.447Z" fill="white"/>
</g>
</g>
<g style="mix-blend-mode:multiply" opacity="0.5">
<g style="mix-blend-mode:multiply" opacity="0.5">
<path d="M68.2868 120.447H68.5745C69.3105 120.446 70.016 120.153 70.5363 119.633C71.0565 119.113 71.349 118.408 71.3496 117.673C71.3496 117.652 71.3454 117.632 71.3373 117.613C71.3291 117.594 71.3172 117.577 71.3022 117.563C71.2872 117.549 71.2695 117.538 71.2501 117.531C71.2308 117.525 71.2102 117.522 71.1897 117.523C71.2017 117.301 71.1897 118.745 71.1897 102.186C71.19 102.017 71.1567 101.85 71.0916 101.695C71.0266 101.54 70.9312 101.399 70.811 101.281C70.6908 101.163 70.5482 101.07 70.3916 101.008C70.235 100.945 70.0676 100.915 69.8991 100.918C69.8991 100.878 69.8833 100.84 69.8552 100.812C69.8271 100.784 69.789 100.768 69.7492 100.768H68.2788V100.106H70.4345V95.7264C70.437 95.7052 70.4349 95.6837 70.4284 95.6633C70.422 95.6429 70.4113 95.6241 70.397 95.6081C70.3828 95.5922 70.3653 95.5794 70.3458 95.5706C70.3262 95.5619 70.3051 95.5574 70.2837 95.5574C70.2623 95.5574 70.2411 95.5619 70.2216 95.5706C70.202 95.5794 70.1846 95.5922 70.1703 95.6081C70.1561 95.6241 70.1454 95.6429 70.1389 95.6633C70.1325 95.6837 70.1304 95.7052 70.1328 95.7264H50.0581V99.8023C50.0178 99.8023 49.9792 99.8183 49.9507 99.8468C49.9222 99.8752 49.9062 99.9138 49.9062 99.954C49.9062 99.9943 49.9222 100.033 49.9507 100.061C49.9792 100.09 50.0178 100.106 50.0581 100.106H52.056V100.76H50.5855C50.1616 100.76 49.7551 100.929 49.4553 101.228C49.1556 101.528 48.9872 101.934 48.9872 102.357V117.671C48.9877 118.406 49.2802 119.111 49.8005 119.631C50.3207 120.151 51.0263 120.444 51.7623 120.445H52.05V121.629H68.2728L68.2868 120.447Z" fill="white"/>
</g>
</g>
<g style="mix-blend-mode:multiply" opacity="0.5">
<g style="mix-blend-mode:multiply" opacity="0.5">
<path d="M96.3591 120.447H96.6448C97.381 120.446 98.0868 120.153 98.6074 119.633C99.1279 119.113 99.4209 118.408 99.4219 117.672C99.422 117.652 99.4178 117.632 99.4096 117.613C99.4015 117.594 99.3896 117.577 99.3746 117.563C99.3596 117.549 99.3418 117.538 99.3225 117.531C99.3031 117.524 99.2826 117.521 99.2621 117.523C99.2741 117.295 99.2621 118.788 99.2621 102.185C99.2624 102.017 99.229 101.85 99.164 101.695C99.099 101.539 99.0036 101.399 98.8834 101.281C98.7632 101.163 98.6206 101.07 98.464 101.007C98.3074 100.945 98.14 100.915 97.9715 100.918C97.9709 100.878 97.9547 100.84 97.9263 100.812C97.8979 100.784 97.8595 100.768 97.8196 100.768H96.3591V100.105H98.5149V95.7262C98.5149 95.7062 98.5109 95.6865 98.5033 95.6681C98.4957 95.6497 98.4845 95.633 98.4704 95.6189C98.4563 95.6048 98.4395 95.5936 98.4211 95.586C98.4027 95.5784 98.383 95.5745 98.363 95.5745C98.3432 95.5745 98.3235 95.5784 98.3052 95.586C98.2869 95.5937 98.2703 95.6049 98.2564 95.619C98.2424 95.6331 98.2314 95.6499 98.224 95.6683C98.2166 95.6867 98.2129 95.7063 98.2132 95.7262H78.1264V99.802C78.0862 99.802 78.0476 99.818 78.0191 99.8465C77.9906 99.8749 77.9746 99.9135 77.9746 99.9537C77.9746 99.994 77.9906 100.033 78.0191 100.061C78.0476 100.089 78.0862 100.105 78.1264 100.105H80.1243V100.76H78.6559C78.232 100.76 77.8255 100.928 77.5257 101.228C77.226 101.527 77.0576 101.933 77.0576 102.357V117.67C77.0581 118.406 77.3506 119.111 77.8709 119.631C78.3911 120.151 79.0966 120.444 79.8326 120.445H80.1183V121.629H96.3591V120.447Z" fill="white"/>
</g>
</g>
<g style="mix-blend-mode:multiply" opacity="0.5">
<g style="mix-blend-mode:multiply" opacity="0.5">
<path d="M124.423 120.447H124.709C125.445 120.446 126.151 120.153 126.671 119.633C127.191 119.113 127.484 118.408 127.484 117.672C127.484 117.652 127.48 117.632 127.472 117.613C127.464 117.595 127.452 117.578 127.438 117.564C127.423 117.55 127.405 117.539 127.386 117.532C127.367 117.525 127.347 117.522 127.326 117.523C127.338 117.295 127.326 118.788 127.326 102.185C127.326 102.017 127.293 101.85 127.228 101.695C127.163 101.54 127.067 101.399 126.947 101.281C126.827 101.163 126.684 101.07 126.528 101.008C126.372 100.946 126.204 100.915 126.036 100.918C126.035 100.878 126.019 100.84 125.991 100.812C125.962 100.784 125.924 100.768 125.884 100.768H124.415V100.105H126.571V95.7262C126.571 95.6859 126.555 95.6473 126.527 95.6189C126.498 95.5904 126.46 95.5745 126.419 95.5745C126.379 95.5745 126.34 95.5904 126.312 95.6189C126.283 95.6473 126.267 95.6859 126.267 95.7262H106.195V99.802C106.154 99.802 106.116 99.818 106.087 99.8465C106.059 99.8749 106.043 99.9135 106.043 99.9537C106.043 99.994 106.059 100.033 106.087 100.061C106.116 100.089 106.154 100.105 106.195 100.105H108.193V100.76H106.722C106.298 100.76 105.892 100.928 105.592 101.228C105.292 101.527 105.124 101.933 105.124 102.357V117.67C105.125 118.406 105.418 119.111 105.938 119.631C106.459 120.151 107.165 120.444 107.901 120.445H108.187V121.629H124.411L124.423 120.447Z" fill="white"/>
</g>
</g>
<g opacity="0.5">
<path opacity="0.5" d="M17.962 140.763C20.5528 140.763 22.653 138.665 22.653 136.077C22.653 133.488 20.5528 131.39 17.962 131.39C15.3712 131.39 13.271 133.488 13.271 136.077C13.271 138.665 15.3712 140.763 17.962 140.763Z" fill="white"/>
<path opacity="0.5" d="M45.9305 140.763C48.5213 140.763 50.6215 138.665 50.6215 136.077C50.6215 133.488 48.5213 131.39 45.9305 131.39C43.3397 131.39 41.2394 133.488 41.2394 136.077C41.2394 138.665 43.3397 140.763 45.9305 140.763Z" fill="white"/>
<path opacity="0.5" d="M73.8969 140.763C76.4877 140.763 78.5879 138.665 78.5879 136.077C78.5879 133.488 76.4877 131.39 73.8969 131.39C71.3061 131.39 69.2059 133.488 69.2059 136.077C69.2059 138.665 71.3061 140.763 73.8969 140.763Z" fill="white"/>
<path opacity="0.5" d="M101.865 140.763C104.456 140.763 106.556 138.665 106.556 136.077C106.556 133.488 104.456 131.39 101.865 131.39C99.2745 131.39 97.1743 133.488 97.1743 136.077C97.1743 138.665 99.2745 140.763 101.865 140.763Z" fill="white"/>
<path opacity="0.5" d="M129.834 140.763C132.425 140.763 134.525 138.665 134.525 136.077C134.525 133.488 132.425 131.39 129.834 131.39C127.243 131.39 125.143 133.488 125.143 136.077C125.143 138.665 127.243 140.763 129.834 140.763Z" fill="white"/>
<path opacity="0.5" d="M36.6887 111.193C37.2781 108.672 35.7107 106.152 33.1879 105.563C30.665 104.974 28.142 106.54 27.5526 109.06C26.9632 111.581 28.5306 114.101 31.0534 114.69C33.5763 115.279 36.0993 113.713 36.6887 111.193Z" fill="white"/>
<path opacity="0.5" d="M63.4914 113.434C65.3233 111.604 65.3233 108.637 63.4914 106.806C61.6594 104.976 58.6892 104.976 56.8573 106.806C55.0253 108.637 55.0253 111.604 56.8573 113.434C58.6892 115.265 61.6594 115.265 63.4914 113.434Z" fill="white"/>
<path opacity="0.5" d="M91.56 113.434C93.3919 111.603 93.392 108.636 91.56 106.806C89.7281 104.975 86.7578 104.975 84.9259 106.806C83.0939 108.636 83.0939 111.603 84.9259 113.434C86.7578 115.264 89.728 115.264 91.56 113.434Z" fill="white"/>
<path opacity="0.5" d="M119.627 113.435C121.459 111.605 121.459 108.637 119.627 106.807C117.795 104.977 114.825 104.977 112.993 106.807C111.161 108.637 111.161 111.605 112.993 113.435C114.825 115.265 117.795 115.265 119.627 113.435Z" fill="white"/>
<path opacity="0.5" d="M25.5001 40.866H6.78784V44.9898H25.5001V40.866Z" fill="white"/>
<path opacity="0.5" d="M49.0851 40.866H30.3729V44.9898H49.0851V40.866Z" fill="white"/>
<path opacity="0.5" d="M72.6722 40.866H53.96V44.9898H72.6722V40.866Z" fill="white"/>
<path opacity="0.5" d="M96.2572 40.866H77.545V44.9898H96.2572V40.866Z" fill="white"/>
<path opacity="0.5" d="M25.5001 67.0098H6.78784V71.1336H25.5001V67.0098Z" fill="white"/>
<path opacity="0.5" d="M49.0851 67.0098H30.3729V71.1336H49.0851V67.0098Z" fill="white"/>
<path opacity="0.5" d="M72.6722 67.0098H53.96V71.1336H72.6722V67.0098Z" fill="white"/>
<path opacity="0.5" d="M138.904 40.866H120.192V44.9898H138.904V40.866Z" fill="white"/>
<path opacity="0.5" d="M138.904 67.0098H120.192V71.1336H138.904V67.0098Z" fill="white"/>
<path opacity="0.5" d="M96.2572 67.0098H77.545V71.1336H96.2572V67.0098Z" fill="white"/>
<path opacity="0.5" d="M208.094 204.752C208.662 201.254 206.285 197.959 202.785 197.391C199.284 196.824 195.986 199.198 195.418 202.696C194.849 206.193 197.227 209.488 200.727 210.056C204.228 210.624 207.526 208.249 208.094 204.752Z" fill="white"/>
<path opacity="0.5" d="M231.704 204.751C232.272 201.253 229.895 197.958 226.395 197.391C222.894 196.823 219.596 199.198 219.028 202.695C218.459 206.192 220.836 209.488 224.337 210.055C227.837 210.623 231.136 208.248 231.704 204.751Z" fill="white"/>
<path opacity="0.5" d="M255.179 205.174C255.993 201.725 253.856 198.27 250.404 197.456C246.953 196.642 243.494 198.778 242.68 202.226C241.865 205.675 244.003 209.13 247.454 209.944C250.906 210.757 254.364 208.622 255.179 205.174Z" fill="white"/>
<path opacity="0.5" d="M278.923 204.754C279.492 201.256 277.114 197.961 273.614 197.393C270.113 196.826 266.815 199.201 266.247 202.698C265.679 206.195 268.056 209.49 271.556 210.058C275.057 210.626 278.355 208.251 278.923 204.754Z" fill="white"/>
<path opacity="0.5" d="M300.71 208.25C303.218 205.745 303.218 201.683 300.71 199.177C298.202 196.672 294.137 196.672 291.629 199.177C289.121 201.683 289.121 205.745 291.629 208.25C294.137 210.755 298.202 210.755 300.71 208.25Z" fill="white"/>
<path opacity="0.5" d="M326.145 204.752C326.713 201.255 324.336 197.959 320.836 197.392C317.335 196.824 314.037 199.199 313.468 202.696C312.9 206.193 315.277 209.489 318.778 210.056C322.278 210.624 325.577 208.249 326.145 204.752Z" fill="white"/>
<path opacity="0.5" d="M212.153 126.687H193.44V138.396H212.153V126.687Z" fill="white"/>
<path opacity="0.5" d="M240.786 126.687H222.074V138.396H240.786V126.687Z" fill="white"/>
<path opacity="0.5" d="M269.42 126.687H250.708V138.396H269.42V126.687Z" fill="white"/>
<path opacity="0.5" d="M226.27 97.6589H207.558V109.368H226.27V97.6589Z" fill="white"/>
<path opacity="0.5" d="M254.338 97.6589H235.626V109.368H254.338V97.6589Z" fill="white"/>
<path opacity="0.5" d="M282.406 97.6589H263.694V109.368H282.406V97.6589Z" fill="white"/>
<path opacity="0.5" d="M310.473 97.6589H291.76V109.368H310.473V97.6589Z" fill="white"/>
<path opacity="0.5" d="M298.054 126.687H279.342V138.396H298.054V126.687Z" fill="white"/>
<path opacity="0.5" d="M326.688 126.687H307.975V138.396H326.688V126.687Z" fill="white"/>
</g>
</g>
<path opacity="0.5" d="M192.16 302.652C192.16 307.303 230.704 311.048 278.235 311.036C325.767 311.025 364.378 307.258 364.389 302.619C364.4 297.98 325.845 294.224 278.257 294.235C230.67 294.246 192.16 298.013 192.16 302.652Z" fill="#C7DAEA"/>
<path d="M304.315 158.213C304.248 149.84 304.035 146.106 303.555 136.582C303.555 136.582 275.217 136.515 254.011 136.515C253.393 143.764 253.147 151.04 253.273 158.314L304.315 158.213Z" fill="#0E263F"/>
<path d="M287.424 49.2546H271.137L254.671 55.2911L253.385 89.1065L252.267 128.657L255.397 131.675C255.397 131.675 254.849 133.195 254.011 136.515C253.173 139.835 304.516 140.204 303.555 136.582L302.202 131.485L306.07 128.064V55.9842L287.424 49.2546Z" fill="#06A6FF"/>
<path d="M313.817 152.243C312.885 153.558 312.193 155.026 311.771 156.581C311.369 158.593 308.552 159.23 307.568 159.867C306.584 160.504 308.686 161.824 310.922 160.985C312.125 160.64 313.234 160.025 314.163 159.185C315.672 157.766 321.899 162.327 325.968 164.484C328.315 165.736 330.439 162.416 330.898 160.102C331.479 157.509 329.065 156.659 327.69 155.742C324.627 153.697 323.464 153.507 322.57 151.562" fill="#FFA383"/>
<path d="M330.261 161.633C330.261 161.633 326.057 158.101 322.939 157.509L330.261 161.633Z" fill="#E5886E"/>
<path d="M241.223 152.009C242.279 153.372 243.092 154.907 243.626 156.547C244.151 158.682 247.203 159.252 248.299 159.901C249.394 160.549 247.181 162.036 244.744 161.198C243.435 160.885 242.216 160.277 241.178 159.42C239.479 157.967 232.984 163.098 228.714 165.591C226.232 167.022 223.862 163.567 223.191 161.119C222.454 158.381 225.025 157.363 226.456 156.313C229.664 153.999 230.927 153.797 231.777 151.629" fill="#FFA383"/>
<path d="M262.943 26.3607C263.278 28.82 265.178 31.95 267.012 31.0222C267.856 30.6558 268.551 30.0143 268.983 29.2022C269.415 28.3901 269.56 27.4554 269.393 26.5507C269.361 25.564 268.986 24.6193 268.334 23.8788C267.681 23.1383 266.79 22.6482 265.816 22.4929C263.714 22.0345 262.619 23.9014 262.943 26.3607Z" fill="#E5886E"/>
<path d="M263.524 23.2532C263.792 23.0732 264.098 22.9586 264.418 22.9188C264.738 22.8789 265.063 22.9148 265.366 23.0236C265.67 23.1324 265.943 23.311 266.165 23.5451C266.387 23.7791 266.551 24.0621 266.643 24.371L266.408 22.6272C265.938 22.4323 265.425 22.3667 264.921 22.4371C264.643 22.4627 264.374 22.549 264.132 22.69C263.891 22.831 263.683 23.0232 263.524 23.2532Z" fill="#FFA383"/>
<path d="M294.679 26.3607C294.344 28.82 292.443 31.95 290.621 31.0222C289.774 30.6593 289.075 30.0189 288.64 29.2061C288.206 28.3934 288.061 27.4569 288.229 26.5507C288.261 25.564 288.635 24.6193 289.288 23.8788C289.941 23.1383 290.831 22.6482 291.806 22.4929C293.908 22.0345 295.003 23.9014 294.679 26.3607Z" fill="#E5886E"/>
<path d="M294.098 23.2532C293.83 23.0732 293.524 22.9586 293.204 22.9188C292.884 22.8789 292.559 22.9148 292.256 23.0236C291.952 23.1324 291.678 23.311 291.457 23.5451C291.235 23.7791 291.071 24.0621 290.979 24.371L291.214 22.6272C291.683 22.4323 292.197 22.3667 292.7 22.4371C292.979 22.4627 293.248 22.549 293.49 22.69C293.731 22.831 293.939 23.0232 294.098 23.2532Z" fill="#FFA383"/>
<path d="M286.899 37.8076C286.138 40.4793 287.245 47.6784 287.424 49.2546L290.476 50.3724C290.476 53.4801 286.664 58.1975 281.879 59.4048C281.108 59.606 279.498 67.5987 279.498 67.5987C279.498 67.5987 278.146 59.6619 277.486 59.5613C272.21 58.7229 267.548 54.7768 267.548 50.6184L271.137 49.3105C271.137 49.3105 272.646 42.6033 271.707 38.1318L286.899 37.8076Z" fill="#FFA383"/>
<path d="M286.664 39.395C286.594 40.2543 286.594 41.1179 286.664 41.9773C286.664 41.9773 282.259 47.1753 279.118 47.1753C275.977 47.1753 271.975 42.3685 271.975 42.3685C271.975 42.3685 272.042 39.1491 271.897 37.8076L286.664 39.395Z" fill="#E5886E"/>
<path d="M266.408 21.2187C266.408 22.8467 266.729 24.4588 267.352 25.9628C267.975 27.4669 268.888 28.8336 270.039 29.9848C271.19 31.1359 272.557 32.0491 274.061 32.6721C275.565 33.2951 277.177 33.6158 278.805 33.6158C280.433 33.6158 282.045 33.2951 283.549 32.6721C285.054 32.0491 286.42 31.1359 287.571 29.9848C288.723 28.8336 289.636 27.4669 290.259 25.9628C290.882 24.4588 291.202 22.8467 291.202 21.2187C291.202 12.0298 285.613 7.61426 278.805 7.61426C271.997 7.61426 266.408 12.2758 266.408 21.2187Z" fill="#FFA383"/>
<path d="M266.408 21.2185C266.408 27.8474 266.408 33.4032 268.935 37.0028C270.466 39.1714 274.412 42.9051 277.274 43.8441C278.425 44.0454 279.607 43.9997 280.739 43.7099C283.579 42.7039 287.223 39.0708 288.676 37.0028C291.202 33.4032 291.202 27.8474 291.202 21.2185" fill="#FFA383"/>
<path d="M271.282 25.69C271.282 26.8078 271.953 27.7357 272.791 27.7357C273.63 27.7357 274.367 26.8078 274.367 25.69C274.367 24.5721 273.685 23.6443 272.847 23.6443C272.009 23.6443 271.282 24.5721 271.282 25.69Z" fill="#0E263F"/>
<path d="M283.008 25.69C283.008 26.8078 283.69 27.7357 284.529 27.7357C285.367 27.7357 286.038 26.819 286.038 25.69C286.038 24.5609 285.367 23.6443 284.529 23.6443C283.69 23.6443 283.008 24.5721 283.008 25.69Z" fill="#0E263F"/>
<path d="M274.759 21.2186C273.099 21.29 271.45 21.5069 269.829 21.8669C269.787 21.875 269.744 21.8748 269.702 21.8663C269.66 21.8577 269.621 21.8411 269.585 21.8172C269.55 21.7933 269.52 21.7627 269.496 21.7271C269.473 21.6915 269.457 21.6517 269.449 21.6098C269.259 20.6373 275.239 19.8548 275.038 20.9391C275.023 21.0153 274.983 21.0842 274.924 21.1349C274.866 21.1855 274.791 21.215 274.714 21.2186H274.759Z" fill="#0E263F"/>
<path d="M282.986 20.5589C284.749 20.2414 286.566 20.4838 288.184 21.252C288.266 21.2802 288.333 21.3396 288.37 21.4171C288.408 21.4947 288.414 21.5841 288.385 21.6656C288.357 21.7471 288.298 21.8142 288.22 21.8519C288.143 21.8896 288.053 21.895 287.972 21.8668C286.343 21.5079 284.686 21.2873 283.02 21.2073C282.934 21.2073 282.851 21.1731 282.79 21.1123C282.73 21.0515 282.695 20.9691 282.695 20.8831C282.695 20.7971 282.73 20.7147 282.79 20.6539C282.851 20.5931 282.934 20.5589 283.02 20.5589H282.986Z" fill="#0E263F"/>
<path d="M280.974 32.2965C279.558 31.9051 278.063 31.9051 276.648 32.2965C275.977 32.6989 278.079 33.2355 278.816 33.2355C279.554 33.2355 281.611 32.643 280.974 32.2965Z" fill="#E5886E"/>
<path d="M283.31 36.2652C280.243 36.8334 277.107 36.9314 274.01 36.5558C273.708 36.5558 273.585 36.5558 274.01 36.7458C275.504 37.2104 277.061 37.4441 278.626 37.4389C280.28 37.4215 281.914 37.0757 283.433 36.4217C283.69 36.2652 283.579 36.1981 283.31 36.2652Z" fill="#E5886E"/>
<path d="M278.839 12.9015C280.605 12.9015 282.081 12.1525 283.947 11.6942C287.301 10.8782 288.877 14.4442 288.877 14.4442C290.778 17.5742 290.375 27.389 290.398 27.9592C290.398 28.0659 290.44 28.1682 290.515 28.2437C290.591 28.3192 290.693 28.3616 290.8 28.3616C290.907 28.3616 291.009 28.3192 291.084 28.2437C291.16 28.1682 291.202 28.0659 291.202 27.9592C291.875 24.1851 292.267 20.3665 292.376 16.5346C292.208 11.2582 290.14 4.80817 283.612 6.10489C283.612 6.10489 279.923 3.01958 273.786 4.65166C267.649 6.28374 265.905 10.6434 265.402 15.7521C264.899 20.8607 266.52 26.5059 266.52 27.7915C266.52 28.5293 267.347 28.4398 267.347 27.7915C267.347 26.7407 267.034 16.4451 268.99 13.5275C271.282 10.0398 277.106 12.9015 278.839 12.9015Z" fill="#0E263F"/>
<path d="M306.07 55.9841C310.206 58.8235 314.052 66.0449 316.79 83.2712C318.713 95.333 324.839 125.75 325.074 142.362C325.074 143.043 323.9 144.161 323.956 144.798C323.956 148.677 323.956 151.383 323.889 152.311C323.643 155.027 312.822 153.507 312.822 150.857C312.822 150.064 312.632 147.75 312.319 144.485C312.319 143.792 311.436 143.424 311.358 142.652C309.793 126.7 303.231 88.324 303.231 88.324C303.231 88.324 299.229 70.6729 299.329 70.1698C299.43 69.6668 306.07 55.9841 306.07 55.9841Z" fill="#06A6FF"/>
<path d="M254.671 55.2913C242.464 59.8298 244.274 65.6986 239.848 83.2379C236.863 95.0761 230.972 124.599 230.044 141.143C230.044 141.825 231.162 142.999 231.162 143.636C230.949 147.504 230.849 150.209 230.905 151.137C231.039 153.876 241.905 153.261 242.016 150.612C242.016 149.807 242.329 147.504 242.777 144.262C242.877 143.569 243.716 143.234 243.816 142.474C246.052 126.6 253.43 89.0731 253.43 89.0731L257.845 76.173L254.671 55.2913Z" fill="#06A6FF"/>
<path d="M223.918 162.762C223.918 162.762 228.289 158.805 231.609 158.034L223.918 162.762Z" fill="#E5886E"/>
<path d="M223.136 160.863C224.68 159.4 226.446 158.189 228.367 157.274L223.136 160.863Z" fill="#E5886E"/>
<g style="mix-blend-mode:multiply">
<path d="M306.07 105.785L300.391 75.7256C300.391 75.7256 306.238 116.986 306.07 128.064V105.785Z" fill="#C1C1C1"/>
</g>
<g style="mix-blend-mode:multiply">
<path d="M253.385 89.1068L256.09 75.6924C256.09 75.6924 253.139 121.525 252.267 128.623L253.385 89.1068Z" fill="#C1C1C1"/>
</g>
<g style="mix-blend-mode:multiply" opacity="0.5">
<path d="M252.267 128.657C252.267 128.657 274.692 132.424 306.07 128.064L302.202 131.485C286.652 133.221 270.961 133.285 255.397 131.675L252.267 128.657Z" fill="#C1C1C1"/>
</g>
<g style="mix-blend-mode:multiply" opacity="0.5">
<path d="M311.313 142.652C311.313 142.652 321.977 143.692 325.074 142.362L323.956 144.799C323.956 144.799 312.699 143.066 311.313 142.652Z" fill="#C1C1C1"/>
</g>
<g style="mix-blend-mode:multiply" opacity="0.5">
<path d="M243.626 142.932C239.023 143.468 234.359 142.865 230.044 141.177L231.162 143.669C231.162 143.669 238.965 145.76 243.626 142.932Z" fill="#C1C1C1"/>
</g>
<path d="M287.089 46.6501L293.896 50.4844L287.916 65.9333L281.879 59.3826C281.879 59.3826 287.569 52.0494 287.089 46.6501Z" fill="#06A6FF"/>
<g style="mix-blend-mode:multiply">
<path d="M280.571 62.859L282.293 61.4952L287.882 67.5764L293.896 51.5909L293.516 51.4456L287.927 65.9778L281.891 59.4271C281.891 59.4271 281.432 59.4048 280.571 62.859Z" fill="#C1C1C1"/>
</g>
<path d="M271.684 46.6501L264.888 50.4844L270.868 65.9333L277.486 59.5391C277.486 59.5391 271.215 52.0494 271.684 46.6501Z" fill="#06A6FF"/>
<g style="mix-blend-mode:multiply">
<path d="M278.626 63.0825L276.961 61.1375L270.891 67.5764L264.888 51.5909L265.257 51.4456L270.846 65.9778L277.464 59.5836C277.464 59.5836 277.822 59.5165 278.626 63.0825Z" fill="#C1C1C1"/>
</g>
<path d="M265.223 81.2702C265.547 77.6818 264.463 57.605 260.573 53.0105C260.573 53.0105 262.619 51.2667 264.105 52.1833C265.592 53.1 269.013 63.362 269.002 77.1676C268.99 88.5027 265.223 81.2702 265.223 81.2702Z" fill="white"/>
<path d="M265.223 81.27C266.978 79.3138 292.7 79.5262 294.142 81.27C295.584 83.0139 297.295 107.518 298.737 122.855C298.804 123.469 298.893 124.23 299.027 125.09C299.229 126.51 299.519 128.254 299.866 130.266C302.973 148.04 311.044 186.64 311.234 201.116C311.391 217.448 250.982 214.654 249.998 201.843C249.014 189.032 258.348 138.516 260.852 119.87C262.786 105.528 263.189 83.5505 265.223 81.27Z" fill="white"/>
<path d="M294.142 81.2927C293.93 71.7685 295.663 59.1813 299.43 53.3461C299.43 53.3461 297.395 51.6022 295.909 52.53C294.422 53.4578 290.319 64.5918 290.062 76.4523C289.827 87.7651 294.142 81.2927 294.142 81.2927Z" fill="white"/>
<g style="mix-blend-mode:multiply" opacity="0.3">
<path d="M269.371 85.9876C269.371 86.3413 269.266 86.6871 269.069 86.9813C268.873 87.2754 268.593 87.5046 268.266 87.64C267.94 87.7754 267.58 87.8108 267.233 87.7418C266.886 87.6728 266.567 87.5024 266.317 87.2523C266.067 87.0021 265.897 86.6835 265.828 86.3365C265.759 85.9896 265.794 85.6299 265.929 85.3031C266.065 84.9763 266.294 84.6969 266.588 84.5004C266.882 84.3039 267.228 84.199 267.582 84.199C268.056 84.199 268.511 84.3874 268.847 84.7228C269.182 85.0583 269.371 85.5132 269.371 85.9876Z" fill="#C1C1C1"/>
</g>
<g style="mix-blend-mode:multiply" opacity="0.3">
<path d="M292.745 85.9875C292.71 86.436 292.506 86.8546 292.176 87.1599C291.845 87.4652 291.412 87.6348 290.962 87.6348C290.512 87.6348 290.079 87.4652 289.748 87.1599C289.418 86.8546 289.215 86.436 289.179 85.9875C289.16 85.7415 289.191 85.4941 289.272 85.2609C289.353 85.0277 289.481 84.8137 289.648 84.6325C289.816 84.4512 290.019 84.3065 290.245 84.2076C290.471 84.1087 290.715 84.0576 290.962 84.0576C291.209 84.0576 291.453 84.1087 291.679 84.2076C291.905 84.3065 292.108 84.4512 292.276 84.6325C292.443 84.8137 292.571 85.0277 292.652 85.2609C292.733 85.4941 292.765 85.7415 292.745 85.9875Z" fill="#C1C1C1"/>
</g>
<path d="M295.797 140.193C295.738 140.205 295.677 140.205 295.618 140.193C295.508 140.146 295.42 140.058 295.374 139.947C295.328 139.836 295.327 139.712 295.372 139.6C296.896 135.708 299.78 132.499 303.488 130.568C303.541 130.54 303.599 130.523 303.659 130.519C303.719 130.514 303.779 130.522 303.836 130.542C303.893 130.562 303.945 130.594 303.989 130.635C304.032 130.676 304.068 130.725 304.091 130.78C304.119 130.833 304.136 130.89 304.14 130.949C304.145 131.009 304.136 131.068 304.116 131.124C304.096 131.18 304.065 131.23 304.024 131.273C303.983 131.316 303.934 131.35 303.879 131.373C300.376 133.218 297.654 136.261 296.21 139.947C296.173 140.024 296.114 140.088 296.041 140.132C295.967 140.176 295.882 140.197 295.797 140.193Z" fill="white"/>
<path d="M259.835 139.712C259.714 139.709 259.6 139.66 259.514 139.575C259.429 139.489 259.38 139.374 259.377 139.254C259.377 137.957 256.414 132.815 254.358 132.099C254.302 132.08 254.25 132.05 254.206 132.011C254.162 131.972 254.126 131.925 254.1 131.872C254.074 131.819 254.059 131.762 254.055 131.703C254.051 131.644 254.059 131.585 254.078 131.529C254.097 131.473 254.127 131.422 254.166 131.378C254.205 131.333 254.252 131.297 254.305 131.271C254.358 131.245 254.416 131.23 254.475 131.226C254.534 131.223 254.592 131.231 254.648 131.25C256.973 132.055 260.305 137.454 260.238 139.254C260.241 139.367 260.201 139.477 260.127 139.562C260.052 139.647 259.948 139.701 259.835 139.712Z" fill="white"/>
<path d="M266.162 11.6832C266.992 7.98237 268.344 4.4181 270.175 1.09699C271.059 -0.322693 286.675 -0.479192 287.916 1.30939C289.157 3.09798 291.504 8.85497 291.46 11.2584C291.46 11.2584 280.952 3.90284 266.162 11.6832Z" fill="#06A6FF"/>
<g style="mix-blend-mode:multiply" opacity="0.3">
<path d="M290.621 91.6443C290.621 91.6443 290.878 107.831 288.005 109.139C285.132 110.447 272.478 110.402 270.544 109.251C268.309 107.898 267.705 96.4399 267.705 91.7449L290.621 91.6443Z" fill="#C1C1C1"/>
</g>
<path d="M288.33 164.305C288.33 164.305 283.858 160.818 281.142 160.337L288.33 164.305Z" fill="#E5886E"/>
<path d="M354.552 97.9039C354.549 99.5159 353.907 101.061 352.767 102.201C351.628 103.341 350.082 103.982 348.471 103.985H309.278C307.666 103.982 306.121 103.341 304.981 102.201C303.842 101.061 303.2 99.5159 303.197 97.9039C303.2 96.292 303.842 94.747 304.981 93.6071C306.121 92.4673 307.666 91.8257 309.278 91.8228H348.471C350.082 91.8257 351.628 92.4673 352.767 93.6071C353.907 94.747 354.549 96.292 354.552 97.9039Z" fill="#EDEDED"/>
<path d="M355.379 97.904C355.367 99.5149 354.717 101.055 353.57 102.187C352.424 103.319 350.875 103.949 349.264 103.94H313.493C311.881 103.937 310.336 103.296 309.196 102.156C308.056 101.016 307.414 99.4712 307.411 97.8593C307.414 96.2473 308.056 94.7023 309.196 93.5625C310.336 92.4227 311.881 91.781 313.493 91.7781H349.264C350.875 91.781 352.419 92.423 353.557 93.5632C354.695 94.7033 355.334 96.2484 355.334 97.8593L355.379 97.904Z" fill="#DCDEE2"/>
<path d="M349.309 95.657H324.481V100.441H349.309V95.657Z" fill="#06A6FF"/>
<g style="mix-blend-mode:multiply" opacity="0.5">
<path d="M349.309 95.657H324.481V96.3165H349.309V95.657Z" fill="#C1C1C1"/>
</g>
<g style="mix-blend-mode:multiply" opacity="0.5">
<path d="M349.309 100.442H324.481V101.101H349.309V100.442Z" fill="#C1C1C1"/>
</g>
<path d="M346.906 142.228H282.818V159.13H346.906V142.228Z" fill="#EDEDED"/>
<path d="M343.15 113.487H286.586V135.006H343.15V113.487Z" fill="#EDEDED"/>
<path d="M353.646 135.006H276.089V142.227H353.646V135.006Z" fill="#C1C1C1"/>
<path d="M332.474 103.985H328.26V113.487H332.474V103.985Z" fill="#EDEDED"/>
<path d="M343.15 113.487H301.777V135.006H343.15V113.487Z" fill="#DCDEE2"/>
<path d="M346.906 142.228H296.959V159.13H346.906V142.228Z" fill="#DCDEE2"/>
<g style="mix-blend-mode:multiply">
<path d="M353.646 135.006H290.945V142.227H353.646V135.006Z" fill="#DCDEE2"/>
</g>
<g style="mix-blend-mode:multiply">
<path d="M346.906 142.228H282.818V146.587H346.906V142.228Z" fill="#DCDEE2"/>
</g>
<g style="mix-blend-mode:multiply">
<path d="M332.474 103.985H328.26V108.076H332.474V103.985Z" fill="#DCDEE2"/>
</g>
<g style="mix-blend-mode:multiply">
<path d="M320.502 117.176H338.991C339.27 117.176 339.537 117.287 339.734 117.484C339.931 117.681 340.042 117.948 340.042 118.227C340.042 118.506 339.931 118.773 339.734 118.97C339.537 119.167 339.27 119.278 338.991 119.278H320.502C320.223 119.278 319.956 119.167 319.759 118.97C319.562 118.773 319.451 118.506 319.451 118.227C319.451 117.948 319.562 117.681 319.759 117.484C319.956 117.287 320.223 117.176 320.502 117.176Z" fill="#DCDEE2"/>
</g>
<g style="mix-blend-mode:multiply">
<path d="M320.502 120.787H338.991C339.27 120.787 339.537 120.897 339.734 121.094C339.931 121.291 340.042 121.559 340.042 121.837C340.042 122.116 339.931 122.383 339.734 122.58C339.537 122.777 339.27 122.888 338.991 122.888H320.502C320.223 122.888 319.956 122.777 319.759 122.58C319.562 122.383 319.451 122.116 319.451 121.837C319.451 121.559 319.562 121.291 319.759 121.094C319.956 120.897 320.223 120.787 320.502 120.787Z" fill="#DCDEE2"/>
</g>
<path d="M359.224 240.7H197.369V302.641H359.224V240.7Z" fill="#A3DEFF"/>
<path d="M359.224 226.146H197.369V293.542H359.224V226.146Z" fill="#A3DEFF"/>
<path d="M359.224 253.287H197.369V257.68H359.224V253.287Z" fill="#A3DEFF"/>
<g style="mix-blend-mode:multiply" opacity="0.5">
<path d="M359.224 293.542H197.369V295.744H359.224V293.542Z" fill="#C1C1C1"/>
</g>
<path d="M367.262 159.118H189.309V164.596H367.262V159.118Z" fill="#A3DEFF"/>
<path d="M363.517 164.596H193.065V253.287H363.517V164.596Z" fill="#06A6FF"/>
<path d="M363.517 164.562H193.065V168.956H363.517V164.562Z" fill="#A3DEFF"/>
<path d="M324.928 228.829H257.599C257.042 228.829 256.507 228.607 256.113 228.213C255.719 227.819 255.498 227.285 255.498 226.727C255.498 226.17 255.719 225.635 256.113 225.241C256.507 224.847 257.042 224.626 257.599 224.626H324.884C329.045 224.626 333.035 222.973 335.978 220.03C338.92 217.088 340.573 213.097 340.573 208.936C340.573 204.775 338.92 200.785 335.978 197.842C333.035 194.9 329.045 193.247 324.884 193.247H257.599C257.042 193.247 256.507 193.026 256.113 192.632C255.719 192.237 255.498 191.703 255.498 191.146C255.498 190.588 255.719 190.054 256.113 189.659C256.507 189.265 257.042 189.044 257.599 189.044H324.884C327.536 188.981 330.173 189.449 332.642 190.421C335.11 191.392 337.36 192.847 339.258 194.701C341.155 196.554 342.663 198.768 343.693 201.213C344.723 203.658 345.253 206.284 345.253 208.936C345.253 211.589 344.723 214.215 343.693 216.66C342.663 219.105 341.155 221.319 339.258 223.172C337.36 225.026 335.11 226.481 332.642 227.452C330.173 228.424 327.536 228.892 324.884 228.829H324.928Z" fill="white"/>
<path d="M257.342 227.107V191.335" stroke="white" stroke-width="3" stroke-miterlimit="10"/>
<path d="M262.048 198.948H252.647C252.03 198.948 251.529 199.448 251.529 200.066V204.649C251.529 205.266 252.03 205.767 252.647 205.767H262.048C262.666 205.767 263.166 205.266 263.166 204.649V200.066C263.166 199.448 262.666 198.948 262.048 198.948Z" fill="#EDEDED"/>
<path d="M262.048 212.396H252.647C252.03 212.396 251.529 212.896 251.529 213.514V218.097C251.529 218.714 252.03 219.215 252.647 219.215H262.048C262.666 219.215 263.166 218.714 263.166 218.097V213.514C263.166 212.896 262.666 212.396 262.048 212.396Z" fill="#EDEDED"/>
<path d="M367.262 159.118H189.309V164.596H367.262V159.118Z" fill="#06A6FF"/>
<path d="M247.717 111.285C246.6 115.421 241.983 132.044 240.697 136.683C239.412 141.322 261.221 146.218 262.216 142.63C263.211 139.042 273.931 100.252 273.931 100.252C274.345 98.7426 268.018 97.01 267.604 98.5079L266.341 103.058C264.653 103.482 247.717 111.285 247.717 111.285ZM249.495 115.757C249.6 115.379 249.851 115.058 250.193 114.865C250.535 114.672 250.939 114.623 251.317 114.728C251.695 114.833 252.016 115.084 252.209 115.426C252.401 115.768 252.451 116.172 252.345 116.55L249.841 125.583C249.791 125.77 249.704 125.945 249.586 126.099C249.467 126.252 249.32 126.381 249.151 126.478C248.983 126.574 248.798 126.637 248.605 126.662C248.413 126.686 248.218 126.673 248.03 126.622C247.651 126.518 247.329 126.267 247.135 125.926C246.94 125.584 246.888 125.18 246.991 124.8L249.495 115.757Z" fill="#FFC215"/>
<path d="M251.876 138.136C260.729 140.584 263.144 139.254 263.144 139.254L269.035 118.015L258.27 115.041L251.876 138.136Z" fill="#FFA300"/>
<path d="M190.527 98.9658L250.076 146.196L258.27 135.855L251.943 130.836C251.943 130.836 251.127 130.959 249.092 129.338C248.073 128.66 247.239 127.738 246.667 126.655L238.07 119.836C238.07 119.836 237.31 119.993 235.063 118.215C232.816 116.438 232.828 115.656 232.828 115.656L224.231 108.837L220.743 107.819L218.955 104.656L210.358 97.8367L206.647 97.5908L205.06 93.6559L198.721 88.6367L190.527 98.9658Z" fill="#FFC215"/>
<path d="M249.003 136.929C248.466 137.61 248.069 138.39 247.834 139.225C247.599 140.06 247.532 140.934 247.636 141.795C247.74 142.656 248.013 143.488 248.439 144.243C248.866 144.998 249.437 145.662 250.121 146.196C252.971 148.432 257.611 147.314 259.869 144.508C262.127 141.702 261.165 138.114 258.315 135.856C257.635 135.31 256.853 134.906 256.016 134.664C255.178 134.423 254.301 134.35 253.435 134.45C252.569 134.55 251.732 134.82 250.971 135.246C250.21 135.671 249.541 136.243 249.003 136.929Z" fill="#FFC215"/>
<path d="M189.946 89.0842C187.71 91.9347 187.71 96.708 190.527 98.9661C191.202 99.5362 191.984 99.965 192.828 100.227C193.672 100.489 194.559 100.579 195.438 100.491C196.317 100.404 197.169 100.141 197.945 99.7174C198.72 99.2941 199.403 98.7194 199.951 98.0274C200.5 97.3354 200.905 96.5402 201.141 95.6889C201.376 94.8377 201.439 93.9477 201.324 93.0719C201.209 92.1961 200.92 91.3522 200.473 90.5904C200.026 89.8286 199.43 89.1643 198.721 88.637C195.871 86.3678 192.204 86.2225 189.946 89.0842Z" fill="#FFC215"/>
<path d="M244.297 135.05C242.844 133.933 243.905 130.132 246.667 126.655C247.239 127.738 248.073 128.66 249.092 129.338C251.127 130.959 251.943 130.836 251.943 130.836C249.171 134.313 245.761 136.202 244.297 135.05Z" fill="#FFAB24"/>
<path d="M230.435 124.062C228.971 122.944 230.033 119.144 232.794 115.667C233.366 116.75 234.2 117.672 235.22 118.35C237.265 119.971 238.07 119.848 238.07 119.848C235.309 123.313 231.888 125.18 230.435 124.062Z" fill="#FFAB24"/>
<path d="M216.563 113.051C215.109 111.934 216.16 108.133 218.921 104.656C219.499 105.735 220.332 106.656 221.347 107.339C223.393 108.96 224.198 108.837 224.198 108.837C221.436 112.314 218.016 114.203 216.563 113.051Z" fill="#FFAB24"/>
<path d="M202.69 102.051C201.237 100.934 202.287 97.1328 205.06 93.6562C205.629 94.7372 206.459 95.6592 207.474 96.3391C209.52 97.96 210.325 97.8371 210.325 97.8371C207.564 101.314 204.143 103.203 202.69 102.051Z" fill="#FFAB24"/>
<path d="M183.586 114.773L252.67 146.419L258.169 134.425L250.825 131.071C250.825 131.071 250.076 131.384 247.695 130.3C246.547 129.885 245.521 129.19 244.71 128.277L234.728 123.704C234.728 123.704 234.024 124.04 231.374 122.844C228.725 121.648 228.568 120.899 228.568 120.899L218.586 116.327L214.964 116.17L212.471 113.532L202.5 108.949L198.833 109.597L196.43 106.176L189.074 102.823L183.586 114.773Z" fill="#FFC215"/>
<path d="M249.428 137.689C248.699 139.28 248.631 141.095 249.238 142.736C249.846 144.377 251.08 145.71 252.67 146.442C256.023 147.951 260.226 145.782 261.747 142.473C263.267 139.165 261.478 135.956 258.169 134.447C257.383 134.085 256.532 133.881 255.667 133.848C254.802 133.815 253.938 133.953 253.126 134.254C252.314 134.555 251.569 135.014 250.935 135.603C250.3 136.193 249.788 136.901 249.428 137.689Z" fill="#FFC215"/>
<path d="M180.668 105.316C179.148 108.669 180.265 113.264 183.586 114.773C184.38 115.216 185.257 115.49 186.163 115.578C187.068 115.666 187.982 115.566 188.847 115.283C189.712 115.001 190.509 114.543 191.188 113.938C191.867 113.332 192.414 112.593 192.793 111.766C193.173 110.94 193.377 110.044 193.394 109.134C193.411 108.224 193.239 107.321 192.89 106.481C192.54 105.641 192.021 104.883 191.365 104.253C190.708 103.624 189.928 103.137 189.074 102.823C185.765 101.269 182.177 102.007 180.668 105.316Z" fill="#FFC215"/>
<path d="M244.409 136.996C242.721 136.213 242.855 132.312 244.71 128.276C245.521 129.189 246.547 129.885 247.695 130.3C250.076 131.418 250.825 131.071 250.825 131.071C248.969 135.118 246.096 137.767 244.409 136.996Z" fill="#FFAB24"/>
<path d="M228.323 129.651C226.635 128.88 226.758 124.979 228.613 120.932C229.427 121.847 230.457 122.542 231.609 122.955C233.979 124.073 234.728 123.738 234.728 123.738C232.872 127.74 230.01 130.389 228.323 129.651Z" fill="#FFAB24"/>
<path d="M212.225 122.24C210.537 121.469 210.671 117.567 212.516 113.532C213.333 114.442 214.362 115.137 215.512 115.555C217.882 116.673 218.631 116.327 218.631 116.327C216.786 120.362 213.913 123.011 212.225 122.24Z" fill="#FFAB24"/>
<path d="M196.117 114.862C194.429 114.091 194.563 110.19 196.419 106.154C197.229 107.067 198.255 107.763 199.403 108.177C201.773 109.295 202.533 108.949 202.533 108.949C200.689 112.995 197.816 115.645 196.117 114.862Z" fill="#FFAB24"/>
<path d="M238.003 103.069H233.956V126.544H238.003V103.069Z" fill="#0E263F"/>
<path d="M211.163 157.33C211.336 157.834 211.657 158.274 212.083 158.593C212.51 158.912 213.023 159.095 213.555 159.118H258.404C258.937 159.095 259.45 158.912 259.876 158.593C260.303 158.274 260.624 157.834 260.796 157.33L269.091 129.07C269.171 128.862 269.197 128.636 269.167 128.415C269.136 128.193 269.049 127.983 268.915 127.804C268.781 127.626 268.604 127.484 268.4 127.392C268.196 127.301 267.972 127.263 267.75 127.281H204.21C203.987 127.263 203.764 127.301 203.56 127.392C203.356 127.484 203.178 127.626 203.044 127.804C202.91 127.983 202.824 128.193 202.793 128.415C202.762 128.636 202.788 128.862 202.869 129.07L211.163 157.33Z" fill="#EF8B8B"/>
<path d="M269.773 123.436H202.187C201.156 123.436 200.32 124.272 200.32 125.303V127.796C200.32 128.827 201.156 129.663 202.187 129.663H269.773C270.804 129.663 271.64 128.827 271.64 127.796V125.303C271.64 124.272 270.804 123.436 269.773 123.436Z" fill="#BF5858"/>
<path d="M216.965 134.794C217.389 134.794 217.796 134.962 218.095 135.262C218.395 135.562 218.564 135.968 218.564 136.392V152.389C218.564 152.813 218.395 153.219 218.095 153.519C217.796 153.819 217.389 153.987 216.965 153.987C216.541 153.987 216.134 153.819 215.835 153.519C215.535 153.219 215.366 152.813 215.366 152.389V136.359C215.375 135.941 215.548 135.543 215.846 135.25C216.145 134.957 216.547 134.794 216.965 134.794Z" fill="#BF5858"/>
<path d="M226.299 134.794C226.723 134.794 227.13 134.962 227.43 135.262C227.729 135.562 227.898 135.968 227.898 136.392V152.389C227.898 152.813 227.729 153.219 227.43 153.519C227.13 153.819 226.723 153.987 226.299 153.987C225.875 153.987 225.469 153.819 225.169 153.519C224.869 153.219 224.701 152.813 224.701 152.389V136.359C224.709 135.941 224.882 135.543 225.18 135.25C225.479 134.957 225.881 134.794 226.299 134.794Z" fill="#BF5858"/>
<path d="M235.633 134.794C236.057 134.794 236.464 134.962 236.764 135.262C237.063 135.562 237.232 135.968 237.232 136.392V152.389C237.232 152.813 237.063 153.219 236.764 153.519C236.464 153.819 236.057 153.987 235.633 153.987C235.209 153.987 234.803 153.819 234.503 153.519C234.203 153.219 234.035 152.813 234.035 152.389V136.359C234.044 135.941 234.216 135.543 234.515 135.25C234.814 134.957 235.215 134.794 235.633 134.794Z" fill="#BF5858"/>
<path d="M244.956 134.794C245.38 134.794 245.787 134.962 246.087 135.262C246.386 135.562 246.555 135.968 246.555 136.392V152.389C246.555 152.813 246.386 153.219 246.087 153.519C245.787 153.819 245.38 153.987 244.956 153.987C244.532 153.987 244.126 153.819 243.826 153.519C243.526 153.219 243.358 152.813 243.358 152.389V136.359C243.367 135.941 243.539 135.543 243.838 135.25C244.136 134.957 244.538 134.794 244.956 134.794Z" fill="#BF5858"/>
<path d="M254.246 134.794C254.67 134.794 255.076 134.962 255.376 135.262C255.676 135.562 255.844 135.968 255.844 136.392V152.389C255.844 152.813 255.676 153.219 255.376 153.519C255.076 153.819 254.67 153.987 254.246 153.987C253.822 153.987 253.415 153.819 253.115 153.519C252.816 153.219 252.647 152.813 252.647 152.389V136.359C252.656 135.941 252.828 135.543 253.127 135.25C253.426 134.957 253.828 134.794 254.246 134.794Z" fill="#BF5858"/>
<path d="M231.005 126.544C231.005 127.527 231.297 128.489 231.844 129.307C232.39 130.125 233.167 130.763 234.076 131.139C234.985 131.516 235.985 131.614 236.95 131.423C237.915 131.231 238.802 130.757 239.497 130.061C240.193 129.365 240.667 128.479 240.859 127.514C241.051 126.549 240.952 125.549 240.576 124.64C240.199 123.731 239.562 122.954 238.744 122.407C237.925 121.861 236.964 121.569 235.98 121.569C234.661 121.572 233.398 122.097 232.466 123.029C231.533 123.962 231.008 125.225 231.005 126.544Z" fill="#EF8B8B"/>
<path d="M233.956 126.544C233.956 126.944 234.075 127.335 234.297 127.668C234.52 128 234.836 128.26 235.206 128.413C235.575 128.566 235.982 128.606 236.375 128.528C236.767 128.45 237.128 128.257 237.411 127.974C237.694 127.691 237.886 127.331 237.964 126.938C238.042 126.546 238.002 126.139 237.849 125.769C237.696 125.4 237.437 125.084 237.104 124.861C236.771 124.639 236.38 124.52 235.98 124.52C235.443 124.52 234.929 124.733 234.549 125.113C234.17 125.492 233.956 126.007 233.956 126.544Z" fill="#0E263F"/>
<path d="M231.408 126.544C231.408 127.448 231.676 128.332 232.178 129.084C232.681 129.836 233.395 130.422 234.23 130.768C235.066 131.114 235.985 131.204 236.872 131.028C237.759 130.852 238.573 130.416 239.213 129.777C239.852 129.137 240.288 128.323 240.464 127.436C240.64 126.549 240.55 125.63 240.204 124.794C239.858 123.959 239.272 123.245 238.52 122.742C237.768 122.24 236.884 121.972 235.98 121.972C234.767 121.972 233.604 122.453 232.747 123.311C231.89 124.168 231.408 125.331 231.408 126.544Z" fill="#BF5858"/>
<path d="M233.956 126.544C233.956 126.944 234.075 127.335 234.297 127.668C234.52 128 234.836 128.26 235.206 128.413C235.575 128.566 235.982 128.606 236.375 128.528C236.767 128.45 237.128 128.257 237.411 127.974C237.694 127.691 237.886 127.331 237.964 126.938C238.042 126.546 238.002 126.139 237.849 125.769C237.696 125.4 237.437 125.084 237.104 124.861C236.771 124.639 236.38 124.52 235.98 124.52C235.443 124.52 234.929 124.733 234.549 125.113C234.17 125.492 233.956 126.007 233.956 126.544Z" fill="#0E263F"/>
<path d="M233.956 103.069C233.956 103.594 234.862 104.03 235.98 104.03C237.098 104.03 238.003 103.594 238.003 103.069C238.003 102.543 237.098 102.107 235.98 102.107C234.862 102.107 233.956 102.532 233.956 103.069Z" fill="#0E263F"/>
<path opacity="0.5" d="M137.02 311.74C137.02 315.68 115.31 318.88 88.51 318.88C61.71 318.88 40 315.68 40 311.74C40 307.8 61.72 304.61 88.51 304.61C115.3 304.61 137.02 307.8 137.02 311.74Z" fill="#C7DAEA"/>
<path d="M59.5 166.06C59.5 166.06 62.4 140.89 62.24 137.77C62.08 134.65 68.13 112.77 68.13 112.77L57.13 115.71L53.79 134.62L52.08 170.87L59.5 166.06Z" fill="#FFAF99"/>
<path d="M122.68 178.71C124.41 180.31 126.84 177.36 127.23 174.11C127.62 170.86 123.37 167.79 122.79 165.87C122.21 163.95 121.18 157.45 121.18 157.45L114.27 159.24C114.27 159.24 116.04 166.72 116.42 168.45C116.8 170.18 116.34 176.56 120.2 177.51" fill="#FFAF99"/>
<path d="M114.49 104.07C114.49 104.07 116.75 127.54 117.02 133.59C116.93 136.16 120.76 154.45 121.17 157.45C121.51 159.92 114.76 161.11 114.26 159.24C113.76 157.37 107.63 134.41 107.26 131.94C106.89 129.47 105.59 104.07 105.59 104.07L111.8 101.68L114.49 104.07Z" fill="#FFAF99"/>
<path d="M121.41 190.19C122.349 191.523 122.871 193.104 122.911 194.734C122.951 196.364 122.506 197.969 121.633 199.346C120.76 200.723 119.499 201.81 118.008 202.47C116.517 203.13 114.864 203.333 113.258 203.053C111.652 202.773 110.165 202.022 108.985 200.897C107.806 199.772 106.986 198.322 106.631 196.73C106.276 195.139 106.401 193.478 106.99 191.958C107.579 190.438 108.606 189.127 109.94 188.19C111.727 186.936 113.938 186.443 116.089 186.818C118.239 187.193 120.153 188.406 121.41 190.19Z" fill="#FFA300"/>
<g style="mix-blend-mode:soft-light">
<g style="mix-blend-mode:soft-light">
<path d="M117.79 199.37C118.735 198.444 119.395 197.268 119.693 195.979C119.991 194.69 119.915 193.343 119.474 192.097C119.032 190.85 118.243 189.755 117.2 188.942C116.157 188.128 114.903 187.63 113.586 187.505C112.269 187.38 110.944 187.635 109.767 188.238C108.59 188.841 107.61 189.768 106.942 190.91C106.274 192.051 105.946 193.36 105.997 194.682C106.048 196.004 106.476 197.283 107.23 198.37C108.589 199.757 110.394 200.618 112.327 200.801C114.26 200.985 116.195 200.478 117.79 199.37Z" fill="#FFBC80"/>
</g>
</g>
<path d="M110.45 189.37C110.374 189.369 110.299 189.351 110.231 189.316C110.164 189.282 110.105 189.232 110.06 189.17L108.83 187.37C108.794 187.32 108.768 187.262 108.754 187.202C108.74 187.141 108.738 187.079 108.748 187.017C108.759 186.956 108.781 186.897 108.814 186.845C108.847 186.792 108.889 186.746 108.94 186.71C108.991 186.674 109.048 186.648 109.108 186.634C109.169 186.62 109.232 186.618 109.293 186.629C109.354 186.639 109.413 186.661 109.465 186.694C109.518 186.727 109.564 186.77 109.6 186.82L110.84 188.59C110.876 188.641 110.902 188.699 110.915 188.76C110.928 188.821 110.93 188.884 110.918 188.945C110.907 189.007 110.884 189.065 110.85 189.118C110.816 189.17 110.772 189.215 110.72 189.25C110.647 189.321 110.551 189.363 110.45 189.37Z" fill="#38AD80"/>
<path d="M118.01 178.37C117.692 180.649 116.632 182.759 114.994 184.375C113.357 185.991 111.233 187.022 108.95 187.31C109.268 185.032 110.328 182.921 111.966 181.305C113.603 179.689 115.727 178.658 118.01 178.37Z" fill="#4ECC9B"/>
<path d="M108.95 187.31C108.95 187.31 113.89 181.25 118.01 178.37L108.95 187.31Z" fill="#38AD80"/>
<path d="M127.611 175.096L125.691 184.236L128.804 184.89L130.723 175.749L127.611 175.096Z" fill="#C7DAEA"/>
<path d="M125.97 212.17C124.45 215.05 117.4 213.4 117.38 210.36C117.38 202.12 122.08 192.36 122.48 190.46C122.88 188.56 122.13 184.08 124.28 181.25C126.43 178.42 130.39 179.13 131.37 182.74C132.35 186.35 130.04 189.84 129.65 191.58C129.26 193.32 129.75 205.05 125.97 212.17Z" fill="#C7DAEA"/>
<path d="M130.57 177.75C130.5 178.13 129.64 178.26 128.66 178.06C127.68 177.86 126.95 177.38 127.03 177.01C127.11 176.64 127.97 176.49 128.95 176.7C129.93 176.91 130.68 177.37 130.57 177.75Z" fill="#F29A86"/>
<path d="M127.399 175.039L126.998 176.968L130.542 177.705L130.943 175.777L127.399 175.039Z" fill="#F29A86"/>
<path d="M130.97 175.83C130.89 176.2 130.04 176.34 129.06 176.13C128.08 175.92 127.35 175.46 127.43 175.13C127.51 174.8 128.37 174.62 129.34 174.82C130.31 175.02 131.05 175.45 130.97 175.83Z" fill="#FFAF99"/>
<path d="M129.68 191.58C129.88 190.67 130.61 189.29 131.12 187.66C131.03 187.98 130.02 188.04 128.74 187.94C128.871 187.662 128.937 187.358 128.932 187.051C128.927 186.743 128.851 186.442 128.71 186.168C128.569 185.895 128.367 185.658 128.12 185.476C127.873 185.293 127.587 185.17 127.285 185.116C126.982 185.062 126.671 185.078 126.376 185.163C126.081 185.249 125.809 185.401 125.582 185.609C125.356 185.816 125.18 186.073 125.068 186.359C124.957 186.646 124.913 186.954 124.94 187.26C123.69 186.89 122.75 186.42 122.78 185.91C122.61 187.74 122.71 189.48 122.51 190.46C122.31 191.44 121.16 194.02 119.99 197.46C119.36 199.28 128.99 201.23 129.13 199.65C129.48 195.7 129.46 192.43 129.68 191.58Z" fill="#9ABAD8"/>
<path d="M131.52 185.37C130.52 189.15 126.27 204.37 125.1 208.6C123.93 212.83 143.88 217.33 144.78 214.05C145.68 210.77 155.5 175.27 155.5 175.27C155.89 173.89 150.09 172.27 149.71 173.67L148.56 177.83C147.01 178.23 131.52 185.37 131.52 185.37ZM133.14 189.45C133.187 189.279 133.268 189.118 133.377 188.978C133.486 188.838 133.622 188.721 133.777 188.633C133.931 188.545 134.102 188.489 134.278 188.467C134.455 188.445 134.634 188.458 134.805 188.505C134.976 188.553 135.137 188.633 135.277 188.742C135.417 188.852 135.535 188.987 135.622 189.142C135.71 189.297 135.766 189.467 135.788 189.643C135.81 189.82 135.797 189.999 135.75 190.17L133.47 198.44C133.351 198.759 133.116 199.022 132.812 199.176C132.508 199.331 132.158 199.365 131.83 199.274C131.502 199.182 131.22 198.97 131.04 198.681C130.861 198.391 130.796 198.045 130.86 197.71L133.14 189.45Z" fill="#102B51"/>
<path d="M135.32 209.94C143.43 212.19 145.64 210.94 145.64 210.94L151.02 191.47L141.18 188.75C141.18 188.75 135.78 208.31 135.32 209.94Z" fill="#4FC9B8"/>
<path d="M123.27 173.83H119.57V195.31H123.27V173.83Z" fill="#0E263F"/>
<path d="M144.13 223.48C143.973 223.943 143.68 224.347 143.289 224.639C142.898 224.932 142.428 225.1 141.94 225.12H100.94C100.452 225.098 99.9828 224.93 99.5922 224.638C99.2016 224.345 98.9082 223.942 98.75 223.48L91.16 197.63C91.0893 197.439 91.0676 197.233 91.097 197.031C91.1264 196.83 91.206 196.638 91.3283 196.475C91.4506 196.312 91.6119 196.182 91.7974 196.098C91.9828 196.013 92.1866 195.976 92.39 195.99H150.53C150.733 195.976 150.937 196.013 151.123 196.098C151.308 196.182 151.469 196.312 151.592 196.475C151.714 196.638 151.794 196.83 151.823 197.031C151.852 197.233 151.831 197.439 151.76 197.63L144.13 223.48Z" fill="#EF8B8B"/>
<path d="M152.34 192.47H90.5C89.5556 192.47 88.79 193.236 88.79 194.18V196.46C88.79 197.405 89.5556 198.17 90.5 198.17H152.34C153.284 198.17 154.05 197.405 154.05 196.46V194.18C154.05 193.236 153.284 192.47 152.34 192.47Z" fill="#BF5858"/>
<path d="M138.82 202.87C138.433 202.87 138.061 203.024 137.788 203.298C137.514 203.572 137.36 203.943 137.36 204.33V218.97C137.39 219.338 137.558 219.681 137.829 219.93C138.101 220.18 138.456 220.319 138.825 220.319C139.194 220.319 139.549 220.18 139.821 219.93C140.092 219.681 140.26 219.338 140.29 218.97V204.37C140.295 204.174 140.261 203.979 140.19 203.797C140.118 203.614 140.01 203.448 139.873 203.308C139.736 203.168 139.572 203.057 139.391 202.982C139.21 202.907 139.016 202.869 138.82 202.87Z" fill="#BF5858"/>
<path d="M130.28 202.87C129.893 202.87 129.521 203.024 129.248 203.298C128.974 203.572 128.82 203.943 128.82 204.33V218.97C128.85 219.338 129.018 219.681 129.289 219.93C129.561 220.18 129.916 220.319 130.285 220.319C130.654 220.319 131.009 220.18 131.281 219.93C131.552 219.681 131.72 219.338 131.75 218.97V204.37C131.755 204.174 131.721 203.979 131.65 203.797C131.578 203.614 131.47 203.448 131.333 203.308C131.196 203.168 131.032 203.057 130.851 202.982C130.67 202.907 130.476 202.869 130.28 202.87Z" fill="#BF5858"/>
<path d="M121.74 202.87C121.545 202.87 121.352 202.909 121.172 202.985C120.992 203.061 120.829 203.172 120.693 203.312C120.557 203.452 120.45 203.617 120.379 203.799C120.308 203.981 120.275 204.175 120.28 204.37V218.97C120.31 219.338 120.478 219.681 120.749 219.93C121.021 220.18 121.376 220.319 121.745 220.319C122.114 220.319 122.469 220.18 122.741 219.93C123.012 219.681 123.18 219.338 123.21 218.97V204.37C123.215 204.174 123.181 203.979 123.11 203.797C123.038 203.614 122.93 203.448 122.793 203.308C122.656 203.168 122.492 203.057 122.311 202.982C122.13 202.907 121.936 202.869 121.74 202.87Z" fill="#BF5858"/>
<path d="M113.2 202.87C112.813 202.87 112.441 203.024 112.168 203.298C111.894 203.572 111.74 203.943 111.74 204.33V218.97C111.77 219.338 111.938 219.681 112.209 219.93C112.481 220.18 112.836 220.319 113.205 220.319C113.574 220.319 113.929 220.18 114.201 219.93C114.472 219.681 114.64 219.338 114.67 218.97V204.37C114.675 204.174 114.641 203.979 114.57 203.797C114.498 203.614 114.39 203.448 114.253 203.308C114.116 203.168 113.952 203.057 113.771 202.982C113.59 202.907 113.396 202.869 113.2 202.87Z" fill="#BF5858"/>
<path d="M104.68 202.87C104.293 202.87 103.921 203.024 103.648 203.298C103.374 203.572 103.22 203.943 103.22 204.33V218.97C103.25 219.338 103.418 219.681 103.689 219.93C103.961 220.18 104.316 220.319 104.685 220.319C105.054 220.319 105.409 220.18 105.681 219.93C105.952 219.681 106.12 219.338 106.15 218.97V204.37C106.155 204.174 106.121 203.979 106.05 203.797C105.978 203.614 105.87 203.448 105.733 203.308C105.596 203.168 105.432 203.057 105.251 202.982C105.07 202.907 104.876 202.869 104.68 202.87Z" fill="#BF5858"/>
<path d="M125.98 195.37C125.98 196.272 125.713 197.154 125.211 197.904C124.71 198.654 123.998 199.238 123.165 199.583C122.332 199.928 121.415 200.019 120.53 199.843C119.646 199.667 118.833 199.232 118.196 198.595C117.558 197.957 117.124 197.144 116.948 196.26C116.772 195.375 116.862 194.458 117.207 193.625C117.552 192.792 118.137 192.08 118.887 191.579C119.636 191.078 120.518 190.81 121.42 190.81C122.629 190.81 123.789 191.291 124.644 192.146C125.5 193.001 125.98 194.161 125.98 195.37Z" fill="#EF8B8B"/>
<path d="M123.27 195.37C123.27 195.736 123.161 196.094 122.958 196.398C122.755 196.702 122.466 196.939 122.128 197.079C121.79 197.219 121.418 197.256 121.059 197.185C120.7 197.113 120.371 196.937 120.112 196.678C119.853 196.42 119.677 196.09 119.606 195.731C119.534 195.372 119.571 195 119.711 194.662C119.851 194.324 120.088 194.035 120.392 193.832C120.696 193.629 121.054 193.52 121.42 193.52C121.911 193.52 122.381 193.715 122.728 194.062C123.075 194.409 123.27 194.88 123.27 195.37Z" fill="#0E263F"/>
<path d="M125.6 195.37C125.6 196.197 125.355 197.005 124.896 197.692C124.436 198.38 123.783 198.916 123.02 199.232C122.256 199.548 121.415 199.631 120.604 199.47C119.794 199.309 119.049 198.91 118.464 198.326C117.88 197.741 117.482 196.997 117.32 196.186C117.159 195.375 117.242 194.534 117.558 193.771C117.875 193.007 118.41 192.354 119.098 191.895C119.785 191.435 120.593 191.19 121.42 191.19C122.529 191.19 123.592 191.631 124.376 192.414C125.16 193.198 125.6 194.262 125.6 195.37Z" fill="#BF5858"/>
<path d="M123.27 195.37C123.27 195.736 123.161 196.094 122.958 196.398C122.755 196.702 122.466 196.939 122.128 197.079C121.79 197.219 121.418 197.256 121.059 197.185C120.7 197.113 120.371 196.937 120.112 196.678C119.853 196.42 119.677 196.09 119.606 195.731C119.534 195.372 119.571 195 119.711 194.662C119.851 194.324 120.088 194.035 120.392 193.832C120.696 193.629 121.054 193.52 121.42 193.52C121.911 193.52 122.381 193.715 122.728 194.062C123.075 194.409 123.27 194.88 123.27 195.37Z" fill="#0E263F"/>
<path d="M123.27 173.83C123.27 174.32 122.44 174.71 121.42 174.71C120.4 174.71 119.57 174.32 119.57 173.83C119.57 173.34 120.4 172.95 121.42 172.95C122.44 172.95 123.27 173.37 123.27 173.83Z" fill="#0E263F"/>
<path d="M107.42 85.8604C108.92 86.3904 110.42 87.7504 112.11 91.8604C114.26 97.0504 116.29 111.78 116.64 114.58C116.99 117.38 107.01 116.91 107.01 116.91L103.78 91.1703L107.42 85.8604Z" fill="#C7DAEA"/>
<path d="M86.39 194.68C85.39 204.33 77.74 258.26 75.39 287.53C75.39 288.06 76.24 289 76.2 289.53C76 292.12 75.72 295.33 75.61 297.67C75.39 302.34 59.92 300.93 59.92 297.84C59.92 295.05 60.02 292.1 60.08 289.06C60.08 288.49 61.08 288.11 61.08 287.54C61.7 260.54 62.6 215.82 63.29 186.01C63.4 181.01 63.51 176.41 63.61 172.39C63.7 168.92 63.78 165.88 63.85 163.39C63.85 163.39 66.67 164.15 70.95 164.92C81.08 166.74 96.34 166.09 105.53 164.84C107.37 164.673 109.163 164.168 110.82 163.35C112.28 185.54 112.13 221.91 112.13 232.08C112.13 237.47 107.43 272.54 106.19 286.01C106.12 286.88 107.68 288.17 107.6 289.01C107.32 292.01 107.24 294.7 106.78 297.39C106.19 300.8 91.99 300.82 92.2 297.01C92.32 294.64 92.41 291.46 92.51 288.78C92.51 288.03 93.88 286.51 93.9 285.78C94.3 274.78 92.67 241.05 92.55 229.26L88.15 194.55L86.39 194.68Z" fill="#102B51"/>
<g style="mix-blend-mode:color-burn" opacity="0.5">
<path d="M68.38 182.08C71.6051 178.739 73.9368 174.64 75.16 170.16C75.16 170.16 82.02 170.58 86.16 170.43V190.66L88.16 194.49C88.16 194.49 89.42 173.96 89.71 170.42C96.25 170.57 102.43 170.01 102.43 170.01C103.658 174.541 106.003 178.69 109.25 182.08C109.25 182.08 104.25 173.58 103.97 169.87C106.452 169.499 108.854 168.719 111.08 167.56L110.83 163.32C110.83 163.32 98.15 166.62 88.39 166.1C80.4752 165.489 72.5977 164.464 64.79 163.03L63.86 164.88L63.75 167.61C66.6292 168.957 69.7299 169.767 72.9 170C72.5051 174.36 70.9438 178.532 68.38 182.08Z" fill="#C1C1C1"/>
</g>
<path d="M107.42 85.8602C107.42 85.8602 110.21 143.86 112.34 156.19C112.34 156.88 111.48 157.54 111.47 158.19C111.39 160.87 111.2 162.7 110.85 163.36C108.25 168.36 67.78 166.9 63.85 163.36C63.46 163.05 63.33 161.23 63.41 158.36C63.41 157.78 62.61 157.2 62.64 156.6C63.02 149.6 65.23 141.27 64.94 134.97C64.38 122.89 72.2101 85.8802 72.2101 85.8802C72.2101 85.8802 89.68 81.8302 107.42 85.8602Z" fill="#C7DAEA"/>
<path d="M103.81 63.0203C103.51 65.3203 101.72 68.2703 100.01 67.3803C99.2109 67.0391 98.5532 66.4336 98.1473 65.6654C97.7413 64.8971 97.6116 64.0127 97.78 63.1602C97.8135 62.239 98.1643 61.3575 98.7729 60.6651C99.3816 59.9727 100.211 59.5117 101.12 59.3602C103.1 58.9702 104.12 60.7203 103.81 63.0203Z" fill="#F29A86"/>
<path d="M103.27 60.1101C103.023 59.9418 102.74 59.8334 102.444 59.7936C102.148 59.7537 101.847 59.7835 101.564 59.8806C101.282 59.9777 101.026 60.1395 100.817 60.3529C100.608 60.5663 100.451 60.8256 100.36 61.1101L100.57 59.4801C101.008 59.2945 101.489 59.2322 101.96 59.3001C102.225 59.3291 102.48 59.4169 102.707 59.557C102.933 59.6971 103.126 59.8861 103.27 60.1101Z" fill="#FFAF99"/>
<path d="M74.1 63.0002C74.4 65.3002 76.1899 68.2602 77.8999 67.3702C78.6967 67.026 79.3521 66.42 79.7577 65.6526C80.1632 64.8852 80.2946 64.0024 80.13 63.1502C80.0964 62.2289 79.7457 61.3475 79.1371 60.6551C78.5285 59.9626 77.6993 59.5016 76.79 59.3501C74.82 58.9501 73.79 60.7002 74.1 63.0002Z" fill="#F29A86"/>
<path d="M74.68 60.0901C74.9277 59.9218 75.2111 59.8135 75.5078 59.7737C75.8046 59.7339 76.1065 59.7637 76.3898 59.8607C76.673 59.9577 76.9299 60.1193 77.1399 60.3327C77.3499 60.5461 77.5074 60.8053 77.6 61.0901L77.38 59.4601C76.9417 59.2745 76.4611 59.2122 75.99 59.2801C75.7251 59.3091 75.47 59.3968 75.2434 59.537C75.0168 59.6771 74.8243 59.8661 74.68 60.0901Z" fill="#FFAF99"/>
<path d="M81.37 72.7903C82.09 75.3103 81.18 84.1903 81.01 85.6003C80.95 86.1203 81.75 92.1303 87.13 93.1403L88.72 101.68L90.77 93.0503C95.77 91.7703 96.61 85.8003 96.4 84.8603C96.4 84.8603 94.72 77.2503 95.6 73.1103L81.37 72.7903Z" fill="#FFAF99"/>
<path d="M81.59 74.2803C81.6585 75.0855 81.6585 75.8951 81.59 76.7003C81.59 76.7003 85.71 81.5803 88.65 81.5803C91.59 81.5803 95.35 77.0803 95.35 77.0803C95.35 77.0803 95.29 74.0803 95.43 72.8003L81.59 74.2803Z" fill="#F29A86"/>
<path d="M100.57 57.2903C100.57 60.3694 99.3468 63.3225 97.1695 65.4998C94.9922 67.6771 92.0392 68.9003 88.96 68.9003C85.8809 68.9003 82.9278 67.6771 80.7505 65.4998C78.5732 63.3225 77.35 60.3694 77.35 57.2903C77.35 48.6803 82.56 44.5503 88.97 44.5503C95.38 44.5503 100.58 48.8703 100.57 57.2903Z" fill="#FFAF99"/>
<path d="M100.57 57.2903C100.57 63.5003 100.57 68.7003 98.2 72.0703C96.76 74.0703 93.06 77.6003 90.38 78.4803C89.3063 78.6672 88.2051 78.6229 87.15 78.3503C84.48 77.4103 81.07 74.0003 79.71 72.0603C77.35 68.6903 77.35 63.4903 77.35 57.2803" fill="#FFAF99"/>
<path d="M96.01 61.4903C96.01 62.4903 95.37 63.4003 94.59 63.4003C93.81 63.4003 93.17 62.5403 93.17 61.4903C93.17 60.4403 93.8 59.5803 94.59 59.5803C95.38 59.5803 96.01 60.4303 96.01 61.4903Z" fill="#0E263F"/>
<path d="M85.02 61.4803C85.02 62.5403 84.38 63.3903 83.6 63.3903C82.82 63.3903 82.18 62.5403 82.18 61.4803C82.18 60.4203 82.82 59.5703 83.6 59.5703C84.38 59.5703 85.02 60.4303 85.02 61.4803Z" fill="#0E263F"/>
<path d="M92.68 56.6602C94.3317 56.3773 96.0303 56.604 97.55 57.3102C97.6089 57.3471 97.6532 57.4033 97.6754 57.4692C97.6975 57.5351 97.696 57.6067 97.6712 57.6716C97.6464 57.7366 97.5998 57.7908 97.5394 57.8253C97.479 57.8597 97.4085 57.872 97.34 57.8602C95.8174 57.522 94.2682 57.3179 92.71 57.2502C92.6411 57.2375 92.5788 57.201 92.5339 57.1471C92.4891 57.0932 92.4645 57.0254 92.4645 56.9553C92.4645 56.8852 92.4891 56.8173 92.5339 56.7634C92.5788 56.7095 92.6411 56.673 92.71 56.6602H92.68Z" fill="#0E263F"/>
<path d="M85 57.2402C83.4444 57.3069 81.8981 57.5144 80.38 57.8601C80.3413 57.8674 80.3014 57.8669 80.2629 57.8587C80.2243 57.8506 80.1878 57.835 80.1553 57.8127C80.1228 57.7904 80.095 57.7619 80.0735 57.7289C80.052 57.6958 80.0372 57.6589 80.03 57.6202C80.0179 57.5578 80.0259 57.4932 80.0528 57.4357C80.0798 57.3782 80.1243 57.3307 80.18 57.3002C81.7005 56.5967 83.3993 56.3734 85.05 56.6601C85.1269 56.6601 85.2007 56.6907 85.2551 56.7451C85.3094 56.7995 85.34 56.8733 85.34 56.9502C85.34 57.0271 85.3094 57.1008 85.2551 57.1552C85.2007 57.2096 85.1269 57.2402 85.05 57.2402H85Z" fill="#0E263F"/>
<path d="M86.92 67.6403C88.2487 67.2752 89.6513 67.2752 90.98 67.6403C91.61 68.0203 89.64 68.5203 88.98 68.5203C88.32 68.5203 86.33 67.9603 86.92 67.6403Z" fill="#F29A86"/>
<path d="M84.21 70.2803C86.9836 71.1952 89.8798 71.6841 92.8 71.7303C93.09 71.7303 93.19 71.8004 92.8 71.9004C92.11 72.0804 89.89 74.0804 88.17 73.9004C86.45 73.7204 84.61 70.9004 84.09 70.4604C83.87 70.2304 83.99 70.1903 84.21 70.2803Z" fill="white"/>
<path d="M96.01 82.8303L99.86 84.6603L94.03 98.4903L90.77 93.0503C93.6672 90.3681 95.5232 86.7483 96.01 82.8303Z" fill="#C7DAEA"/>
<path d="M99.86 84.6602L100.57 84.7302L93.97 100.26L90.53 93.7102L90.77 93.0402L94.03 98.4902L99.86 84.6602Z" fill="#ADC6D8"/>
<path d="M81.29 82.8303L77.11 85.3703L83.23 99.5303L87.13 93.1503C87.13 93.1503 82.02 89.1703 81.29 82.8303Z" fill="#C7DAEA"/>
<path d="M77.39 85.6802L76.69 85.7602L83.29 101.28L87.35 93.7702L87.13 93.1402L83.23 99.5102L77.39 85.6802Z" fill="#ADC6D8"/>
<path d="M66.25 158.78C66.25 158.78 99.86 161.32 112.16 156.78L111.38 160.16C111.38 160.16 98.88 163.37 66.25 158.78Z" fill="#ADC6D8"/>
<path opacity="0.5" d="M93.93 285.72C95.14 288.26 106.01 288.17 106.22 285.98C106.774 286.938 107.246 287.942 107.63 288.98C107.63 289.36 107.05 296.06 107.05 296.06C107.05 296.06 94.05 299.14 93.4 298.67C92.9393 298.484 92.5551 298.148 92.31 297.716C92.0649 297.283 91.9732 296.781 92.05 296.29C92.12 294.62 92.54 289.61 92.54 288.75C92.54 287.89 93.92 286.1 93.93 285.72Z" fill="#C7DAEA"/>
<path d="M92.06 299.54C92.06 301.02 92.06 299.54 92.14 300.54C92.2 301.25 91.36 305.87 90.84 308.68C90.6 309.95 91.03 310.9 92.04 310.97C96.7 311.3 109.17 312.23 112.04 312.28C115.58 312.35 122.25 312.23 122.91 310.86C123.91 308.8 123.37 304.95 116.34 302.65C112.82 301.51 108.72 297.54 108.71 298.31C108.71 298.31 107.9 291.66 105.17 292.16C102.17 292.71 101.35 297.3 97.45 296.89C93.14 296.45 92.09 296.93 92.06 299.54Z" fill="#FFBE5F"/>
<path d="M108.8 309.37C106.97 310.46 104.59 310.87 101.7 308.1C98.81 305.33 91.16 306.97 91.32 306.1C91.16 307.04 90.98 307.96 90.84 308.74C90.6 310.01 91.03 310.96 92.04 311.03C96.7 311.36 109.17 312.29 112.04 312.34C115.58 312.41 122.25 312.29 122.91 310.92C123.14 310.407 123.265 309.853 123.275 309.291C123.285 308.729 123.181 308.171 122.97 307.65C123.15 309.12 110.56 308.31 108.8 309.37Z" fill="white" stroke="white" stroke-linecap="round" stroke-linejoin="round"/>
<path opacity="0.5" d="M61.07 287.74C60.98 289.84 75.27 290.44 75.46 287.74C75.8044 288.293 76.0671 288.892 76.24 289.52C76.24 289.91 75.79 296.25 75.65 297.66C75.51 299.07 74.51 299.66 72.5 300.35C70.49 301.04 63.11 299.91 61.68 299.49C60.25 299.07 59.98 298.49 59.98 297.14C59.98 295.79 60.07 290.07 60.12 289.05C60.17 288.03 61.01 288.58 61.07 287.74Z" fill="#C7DAEA"/>
<path d="M73.08 297.48C73.21 301.95 77.29 303.48 77.29 306.26C77.29 306.92 77.42 309.5 77.03 310.03C75.88 311.6 73.14 311.8 70.89 311.79C67.8112 311.921 64.7335 311.504 61.8 310.56C57.61 308.91 61.8 301.05 62.07 297.31C62.27 294.16 72.95 293.01 73.08 297.48Z" fill="#FFBE5F"/>
<path d="M59.98 306.74C59.98 306.74 63.64 308.74 70.22 308.74C77.22 308.74 77.29 306.3 77.29 306.3V311.66C77.29 312.5 74.14 313.56 69.15 313.56C66.4542 313.644 63.7782 313.074 61.35 311.9C60.9823 311.746 60.6619 311.498 60.4213 311.18C60.1807 310.862 60.0284 310.486 59.98 310.09V306.74Z" fill="white" stroke="white" stroke-linecap="round" stroke-linejoin="round"/>
<path d="M59.06 173.02C62.24 175.83 61.33 179.55 61.69 182.02C61.94 183.71 62.9 185.62 61.46 185.07C58.87 184.07 59.28 179.8 59.28 179.8C59.0075 179.955 58.7751 180.171 58.6014 180.431C58.4277 180.692 58.3176 180.989 58.28 181.3C58.04 183.18 60.28 187.08 60.55 188.96C60.82 190.84 56.7 189.25 55.07 187.03C52.07 183.24 52.07 176.56 52.07 175.95C52.07 174.62 52.07 170.84 52.07 170.84L59.49 166.03C59.49 166.03 58.56 172.55 59.06 173.02Z" fill="#FFAF99"/>
<path d="M72.24 85.8901L73.13 96.4201L68.26 119.42C68.26 119.42 55.26 120.9 56.15 116.8C58.35 106.37 58.86 88.4601 72.24 85.8901Z" fill="#C7DAEA"/>
<path d="M66.22 119.59L68.22 119.42L70.68 107.86L69.94 120.86L64.84 139.37C64.8651 132.754 65.3261 126.146 66.22 119.59Z" fill="#ADC6D8"/>
<path d="M108.44 105.24L111.58 116.82C110.762 116.94 109.934 116.97 109.11 116.91C108.82 114.56 108.44 105.24 108.44 105.24Z" fill="#ADC6D8"/>
<path d="M115.76 117.75C114.168 118.914 112.497 119.967 110.76 120.9L110.49 138.31L109.06 116.91C109.06 116.91 113.64 116.99 115.55 115.91L115.76 117.75Z" fill="#F29A86"/>
<path d="M56.46 119.68C58.68 121.43 64.62 121.61 64.62 121.61L62.62 134.55L66.17 119.55C66.17 119.55 58.49 120.01 56.64 118.33L56.46 119.68Z" fill="#F29A86"/>
<path d="M77.56 64.8802C77.56 64.8802 75.62 57.6502 76.28 52.2302C76.94 46.8102 79.28 43.1503 83.97 43.3303C83.97 43.3303 86.97 40.7602 92.6 41.6802C94.8122 42.1659 97.1164 42.0204 99.25 41.2602C101.04 40.4302 101.89 41.7102 101.35 43.3402C100.58 45.6802 99.86 48.6402 100.35 50.5502C101.18 53.7902 101.14 61.2202 100.47 63.4302C100.47 64.2102 99.62 64.2102 99.58 63.4302C99.54 62.6502 99.3 51.3103 97.05 50.2603C94.8 49.2102 92.69 50.1202 88.97 50.1202C85.25 50.1202 82.58 49.1203 80.55 49.9503C78.52 50.7803 77.92 61.6902 78.38 64.8802C78.46 65.7202 77.76 65.7002 77.56 64.8802Z" fill="#0E263F"/>
</svg>
