<svg width="88" height="83" viewBox="0 0 88 83" fill="none" xmlns="http://www.w3.org/2000/svg">
<g opacity="0.1">
<path d="M40.9923 60.7555C44.2729 57.0066 43.8906 51.3069 40.1386 48.025C36.3865 44.7431 30.6853 45.1217 27.4048 48.8706C24.1242 52.6196 24.5064 58.3192 28.2585 61.6011C32.0106 64.8831 37.7117 64.5045 40.9923 60.7555Z" fill="white"/>
<path d="M68.8822 53.9714C68.3199 53.6196 67.8497 53.1389 67.5105 52.569C67.1714 51.9992 66.9731 51.3568 66.9321 50.6951C66.6208 45.6355 65.1069 40.7223 62.5161 36.3633C59.9253 32.0044 56.3322 28.3254 52.0352 25.6317C47.7382 22.9381 42.8611 21.3075 37.8088 20.8752C32.7565 20.443 27.6746 21.2215 22.985 23.1463C22.4783 23.3541 21.9355 23.4601 21.3877 23.4581C20.8399 23.4562 20.2978 23.3464 19.7923 23.1351C18.7714 22.7082 17.9617 21.8935 17.5413 20.8702C17.3331 20.3635 17.2268 19.8208 17.2284 19.2731C17.23 18.7255 17.3395 18.1836 17.5506 17.6784C17.9769 16.658 18.7914 15.8491 19.8148 15.4294C25.7305 13.0003 32.1415 12.0173 38.5154 12.5621C44.8892 13.1069 51.042 15.1638 56.463 18.562C61.8839 21.9602 66.4166 26.6016 69.6846 32.1009C72.9527 37.6003 74.8618 43.7988 75.2535 50.1819C75.3011 50.9471 75.1367 51.7104 74.7784 52.3879C74.4201 53.0655 73.8818 53.631 73.2226 54.0223C72.5634 54.4137 71.809 54.6156 71.0422 54.606C70.2754 54.5964 69.526 54.3756 68.8764 53.9678L68.8822 53.9714Z" fill="white"/>
<path d="M24.1395 22.1737L20.4335 19.8506L18.765 22.5123L21.6316 24.3094L24.1395 22.1737Z" fill="white"/>
<path d="M53.952 59.3175C53.3202 58.9238 52.8053 58.3683 52.4608 57.7085C52.1163 57.0488 51.9547 56.309 51.9929 55.566C52.1585 52.3683 51.4752 49.1831 50.0123 46.3336C48.5493 43.484 46.3589 41.0715 43.663 39.3407C40.9671 37.6098 37.8617 36.6222 34.6618 36.4781C31.4619 36.3339 28.2813 37.0383 25.4426 38.5198C24.4621 39.0308 23.3186 39.1313 22.2635 38.7993C21.2084 38.4673 20.3282 37.73 19.8165 36.7495C19.3048 35.7691 19.2035 34.6258 19.5349 33.5712C19.8664 32.5166 20.6034 31.6371 21.5838 31.1262C25.7254 28.9654 30.3656 27.9382 35.0339 28.1487C39.7022 28.3591 44.2326 29.7998 48.1657 32.3247C52.0989 34.8495 55.2949 38.3688 57.4298 42.5255C59.5647 46.6823 60.5625 51.3288 60.3222 55.994C60.2849 56.7192 60.0589 57.422 59.6665 58.0328C59.2741 58.6437 58.7288 59.1414 58.0848 59.4768C57.4407 59.8122 56.7201 59.9736 55.9942 59.945C55.2683 59.9164 54.5624 59.6989 53.9463 59.3139L53.952 59.3175Z" fill="white"/>
<path d="M25.9479 37.5561L22.9164 35.6558L21.2478 38.3175L24.2793 40.2178L25.9479 37.5561Z" fill="white"/>
<path d="M58.5275 58.478L55.496 56.5776L53.8275 59.2394L56.859 61.1397L58.5275 58.478Z" fill="white"/>
<path d="M41.7521 48.9086L38.7206 47.0083L37.0521 49.6701L40.0836 51.5704L41.7521 48.9086Z" fill="white"/>
<path d="M33.7746 61.4941L30.7431 59.5938L29.0746 62.2555L32.106 64.1558L33.7746 61.4941Z" fill="white"/>
<path d="M73.4756 53.1376L70.4442 51.2373L68.7756 53.8991L71.2131 55.427L73.4756 53.1376Z" fill="white"/>
<path d="M40.9841 48.4303C39.4715 47.4821 37.7119 47.0035 35.9279 47.0549C34.1438 47.1063 32.4153 47.6854 30.9611 48.719C29.5069 49.7526 28.3921 51.1943 27.7579 52.8618C27.1237 54.5293 26.9984 56.3476 27.398 58.0869C27.7975 59.8262 28.7039 61.4083 30.0026 62.6331C31.3012 63.858 32.9338 64.6706 34.6939 64.9681C36.4539 65.2657 38.2624 65.0349 39.8905 64.3048C41.5187 63.5748 42.8935 62.3784 43.841 60.8669C45.1116 58.84 45.5244 56.391 44.9887 54.0587C44.4529 51.7264 43.0124 49.7018 40.9841 48.4303ZM50.2583 33.6356C46.3348 31.1893 41.8421 29.8066 37.2228 29.6238C32.6036 29.441 28.0171 30.4643 23.9152 32.593C22.9348 33.104 22.1978 33.9835 21.8663 35.0381C21.5349 36.0926 21.6361 37.2359 22.1478 38.2164C22.6595 39.1968 23.5398 39.9341 24.5949 40.2661C25.65 40.5981 26.7935 40.4976 27.7739 39.9867C30.6126 38.5051 33.7933 37.8007 36.9932 37.9449C40.1931 38.0891 43.2985 39.0766 45.9943 40.8075C48.6902 42.5383 50.8807 44.9509 52.3436 47.8004C53.8065 50.6499 54.4898 53.8351 54.3242 57.0328C54.2687 58.1377 54.6546 59.2197 55.3969 60.0407C56.1392 60.8617 57.1772 61.3544 58.2824 61.4106C59.3877 61.4668 60.4697 61.0817 61.2905 60.3401C62.1113 59.5985 62.6036 58.5612 62.6591 57.4563C62.8977 52.7433 61.8744 48.0511 59.6945 43.8639C57.5147 39.6766 54.2573 36.1458 50.2583 33.6356ZM77.5862 51.6386C77.1942 45.2554 75.2849 39.0567 72.0167 33.5573C68.7485 28.0579 64.2157 23.4164 58.7946 20.0181C53.3735 16.6199 47.2206 14.5629 40.8466 14.018C34.4726 13.473 28.0615 14.4559 22.1455 16.8849C21.1221 17.3046 20.3077 18.1136 19.8813 19.1339C19.4549 20.1542 19.4516 21.3024 19.872 22.3257C20.2924 23.349 21.1021 24.1637 22.123 24.5906C23.1439 25.0175 24.2924 25.0215 25.3158 24.6019C30.0053 22.6771 35.0872 21.8985 40.1395 22.3307C45.1918 22.763 50.0689 24.3936 54.3659 27.0873C58.6629 29.7809 62.256 33.4599 64.8468 37.8188C67.4376 42.1778 68.9515 47.091 69.2628 52.1506C69.3311 53.2546 69.8352 54.2865 70.6643 55.0193C71.4934 55.7522 72.5796 56.1259 73.6838 56.0583C74.7881 55.9907 75.82 55.4874 76.5525 54.659C77.2851 53.8306 77.6583 52.745 77.59 51.641L77.5862 51.6386Z" fill="white"/>
<g style="mix-blend-mode:multiply">
<path d="M51.2891 16.343C51.2891 16.343 53.539 21.4318 58.731 24.0116C58.731 24.0116 58.0126 29.0454 60.3488 31.8462C61.7929 25.2588 62.4569 21.2444 62.4569 21.2444L56.5166 17.5207" fill="white"/>
</g>
<path d="M33.7435 59.9813C35.9035 61.3353 38.7515 60.6832 40.1046 58.5246C41.4577 56.3661 40.8035 53.5186 38.6435 52.1646C36.4835 50.8105 33.6356 51.4627 32.2825 53.6213C30.9294 55.7798 31.5835 58.6273 33.7435 59.9813Z" fill="white"/>
<path d="M22.0018 17.1146C27.9178 14.6856 34.3289 13.7027 40.7029 14.2477C47.0769 14.7926 53.2298 16.8496 58.6509 20.2478C64.072 23.6461 68.6048 28.2876 71.873 33.787C75.1412 39.2865 77.0506 45.4851 77.4425 51.8683C77.4936 52.6804 77.304 53.4894 76.8974 54.1941C77.3976 53.4416 77.6382 52.5463 77.5829 51.6443C77.191 45.261 75.2817 39.0624 72.0135 33.563C68.7453 28.0636 64.2125 23.4221 58.7914 20.0238C53.3703 16.6255 47.2173 14.5685 40.8433 14.0236C34.4694 13.4787 28.0582 14.4615 22.1422 16.8906C21.3062 17.2339 20.6053 17.8407 20.146 18.6187C20.6031 17.9457 21.2486 17.4226 22.0018 17.1146Z" fill="white"/>
<path d="M50.2584 33.6354C46.3349 31.1891 41.8422 29.8064 37.2229 29.6236C32.6036 29.4408 28.0171 30.4641 23.9153 32.5929C23.2312 32.949 22.6605 33.4893 22.2675 34.1527C22.6509 33.5926 23.1671 33.1363 23.77 32.8246C27.9118 30.6632 32.5523 29.6356 37.221 29.8459C41.8897 30.0562 46.4205 31.4969 50.3539 34.022C54.2874 36.547 57.4836 40.0666 59.6185 44.2238C61.7535 48.381 62.7511 53.028 62.5103 57.6936C62.4756 58.3509 62.2859 58.9906 61.9566 59.5604C62.375 58.937 62.6165 58.2118 62.6555 57.4619C62.8956 52.7482 61.8733 48.0552 59.6941 43.8668C57.5149 39.6785 54.2576 36.1465 50.2584 33.6354Z" fill="white"/>
<path d="M40.9842 48.4303C38.9559 47.1588 36.5059 46.7446 34.1732 47.2788C31.8406 47.813 29.8163 49.2518 28.5457 51.2787C28.5217 51.317 28.4977 51.3553 28.4737 51.3936C29.7439 49.3672 31.7677 47.9287 34.0998 47.3947C36.4319 46.8607 38.8812 47.2748 40.909 48.5459C42.9368 49.8171 44.377 51.8411 44.9126 54.1728C45.4482 56.5046 45.0355 58.9529 43.7653 60.9793C43.7893 60.941 43.8133 60.9027 43.8373 60.8644C45.1075 58.8382 45.5204 56.3901 44.9854 54.0584C44.4504 51.7268 43.0112 49.7024 40.9842 48.4303Z" fill="white"/>
</g>
</svg>
