<svg width="126" height="122" viewBox="0 0 126 122" fill="none" xmlns="http://www.w3.org/2000/svg">
<path d="M87.3187 74.0443C83.9224 67.8147 76.1164 65.5206 69.8834 68.9204C63.6504 72.3203 61.3507 80.1265 64.747 86.3562C68.1433 92.5858 75.9494 94.8799 82.1824 91.4801C88.4154 88.0802 90.715 80.274 87.3187 74.0443Z" fill="#2AD1CD"/>
<path d="M91.9768 33.4292C91.2299 34.0076 90.3559 34.3994 89.4274 34.5723C88.4989 34.7452 87.5426 34.6941 86.6381 34.4232C79.7224 32.3493 72.4105 31.9549 65.3095 33.2725C58.2085 34.5902 51.5231 37.5821 45.8082 41.9997C40.0933 46.4174 35.5137 52.1335 32.4496 58.6735C29.3855 65.2136 27.9252 72.389 28.19 79.6041C28.2184 80.3837 28.0929 81.1612 27.8207 81.8925C27.5485 82.6237 27.135 83.2943 26.6037 83.8659C25.5308 85.0204 24.0434 85.7017 22.4688 85.76C21.6891 85.7888 20.9114 85.6639 20.1803 85.3922C19.4491 85.1206 18.7787 84.7076 18.2073 84.1768C17.0534 83.1048 16.3729 81.6181 16.3157 80.0438C15.9802 70.9415 17.8214 61.889 21.6862 53.6381C25.5511 45.3871 31.3282 38.1757 38.5379 32.6025C45.7476 27.0294 54.1818 23.2553 63.1403 21.5937C72.0988 19.9321 81.3231 20.4308 90.0473 23.0485C91.0934 23.3615 92.0328 23.9569 92.762 24.7692C93.4913 25.5815 93.9822 26.5794 94.1809 27.653C94.3795 28.7265 94.2782 29.8343 93.888 30.8544C93.4978 31.8745 92.8338 32.7675 91.9692 33.4351L91.9768 33.4292Z" fill="#2AD1CD"/>
<path d="M27.4579 77.5823L22.5291 81.3923L25.2655 84.9324L29.0781 81.9852L27.4579 77.5823Z" fill="#2AD1CD"/>
<path d="M91.7746 56.0151C90.9375 56.6658 89.9416 57.0806 88.8903 57.2165C87.8389 57.3523 86.7706 57.2042 85.7963 56.7875C81.6038 54.9925 77.0104 54.3383 72.4818 54.8912C67.9533 55.4442 63.6508 57.1847 60.0107 59.9361C56.3706 62.6876 53.5224 66.3521 51.755 70.5581C49.9876 74.764 49.3638 79.3618 49.947 83.885C50.1474 85.4469 49.719 87.0248 48.756 88.2716C47.793 89.5184 46.3744 90.332 44.8121 90.5334C43.2499 90.7349 41.672 90.3076 40.4256 89.3456C39.1792 88.3836 38.3663 86.9658 38.1659 85.4039C37.3161 78.805 38.2267 72.0975 40.8053 65.9616C43.384 59.8257 47.5391 54.4796 52.8493 50.4652C58.1595 46.4508 64.436 43.911 71.0425 43.1032C77.6489 42.2954 84.3504 43.2483 90.4674 45.8654C91.4184 46.2721 92.2465 46.92 92.8698 47.7451C93.4931 48.5702 93.89 49.5439 94.0213 50.5698C94.1526 51.5958 94.0137 52.6383 93.6183 53.5944C93.2229 54.5505 92.5847 55.387 91.7669 56.021L91.7746 56.0151Z" fill="#2AD1CD"/>
<path d="M48.9076 82.7354L44.8759 85.8521L47.6123 89.3921L51.6441 86.2755L48.9076 82.7354Z" fill="#2AD1CD"/>
<path d="M92.9044 49.4867L88.8726 52.6033L91.6091 56.1433L95.6409 53.0267L92.9044 49.4867Z" fill="#2AD1CD"/>
<path d="M71.859 67.1991L67.8273 70.3157L70.5638 73.8557L74.5955 70.7391L71.859 67.1991Z" fill="#2AD1CD"/>
<path d="M84.7544 84.055L80.7227 87.1716L83.4591 90.7117L87.4909 87.5951L84.7544 84.055Z" fill="#2AD1CD"/>
<path d="M93.1227 26.8792L89.0909 29.9958L91.8274 33.5359L95.0692 31.03L93.1227 26.8792Z" fill="#2AD1CD"/>
<path d="M70.8416 67.9901C68.8299 69.5451 67.3242 71.6614 66.5149 74.0712C65.7056 76.481 65.629 79.0762 66.2949 81.5286C66.9607 83.9809 68.3391 86.1803 70.2557 87.8486C72.1722 89.5169 74.5409 90.5792 77.0622 90.9011C79.5835 91.223 82.1442 90.7901 84.4204 89.6571C86.6965 88.5242 88.586 86.742 89.8499 84.536C91.1138 82.33 91.6952 79.7993 91.5208 77.2639C91.3463 74.7285 90.4238 72.3022 88.8698 70.2919C86.786 67.5962 83.7159 65.8392 80.335 65.4075C76.954 64.9759 73.5391 65.9049 70.8416 67.9901ZM55.6315 48.3136C50.4309 52.3538 46.3719 57.6781 43.8544 63.7622C41.3368 69.8462 40.4474 76.48 41.274 83.01C41.4744 84.5718 42.2872 85.9897 43.5336 86.9517C44.78 87.9137 46.3579 88.3409 47.9202 88.1395C49.4825 87.9381 50.9011 87.1245 51.8641 85.8777C52.8271 84.6308 53.2554 83.0529 53.055 81.4911C52.4719 76.9678 53.0956 72.3701 54.8631 68.1641C56.6305 63.9582 59.4787 60.2936 63.1188 57.5422C66.7589 54.7907 71.0614 53.0503 75.5899 52.4973C80.1184 51.9443 84.7119 52.5985 88.9043 54.3936C90.3538 55.0115 91.9898 55.0282 93.4524 54.4401C94.9151 53.852 96.0845 52.7072 96.7035 51.2576C97.3224 49.8079 97.3403 48.1722 96.753 46.7102C96.1658 45.2483 95.0216 44.0798 93.5721 43.4619C87.3903 40.8235 80.6153 39.8822 73.946 40.735C67.2767 41.5879 60.9545 44.204 55.6315 48.3136ZM93.1423 20.6478C84.4178 18.0303 75.1933 17.5318 66.2346 19.1936C57.2759 20.8554 48.8415 24.6296 41.6317 30.2029C34.4218 35.7762 28.6445 42.9877 24.7794 51.2388C20.9143 59.4899 19.0729 68.5425 19.4081 77.645C19.4654 79.2193 20.1458 80.706 21.2998 81.778C22.4537 82.85 23.9866 83.4195 25.5612 83.3612C27.1359 83.3029 28.6232 82.6216 29.6962 81.4672C30.7691 80.3127 31.3397 78.7797 31.2825 77.2054C31.0177 69.9902 32.478 62.8149 35.5421 56.2748C38.6062 49.7348 43.1857 44.0187 48.9006 39.601C54.6155 35.1833 61.3009 32.1915 68.4019 30.8738C75.503 29.5561 82.8148 29.9506 89.7305 32.0245C91.2397 32.4765 92.867 32.3105 94.2545 31.563C95.642 30.8155 96.676 29.5477 97.1291 28.0386C97.5822 26.5294 97.4173 24.9025 96.6706 23.5157C95.9239 22.1289 94.6565 21.0959 93.1474 20.6439L93.1423 20.6478Z" fill="#2AD1CD"/>
<g style="mix-blend-mode:multiply">
<path d="M33.0261 38.426C33.0261 38.426 40.9348 37.923 46.9381 32.2531C46.9381 32.2531 53.3125 35.6907 58.2057 33.9465C50.1119 28.7745 45.0732 25.9115 45.0732 25.9115L37.1727 32.0186" fill="#2AD1CD"/>
</g>
<path d="M82.7166 83.3519C85.5894 81.1313 86.1192 77.0039 83.9001 74.1331C81.681 71.2623 77.5532 70.7353 74.6804 72.956C71.8077 75.1766 71.2778 79.304 73.497 82.1748C75.7161 85.0456 79.8439 85.5726 82.7166 83.3519Z" fill="#2AD1CD"/>
<path d="M19.6445 77.95C19.3093 68.8475 21.1507 59.7949 25.0158 51.5438C28.8809 43.2927 34.6582 36.0812 41.8681 30.5079C49.0779 24.9346 57.5123 21.1604 66.471 19.4986C75.4297 17.8368 84.6542 18.3353 93.3787 20.9528C94.4893 21.2842 95.4773 21.9357 96.219 22.8259C95.4594 21.7871 94.3812 21.0248 93.1484 20.6548C84.4239 18.0373 75.1994 17.5388 66.2407 19.2006C57.282 20.8624 48.8476 24.6366 41.6377 30.2099C34.4279 35.7832 28.6506 42.9947 24.7855 51.2458C20.9204 59.4969 19.079 68.5495 19.4142 77.6521C19.4616 78.9384 19.9277 80.1738 20.7416 81.1706C20.067 80.2285 19.6854 79.1083 19.6445 77.95Z" fill="#2AD1CD"/>
<path d="M55.6314 48.3135C50.4309 52.3537 46.3719 57.678 43.8543 63.7621C41.3367 69.8461 40.4474 76.4799 41.2739 83.0099C41.4133 84.0994 41.8545 85.1281 42.5478 85.9798C41.9879 85.1918 41.6321 84.2773 41.5121 83.318C40.6616 76.7186 41.5719 70.0105 44.1505 63.874C46.7291 57.7375 50.8844 52.3908 56.1951 48.3761C61.5057 44.3614 67.7828 41.8215 74.3898 41.0139C80.9969 40.2063 87.6988 41.1597 93.8161 43.7776C94.6776 44.1474 95.4393 44.7158 96.0389 45.4363C95.4114 44.5704 94.561 43.8907 93.5779 43.4694C87.396 40.8289 80.6203 39.8857 73.9498 40.7372C67.2794 41.5887 60.9557 44.2041 55.6314 48.3135Z" fill="#2AD1CD"/>
<path d="M70.8415 67.9899C68.1439 70.0751 66.3846 73.1458 65.9506 76.5265C65.5166 79.9071 66.4435 83.3208 68.5273 86.0165C68.5667 86.0675 68.6061 86.1184 68.6454 86.1693C66.5622 83.4743 65.6355 80.0615 66.0694 76.6817C66.5033 73.3018 68.2621 70.2319 70.959 68.1472C73.6559 66.0625 77.0699 65.1337 80.45 65.5653C83.8301 65.9968 86.8995 67.7534 88.9828 70.4484C88.9434 70.3975 88.904 70.3465 88.8646 70.2956C86.7815 67.6008 83.7127 65.844 80.333 65.4117C76.9533 64.9793 73.5392 65.9066 70.8415 67.9899Z" fill="#2AD1CD"/>
</svg>
